<ttFont>
    <TTGlyph name="A" xMin="61" yMin="0" xMax="1372" yMax="1434">
      <contour>
        <pt x="819" y="1434" on="1"/>
        <pt x="1372" y="0" on="1"/>
        <pt x="1167" y="0" on="1"/>
        <pt x="1040" y="330" on="1"/>
        <pt x="393" y="330" on="1"/>
        <pt x="266" y="0" on="1"/>
        <pt x="61" y="0" on="1"/>
        <pt x="614" y="1434" on="1"/>
      </contour>
      <contour>
        <pt x="471" y="535" on="1"/>
        <pt x="961" y="535" on="1"/>
        <pt x="717" y="1167" on="1"/>
      </contour>
    </TTGlyph>
    <TTGlyph name="AE" xMin="2" yMin="0" xMax="2232" yMax="1434">
      <contour>
        <pt x="1188" y="330" on="1"/>
        <pt x="514" y="330" on="1"/>
        <pt x="258" y="0" on="1"/>
        <pt x="2" y="0" on="1"/>
        <pt x="1116" y="1434" on="1"/>
        <pt x="2232" y="1434" on="1"/>
        <pt x="2232" y="1229" on="1"/>
        <pt x="1393" y="1229" on="1"/>
        <pt x="1393" y="819" on="1"/>
        <pt x="2109" y="819" on="1"/>
        <pt x="2109" y="614" on="1"/>
        <pt x="1393" y="614" on="1"/>
        <pt x="1393" y="205" on="1"/>
        <pt x="2232" y="205" on="1"/>
        <pt x="2232" y="0" on="1"/>
        <pt x="1188" y="0" on="1"/>
      </contour>
      <contour>
        <pt x="1188" y="535" on="1"/>
        <pt x="1188" y="1196" on="1"/>
        <pt x="672" y="535" on="1"/>
      </contour>
    </TTGlyph>
    <TTGlyph name="Aacute" xMin="61" yMin="0" xMax="1372" yMax="1843">
      <contour>
        <pt x="819" y="1434" on="1"/>
        <pt x="1372" y="0" on="1"/>
        <pt x="1167" y="0" on="1"/>
        <pt x="1040" y="330" on="1"/>
        <pt x="393" y="330" on="1"/>
        <pt x="266" y="0" on="1"/>
        <pt x="61" y="0" on="1"/>
        <pt x="614" y="1434" on="1"/>
      </contour>
      <contour>
        <pt x="471" y="535" on="1"/>
        <pt x="961" y="535" on="1"/>
        <pt x="717" y="1167" on="1"/>
      </contour>
      <contour>
        <pt x="762" y="1843" on="1"/>
        <pt x="1061" y="1843" on="1"/>
        <pt x="723" y="1618" on="1"/>
        <pt x="535" y="1618" on="1"/>
      </contour>
    </TTGlyph>
    <TTGlyph name="Acircumflex" xMin="61" yMin="0" xMax="1372" yMax="1864">
      <contour>
        <pt x="819" y="1434" on="1"/>
        <pt x="1372" y="0" on="1"/>
        <pt x="1167" y="0" on="1"/>
        <pt x="1040" y="330" on="1"/>
        <pt x="393" y="330" on="1"/>
        <pt x="266" y="0" on="1"/>
        <pt x="61" y="0" on="1"/>
        <pt x="614" y="1434" on="1"/>
      </contour>
      <contour>
        <pt x="471" y="535" on="1"/>
        <pt x="961" y="535" on="1"/>
        <pt x="717" y="1167" on="1"/>
      </contour>
      <contour>
        <pt x="1077" y="1618" on="1"/>
        <pt x="868" y="1618" on="1"/>
        <pt x="717" y="1753" on="1"/>
        <pt x="565" y="1618" on="1"/>
        <pt x="356" y="1618" on="1"/>
        <pt x="594" y="1864" on="1"/>
        <pt x="840" y="1864" on="1"/>
      </contour>
    </TTGlyph>
    <TTGlyph name="Adieresis" xMin="61" yMin="0" xMax="1372" yMax="1835">
      <contour>
        <pt x="819" y="1434" on="1"/>
        <pt x="1372" y="0" on="1"/>
        <pt x="1167" y="0" on="1"/>
        <pt x="1040" y="330" on="1"/>
        <pt x="393" y="330" on="1"/>
        <pt x="266" y="0" on="1"/>
        <pt x="61" y="0" on="1"/>
        <pt x="614" y="1434" on="1"/>
      </contour>
      <contour>
        <pt x="471" y="535" on="1"/>
        <pt x="961" y="535" on="1"/>
        <pt x="717" y="1167" on="1"/>
      </contour>
      <contour>
        <pt x="815" y="1835" on="1"/>
        <pt x="1032" y="1835" on="1"/>
        <pt x="1032" y="1618" on="1"/>
        <pt x="815" y="1618" on="1"/>
      </contour>
      <contour>
        <pt x="399" y="1835" on="1"/>
        <pt x="616" y="1835" on="1"/>
        <pt x="616" y="1618" on="1"/>
        <pt x="399" y="1618" on="1"/>
      </contour>
    </TTGlyph>
    <TTGlyph name="Agrave" xMin="61" yMin="0" xMax="1372" yMax="1843">
      <contour>
        <pt x="819" y="1434" on="1"/>
        <pt x="1372" y="0" on="1"/>
        <pt x="1167" y="0" on="1"/>
        <pt x="1040" y="330" on="1"/>
        <pt x="393" y="330" on="1"/>
        <pt x="266" y="0" on="1"/>
        <pt x="61" y="0" on="1"/>
        <pt x="614" y="1434" on="1"/>
      </contour>
      <contour>
        <pt x="471" y="535" on="1"/>
        <pt x="961" y="535" on="1"/>
        <pt x="717" y="1167" on="1"/>
      </contour>
      <contour>
        <pt x="897" y="1618" on="1"/>
        <pt x="709" y="1618" on="1"/>
        <pt x="371" y="1843" on="1"/>
        <pt x="670" y="1843" on="1"/>
      </contour>
    </TTGlyph>
    <TTGlyph name="Aring" xMin="61" yMin="0" xMax="1372" yMax="1845">
      <contour>
        <pt x="440" y="1569" on="1"/>
        <pt x="440" y="1627" on="0"/>
        <pt x="483" y="1728" on="0"/>
        <pt x="557" y="1802" on="0"/>
        <pt x="659" y="1845" on="0"/>
        <pt x="717" y="1845" on="1"/>
        <pt x="775" y="1845" on="0"/>
        <pt x="876" y="1802" on="0"/>
        <pt x="950" y="1728" on="0"/>
        <pt x="993" y="1627" on="0"/>
        <pt x="993" y="1569" on="1"/>
        <pt x="993" y="1490" on="0"/>
        <pt x="920" y="1364" on="0"/>
        <pt x="858" y="1329" on="1"/>
        <pt x="1372" y="0" on="1"/>
        <pt x="1167" y="0" on="1"/>
        <pt x="1040" y="330" on="1"/>
        <pt x="393" y="330" on="1"/>
        <pt x="266" y="0" on="1"/>
        <pt x="61" y="0" on="1"/>
        <pt x="573" y="1329" on="1"/>
        <pt x="513" y="1364" on="0"/>
        <pt x="440" y="1490" on="0"/>
      </contour>
      <contour>
        <pt x="471" y="535" on="1"/>
        <pt x="961" y="535" on="1"/>
        <pt x="717" y="1167" on="1"/>
      </contour>
      <contour>
        <pt x="586" y="1569" on="1"/>
        <pt x="586" y="1541" on="0"/>
        <pt x="606" y="1492" on="0"/>
        <pt x="641" y="1455" on="0"/>
        <pt x="689" y="1434" on="0"/>
        <pt x="717" y="1434" on="1"/>
        <pt x="745" y="1434" on="0"/>
        <pt x="793" y="1455" on="0"/>
        <pt x="828" y="1492" on="0"/>
        <pt x="848" y="1541" on="0"/>
        <pt x="848" y="1569" on="1"/>
        <pt x="848" y="1596" on="0"/>
        <pt x="828" y="1645" on="0"/>
        <pt x="793" y="1682" on="0"/>
        <pt x="745" y="1704" on="0"/>
        <pt x="717" y="1704" on="1"/>
        <pt x="689" y="1704" on="0"/>
        <pt x="641" y="1682" on="0"/>
        <pt x="606" y="1645" on="0"/>
        <pt x="586" y="1596" on="0"/>
      </contour>
    </TTGlyph>
    <TTGlyph name="Atilde" xMin="61" yMin="0" xMax="1372" yMax="1872">
      <contour>
        <pt x="819" y="1434" on="1"/>
        <pt x="1372" y="0" on="1"/>
        <pt x="1167" y="0" on="1"/>
        <pt x="1040" y="330" on="1"/>
        <pt x="393" y="330" on="1"/>
        <pt x="266" y="0" on="1"/>
        <pt x="61" y="0" on="1"/>
        <pt x="614" y="1434" on="1"/>
      </contour>
      <contour>
        <pt x="471" y="535" on="1"/>
        <pt x="961" y="535" on="1"/>
        <pt x="717" y="1167" on="1"/>
      </contour>
      <contour>
        <pt x="326" y="1620" on="1"/>
        <pt x="326" y="1673" on="0"/>
        <pt x="362" y="1765" on="0"/>
        <pt x="426" y="1833" on="0"/>
        <pt x="515" y="1872" on="0"/>
        <pt x="569" y="1872" on="1"/>
        <pt x="625" y="1872" on="0"/>
        <pt x="703" y="1841" on="0"/>
        <pt x="769" y="1803" on="0"/>
        <pt x="832" y="1772" on="0"/>
        <pt x="872" y="1772" on="1"/>
        <pt x="916" y="1772" on="0"/>
        <pt x="968" y="1832" on="0"/>
        <pt x="971" y="1872" on="1"/>
        <pt x="1108" y="1872" on="1"/>
        <pt x="1107" y="1819" on="0"/>
        <pt x="1071" y="1727" on="0"/>
        <pt x="1007" y="1659" on="0"/>
        <pt x="918" y="1620" on="0"/>
        <pt x="864" y="1620" on="1"/>
        <pt x="808" y="1620" on="0"/>
        <pt x="730" y="1651" on="0"/>
        <pt x="664" y="1689" on="0"/>
        <pt x="601" y="1720" on="0"/>
        <pt x="561" y="1720" on="1"/>
        <pt x="518" y="1720" on="0"/>
        <pt x="466" y="1660" on="0"/>
        <pt x="463" y="1620" on="1"/>
      </contour>
    </TTGlyph>
    <TTGlyph name="B" xMin="184" yMin="0" xMax="1317" yMax="1434">
      <contour>
        <pt x="1118" y="748" on="1"/>
        <pt x="1163" y="734" on="0"/>
        <pt x="1237" y="682" on="0"/>
        <pt x="1289" y="601" on="0"/>
        <pt x="1317" y="491" on="0"/>
        <pt x="1317" y="420" on="1"/>
        <pt x="1317" y="348" on="1"/>
        <pt x="1317" y="0" on="0"/>
        <pt x="969" y="0" on="1"/>
        <pt x="184" y="0" on="1"/>
        <pt x="184" y="1434" on="1"/>
        <pt x="928" y="1434" on="1"/>
        <pt x="1276" y="1434" on="0"/>
        <pt x="1276" y="1085" on="1"/>
        <pt x="1276" y="1059" on="1"/>
        <pt x="1276" y="938" on="0"/>
        <pt x="1199" y="785" on="0"/>
      </contour>
      <contour>
        <pt x="385" y="625" on="1"/>
        <pt x="385" y="201" on="1"/>
        <pt x="963" y="201" on="1"/>
        <pt x="1044" y="201" on="0"/>
        <pt x="1116" y="277" on="0"/>
        <pt x="1116" y="358" on="1"/>
        <pt x="1116" y="469" on="1"/>
        <pt x="1116" y="551" on="0"/>
        <pt x="1044" y="625" on="0"/>
        <pt x="963" y="625" on="1"/>
      </contour>
      <contour>
        <pt x="385" y="1233" on="1"/>
        <pt x="385" y="825" on="1"/>
        <pt x="936" y="825" on="1"/>
        <pt x="1010" y="828" on="0"/>
        <pt x="1075" y="903" on="0"/>
        <pt x="1075" y="981" on="1"/>
        <pt x="1075" y="1075" on="1"/>
        <pt x="1075" y="1157" on="0"/>
        <pt x="1003" y="1233" on="0"/>
        <pt x="922" y="1233" on="1"/>
      </contour>
    </TTGlyph>
    <TTGlyph name="C" xMin="184" yMin="0" xMax="1372" yMax="1434">
      <contour>
        <pt x="184" y="1229" on="1"/>
        <pt x="184" y="1271" on="0"/>
        <pt x="216" y="1346" on="0"/>
        <pt x="272" y="1401" on="0"/>
        <pt x="347" y="1434" on="0"/>
        <pt x="389" y="1434" on="1"/>
        <pt x="1167" y="1434" on="1"/>
        <pt x="1209" y="1434" on="0"/>
        <pt x="1284" y="1401" on="0"/>
        <pt x="1340" y="1346" on="0"/>
        <pt x="1372" y="1271" on="0"/>
        <pt x="1372" y="1229" on="1"/>
        <pt x="1372" y="1044" on="1"/>
        <pt x="1167" y="1044" on="1"/>
        <pt x="1167" y="1229" on="1"/>
        <pt x="389" y="1229" on="1"/>
        <pt x="389" y="205" on="1"/>
        <pt x="1167" y="205" on="1"/>
        <pt x="1167" y="389" on="1"/>
        <pt x="1372" y="389" on="1"/>
        <pt x="1372" y="205" on="1"/>
        <pt x="1372" y="163" on="0"/>
        <pt x="1340" y="88" on="0"/>
        <pt x="1284" y="32" on="0"/>
        <pt x="1209" y="0" on="0"/>
        <pt x="1167" y="0" on="1"/>
        <pt x="389" y="0" on="1"/>
        <pt x="347" y="0" on="0"/>
        <pt x="272" y="32" on="0"/>
        <pt x="216" y="88" on="0"/>
        <pt x="184" y="163" on="0"/>
        <pt x="184" y="205" on="1"/>
      </contour>
    </TTGlyph>
    <TTGlyph name="Ccedilla" xMin="184" yMin="-526" xMax="1372" yMax="1434">
      <contour>
        <pt x="571" y="-231" on="1"/>
        <pt x="737" y="0" on="1"/>
        <pt x="389" y="0" on="1"/>
        <pt x="347" y="0" on="0"/>
        <pt x="272" y="32" on="0"/>
        <pt x="216" y="88" on="0"/>
        <pt x="184" y="163" on="0"/>
        <pt x="184" y="205" on="1"/>
        <pt x="184" y="1229" on="1"/>
        <pt x="184" y="1271" on="0"/>
        <pt x="216" y="1346" on="0"/>
        <pt x="272" y="1401" on="0"/>
        <pt x="347" y="1434" on="0"/>
        <pt x="389" y="1434" on="1"/>
        <pt x="1167" y="1434" on="1"/>
        <pt x="1209" y="1434" on="0"/>
        <pt x="1284" y="1401" on="0"/>
        <pt x="1340" y="1346" on="0"/>
        <pt x="1372" y="1271" on="0"/>
        <pt x="1372" y="1229" on="1"/>
        <pt x="1372" y="1044" on="1"/>
        <pt x="1167" y="1044" on="1"/>
        <pt x="1167" y="1229" on="1"/>
        <pt x="389" y="1229" on="1"/>
        <pt x="389" y="205" on="1"/>
        <pt x="1167" y="205" on="1"/>
        <pt x="1167" y="389" on="1"/>
        <pt x="1372" y="389" on="1"/>
        <pt x="1372" y="205" on="1"/>
        <pt x="1372" y="163" on="0"/>
        <pt x="1340" y="88" on="0"/>
        <pt x="1284" y="32" on="0"/>
        <pt x="1209" y="0" on="0"/>
        <pt x="1167" y="0" on="1"/>
        <pt x="883" y="0" on="1"/>
        <pt x="819" y="-92" on="1"/>
        <pt x="848" y="-92" on="0"/>
        <pt x="899" y="-114" on="0"/>
        <pt x="937" y="-152" on="0"/>
        <pt x="958" y="-203" on="0"/>
        <pt x="958" y="-231" on="1"/>
        <pt x="958" y="-387" on="1"/>
        <pt x="958" y="-416" on="0"/>
        <pt x="937" y="-466" on="0"/>
        <pt x="899" y="-504" on="0"/>
        <pt x="848" y="-526" on="0"/>
        <pt x="819" y="-526" on="1"/>
        <pt x="555" y="-526" on="1"/>
        <pt x="555" y="-387" on="1"/>
        <pt x="819" y="-387" on="1"/>
        <pt x="819" y="-231" on="1"/>
      </contour>
    </TTGlyph>
    <TTGlyph name="D" xMin="184" yMin="0" xMax="1415" yMax="1434">
      <contour>
        <pt x="913" y="205" on="1"/>
        <pt x="1056" y="205" on="0"/>
        <pt x="1210" y="359" on="0"/>
        <pt x="1210" y="502" on="1"/>
        <pt x="1210" y="932" on="1"/>
        <pt x="1210" y="1002" on="0"/>
        <pt x="1170" y="1112" on="0"/>
        <pt x="1093" y="1189" on="0"/>
        <pt x="983" y="1229" on="0"/>
        <pt x="913" y="1229" on="1"/>
        <pt x="389" y="1229" on="1"/>
        <pt x="389" y="205" on="1"/>
      </contour>
      <contour>
        <pt x="184" y="0" on="1"/>
        <pt x="184" y="1434" on="1"/>
        <pt x="913" y="1434" on="1"/>
        <pt x="1028" y="1434" on="0"/>
        <pt x="1213" y="1363" on="0"/>
        <pt x="1344" y="1232" on="0"/>
        <pt x="1415" y="1046" on="0"/>
        <pt x="1415" y="932" on="1"/>
        <pt x="1415" y="502" on="1"/>
        <pt x="1415" y="388" on="0"/>
        <pt x="1344" y="202" on="0"/>
        <pt x="1213" y="71" on="0"/>
        <pt x="1028" y="0" on="0"/>
        <pt x="913" y="0" on="1"/>
      </contour>
    </TTGlyph>
    <TTGlyph name="E" xMin="184" yMin="0" xMax="1229" yMax="1434">
      <contour>
        <pt x="184" y="1434" on="1"/>
        <pt x="1229" y="1434" on="1"/>
        <pt x="1229" y="1229" on="1"/>
        <pt x="389" y="1229" on="1"/>
        <pt x="389" y="819" on="1"/>
        <pt x="1106" y="819" on="1"/>
        <pt x="1106" y="614" on="1"/>
        <pt x="389" y="614" on="1"/>
        <pt x="389" y="205" on="1"/>
        <pt x="1229" y="205" on="1"/>
        <pt x="1229" y="0" on="1"/>
        <pt x="184" y="0" on="1"/>
      </contour>
    </TTGlyph>
    <TTGlyph name="Eacute" xMin="184" yMin="0" xMax="1229" yMax="1843">
      <contour>
        <pt x="184" y="1434" on="1"/>
        <pt x="1229" y="1434" on="1"/>
        <pt x="1229" y="1229" on="1"/>
        <pt x="389" y="1229" on="1"/>
        <pt x="389" y="819" on="1"/>
        <pt x="1106" y="819" on="1"/>
        <pt x="1106" y="614" on="1"/>
        <pt x="389" y="614" on="1"/>
        <pt x="389" y="205" on="1"/>
        <pt x="1229" y="205" on="1"/>
        <pt x="1229" y="0" on="1"/>
        <pt x="184" y="0" on="1"/>
      </contour>
      <contour>
        <pt x="721" y="1843" on="1"/>
        <pt x="1020" y="1843" on="1"/>
        <pt x="682" y="1618" on="1"/>
        <pt x="494" y="1618" on="1"/>
      </contour>
    </TTGlyph>
    <TTGlyph name="Ecircumflex" xMin="184" yMin="0" xMax="1229" yMax="1864">
      <contour>
        <pt x="184" y="1434" on="1"/>
        <pt x="1229" y="1434" on="1"/>
        <pt x="1229" y="1229" on="1"/>
        <pt x="389" y="1229" on="1"/>
        <pt x="389" y="819" on="1"/>
        <pt x="1106" y="819" on="1"/>
        <pt x="1106" y="614" on="1"/>
        <pt x="389" y="614" on="1"/>
        <pt x="389" y="205" on="1"/>
        <pt x="1229" y="205" on="1"/>
        <pt x="1229" y="0" on="1"/>
        <pt x="184" y="0" on="1"/>
      </contour>
      <contour>
        <pt x="1077" y="1618" on="1"/>
        <pt x="868" y="1618" on="1"/>
        <pt x="717" y="1753" on="1"/>
        <pt x="565" y="1618" on="1"/>
        <pt x="356" y="1618" on="1"/>
        <pt x="594" y="1864" on="1"/>
        <pt x="840" y="1864" on="1"/>
      </contour>
    </TTGlyph>
    <TTGlyph name="Edieresis" xMin="184" yMin="0" xMax="1229" yMax="1835">
      <contour>
        <pt x="184" y="1434" on="1"/>
        <pt x="1229" y="1434" on="1"/>
        <pt x="1229" y="1229" on="1"/>
        <pt x="389" y="1229" on="1"/>
        <pt x="389" y="819" on="1"/>
        <pt x="1106" y="819" on="1"/>
        <pt x="1106" y="614" on="1"/>
        <pt x="389" y="614" on="1"/>
        <pt x="389" y="205" on="1"/>
        <pt x="1229" y="205" on="1"/>
        <pt x="1229" y="0" on="1"/>
        <pt x="184" y="0" on="1"/>
      </contour>
      <contour>
        <pt x="815" y="1835" on="1"/>
        <pt x="1032" y="1835" on="1"/>
        <pt x="1032" y="1618" on="1"/>
        <pt x="815" y="1618" on="1"/>
      </contour>
      <contour>
        <pt x="399" y="1835" on="1"/>
        <pt x="616" y="1835" on="1"/>
        <pt x="616" y="1618" on="1"/>
        <pt x="399" y="1618" on="1"/>
      </contour>
    </TTGlyph>
    <TTGlyph name="Egrave" xMin="184" yMin="0" xMax="1229" yMax="1843">
      <contour>
        <pt x="184" y="1434" on="1"/>
        <pt x="1229" y="1434" on="1"/>
        <pt x="1229" y="1229" on="1"/>
        <pt x="389" y="1229" on="1"/>
        <pt x="389" y="819" on="1"/>
        <pt x="1106" y="819" on="1"/>
        <pt x="1106" y="614" on="1"/>
        <pt x="389" y="614" on="1"/>
        <pt x="389" y="205" on="1"/>
        <pt x="1229" y="205" on="1"/>
        <pt x="1229" y="0" on="1"/>
        <pt x="184" y="0" on="1"/>
      </contour>
      <contour>
        <pt x="897" y="1618" on="1"/>
        <pt x="709" y="1618" on="1"/>
        <pt x="371" y="1843" on="1"/>
        <pt x="670" y="1843" on="1"/>
      </contour>
    </TTGlyph>
    <TTGlyph name="Eth" xMin="41" yMin="0" xMax="1456" yMax="1434">
      <contour>
        <pt x="41" y="745" on="1"/>
        <pt x="225" y="745" on="1"/>
        <pt x="225" y="1434" on="1"/>
        <pt x="954" y="1434" on="1"/>
        <pt x="1069" y="1434" on="0"/>
        <pt x="1254" y="1363" on="0"/>
        <pt x="1385" y="1232" on="0"/>
        <pt x="1456" y="1046" on="0"/>
        <pt x="1456" y="932" on="1"/>
        <pt x="1456" y="502" on="1"/>
        <pt x="1456" y="388" on="0"/>
        <pt x="1385" y="202" on="0"/>
        <pt x="1254" y="71" on="0"/>
        <pt x="1069" y="0" on="0"/>
        <pt x="954" y="0" on="1"/>
        <pt x="225" y="0" on="1"/>
        <pt x="225" y="580" on="1"/>
        <pt x="41" y="580" on="1"/>
      </contour>
      <contour>
        <pt x="954" y="205" on="1"/>
        <pt x="1097" y="205" on="0"/>
        <pt x="1251" y="359" on="0"/>
        <pt x="1251" y="502" on="1"/>
        <pt x="1251" y="932" on="1"/>
        <pt x="1251" y="1002" on="0"/>
        <pt x="1211" y="1112" on="0"/>
        <pt x="1134" y="1189" on="0"/>
        <pt x="1024" y="1229" on="0"/>
        <pt x="954" y="1229" on="1"/>
        <pt x="430" y="1229" on="1"/>
        <pt x="430" y="745" on="1"/>
        <pt x="786" y="745" on="1"/>
        <pt x="786" y="580" on="1"/>
        <pt x="430" y="580" on="1"/>
        <pt x="430" y="205" on="1"/>
      </contour>
    </TTGlyph>
    <TTGlyph name="Euro" xMin="61" yMin="0" xMax="1464" yMax="1434">
      <contour>
        <pt x="61" y="950" on="1"/>
        <pt x="276" y="950" on="1"/>
        <pt x="276" y="1229" on="1"/>
        <pt x="276" y="1271" on="0"/>
        <pt x="309" y="1346" on="0"/>
        <pt x="364" y="1401" on="0"/>
        <pt x="439" y="1434" on="0"/>
        <pt x="481" y="1434" on="1"/>
        <pt x="1260" y="1434" on="1"/>
        <pt x="1302" y="1434" on="0"/>
        <pt x="1376" y="1401" on="0"/>
        <pt x="1432" y="1346" on="0"/>
        <pt x="1464" y="1271" on="0"/>
        <pt x="1464" y="1229" on="1"/>
        <pt x="1464" y="1085" on="1"/>
        <pt x="1260" y="1085" on="1"/>
        <pt x="1260" y="1229" on="1"/>
        <pt x="481" y="1229" on="1"/>
        <pt x="481" y="950" on="1"/>
        <pt x="1192" y="950" on="1"/>
        <pt x="1073" y="784" on="1"/>
        <pt x="481" y="784" on="1"/>
        <pt x="481" y="649" on="1"/>
        <pt x="971" y="649" on="1"/>
        <pt x="852" y="483" on="1"/>
        <pt x="481" y="483" on="1"/>
        <pt x="481" y="205" on="1"/>
        <pt x="1260" y="205" on="1"/>
        <pt x="1260" y="348" on="1"/>
        <pt x="1464" y="348" on="1"/>
        <pt x="1464" y="205" on="1"/>
        <pt x="1464" y="163" on="0"/>
        <pt x="1432" y="88" on="0"/>
        <pt x="1376" y="32" on="0"/>
        <pt x="1302" y="0" on="0"/>
        <pt x="1260" y="0" on="1"/>
        <pt x="481" y="0" on="1"/>
        <pt x="439" y="0" on="0"/>
        <pt x="364" y="32" on="0"/>
        <pt x="309" y="88" on="0"/>
        <pt x="276" y="163" on="0"/>
        <pt x="276" y="205" on="1"/>
        <pt x="276" y="483" on="1"/>
        <pt x="61" y="483" on="1"/>
        <pt x="61" y="649" on="1"/>
        <pt x="276" y="649" on="1"/>
        <pt x="276" y="784" on="1"/>
        <pt x="61" y="784" on="1"/>
      </contour>
    </TTGlyph>
    <TTGlyph name="F" xMin="184" yMin="0" xMax="1229" yMax="1434">
      <contour>
        <pt x="184" y="1434" on="1"/>
        <pt x="1229" y="1434" on="1"/>
        <pt x="1229" y="1229" on="1"/>
        <pt x="389" y="1229" on="1"/>
        <pt x="389" y="819" on="1"/>
        <pt x="1106" y="819" on="1"/>
        <pt x="1106" y="614" on="1"/>
        <pt x="389" y="614" on="1"/>
        <pt x="389" y="0" on="1"/>
        <pt x="184" y="0" on="1"/>
      </contour>
    </TTGlyph>
    <TTGlyph name="G" xMin="184" yMin="0" xMax="1372" yMax="1434">
      <contour>
        <pt x="184" y="1229" on="1"/>
        <pt x="184" y="1271" on="0"/>
        <pt x="216" y="1346" on="0"/>
        <pt x="272" y="1401" on="0"/>
        <pt x="347" y="1434" on="0"/>
        <pt x="389" y="1434" on="1"/>
        <pt x="1167" y="1434" on="1"/>
        <pt x="1209" y="1434" on="0"/>
        <pt x="1284" y="1401" on="0"/>
        <pt x="1340" y="1346" on="0"/>
        <pt x="1372" y="1271" on="0"/>
        <pt x="1372" y="1229" on="1"/>
        <pt x="1372" y="1044" on="1"/>
        <pt x="1167" y="1044" on="1"/>
        <pt x="1167" y="1229" on="1"/>
        <pt x="389" y="1229" on="1"/>
        <pt x="389" y="205" on="1"/>
        <pt x="1167" y="205" on="1"/>
        <pt x="1167" y="553" on="1"/>
        <pt x="778" y="553" on="1"/>
        <pt x="778" y="758" on="1"/>
        <pt x="1372" y="758" on="1"/>
        <pt x="1372" y="205" on="1"/>
        <pt x="1372" y="163" on="0"/>
        <pt x="1340" y="88" on="0"/>
        <pt x="1284" y="32" on="0"/>
        <pt x="1209" y="0" on="0"/>
        <pt x="1167" y="0" on="1"/>
        <pt x="389" y="0" on="1"/>
        <pt x="347" y="0" on="0"/>
        <pt x="272" y="32" on="0"/>
        <pt x="216" y="88" on="0"/>
        <pt x="184" y="163" on="0"/>
        <pt x="184" y="205" on="1"/>
      </contour>
    </TTGlyph>
    <TTGlyph name="H" xMin="184" yMin="0" xMax="1415" yMax="1434">
      <contour>
        <pt x="1415" y="1434" on="1"/>
        <pt x="1415" y="0" on="1"/>
        <pt x="1210" y="0" on="1"/>
        <pt x="1210" y="614" on="1"/>
        <pt x="389" y="614" on="1"/>
        <pt x="389" y="0" on="1"/>
        <pt x="184" y="0" on="1"/>
        <pt x="184" y="1434" on="1"/>
        <pt x="389" y="1434" on="1"/>
        <pt x="389" y="819" on="1"/>
        <pt x="1210" y="819" on="1"/>
        <pt x="1210" y="1434" on="1"/>
      </contour>
    </TTGlyph>
    <TTGlyph name="I" xMin="184" yMin="0" xMax="389" yMax="1434">
      <contour>
        <pt x="389" y="1434" on="1"/>
        <pt x="389" y="0" on="1"/>
        <pt x="184" y="0" on="1"/>
        <pt x="184" y="1434" on="1"/>
      </contour>
    </TTGlyph>
    <TTGlyph name="IJ" xMin="184" yMin="0" xMax="1706" yMax="1434">
      <contour>
        <pt x="389" y="1434" on="1"/>
        <pt x="389" y="0" on="1"/>
        <pt x="184" y="0" on="1"/>
        <pt x="184" y="1434" on="1"/>
      </contour>
      <contour>
        <pt x="717" y="451" on="1"/>
        <pt x="922" y="451" on="1"/>
        <pt x="922" y="205" on="1"/>
        <pt x="1501" y="205" on="1"/>
        <pt x="1501" y="1434" on="1"/>
        <pt x="1706" y="1434" on="1"/>
        <pt x="1706" y="205" on="1"/>
        <pt x="1706" y="163" on="0"/>
        <pt x="1674" y="88" on="0"/>
        <pt x="1618" y="32" on="0"/>
        <pt x="1543" y="0" on="0"/>
        <pt x="1501" y="0" on="1"/>
        <pt x="922" y="0" on="1"/>
        <pt x="880" y="0" on="0"/>
        <pt x="805" y="32" on="0"/>
        <pt x="749" y="88" on="0"/>
        <pt x="717" y="163" on="0"/>
        <pt x="717" y="205" on="1"/>
      </contour>
    </TTGlyph>
    <TTGlyph name="Iacute" xMin="106" yMin="0" xMax="633" yMax="1843">
      <contour>
        <pt x="389" y="1434" on="1"/>
        <pt x="389" y="0" on="1"/>
        <pt x="184" y="0" on="1"/>
        <pt x="184" y="1434" on="1"/>
      </contour>
      <contour>
        <pt x="334" y="1843" on="1"/>
        <pt x="633" y="1843" on="1"/>
        <pt x="295" y="1618" on="1"/>
        <pt x="106" y="1618" on="1"/>
      </contour>
    </TTGlyph>
    <TTGlyph name="Icircumflex" xMin="-74" yMin="0" xMax="647" yMax="1864">
      <contour>
        <pt x="389" y="1434" on="1"/>
        <pt x="389" y="0" on="1"/>
        <pt x="184" y="0" on="1"/>
        <pt x="184" y="1434" on="1"/>
      </contour>
      <contour>
        <pt x="647" y="1618" on="1"/>
        <pt x="438" y="1618" on="1"/>
        <pt x="287" y="1753" on="1"/>
        <pt x="135" y="1618" on="1"/>
        <pt x="-74" y="1618" on="1"/>
        <pt x="164" y="1864" on="1"/>
        <pt x="410" y="1864" on="1"/>
      </contour>
    </TTGlyph>
    <TTGlyph name="Idieresis" xMin="-29" yMin="0" xMax="604" yMax="1835">
      <contour>
        <pt x="389" y="1434" on="1"/>
        <pt x="389" y="0" on="1"/>
        <pt x="184" y="0" on="1"/>
        <pt x="184" y="1434" on="1"/>
      </contour>
      <contour>
        <pt x="387" y="1835" on="1"/>
        <pt x="604" y="1835" on="1"/>
        <pt x="604" y="1618" on="1"/>
        <pt x="387" y="1618" on="1"/>
      </contour>
      <contour>
        <pt x="-29" y="1835" on="1"/>
        <pt x="188" y="1835" on="1"/>
        <pt x="188" y="1618" on="1"/>
        <pt x="-29" y="1618" on="1"/>
      </contour>
    </TTGlyph>
    <TTGlyph name="Igrave" xMin="-57" yMin="0" xMax="469" yMax="1843">
      <contour>
        <pt x="389" y="1434" on="1"/>
        <pt x="389" y="0" on="1"/>
        <pt x="184" y="0" on="1"/>
        <pt x="184" y="1434" on="1"/>
      </contour>
      <contour>
        <pt x="469" y="1618" on="1"/>
        <pt x="281" y="1618" on="1"/>
        <pt x="-57" y="1843" on="1"/>
        <pt x="242" y="1843" on="1"/>
      </contour>
    </TTGlyph>
    <TTGlyph name="Itilde" xMin="-104" yMin="0" xMax="678" yMax="1872">
      <contour>
        <pt x="389" y="1434" on="1"/>
        <pt x="389" y="0" on="1"/>
        <pt x="184" y="0" on="1"/>
        <pt x="184" y="1434" on="1"/>
      </contour>
      <contour>
        <pt x="-104" y="1620" on="1"/>
        <pt x="-104" y="1673" on="0"/>
        <pt x="-68" y="1765" on="0"/>
        <pt x="-4" y="1833" on="0"/>
        <pt x="85" y="1872" on="0"/>
        <pt x="139" y="1872" on="1"/>
        <pt x="195" y="1872" on="0"/>
        <pt x="273" y="1841" on="0"/>
        <pt x="339" y="1803" on="0"/>
        <pt x="402" y="1772" on="0"/>
        <pt x="442" y="1772" on="1"/>
        <pt x="486" y="1772" on="0"/>
        <pt x="538" y="1832" on="0"/>
        <pt x="541" y="1872" on="1"/>
        <pt x="678" y="1872" on="1"/>
        <pt x="677" y="1819" on="0"/>
        <pt x="641" y="1727" on="0"/>
        <pt x="577" y="1659" on="0"/>
        <pt x="488" y="1620" on="0"/>
        <pt x="434" y="1620" on="1"/>
        <pt x="378" y="1620" on="0"/>
        <pt x="300" y="1651" on="0"/>
        <pt x="234" y="1689" on="0"/>
        <pt x="171" y="1720" on="0"/>
        <pt x="131" y="1720" on="1"/>
        <pt x="88" y="1720" on="0"/>
        <pt x="36" y="1660" on="0"/>
        <pt x="33" y="1620" on="1"/>
      </contour>
    </TTGlyph>
    <TTGlyph name="J" xMin="143" yMin="0" xMax="1133" yMax="1434">
      <contour>
        <pt x="143" y="451" on="1"/>
        <pt x="348" y="451" on="1"/>
        <pt x="348" y="205" on="1"/>
        <pt x="928" y="205" on="1"/>
        <pt x="928" y="1434" on="1"/>
        <pt x="1133" y="1434" on="1"/>
        <pt x="1133" y="205" on="1"/>
        <pt x="1133" y="163" on="0"/>
        <pt x="1100" y="88" on="0"/>
        <pt x="1045" y="32" on="0"/>
        <pt x="970" y="0" on="0"/>
        <pt x="928" y="0" on="1"/>
        <pt x="348" y="0" on="1"/>
        <pt x="306" y="0" on="0"/>
        <pt x="231" y="32" on="0"/>
        <pt x="176" y="88" on="0"/>
        <pt x="143" y="163" on="0"/>
        <pt x="143" y="205" on="1"/>
      </contour>
    </TTGlyph>
    <TTGlyph name="Jcircumflex" xMin="143" yMin="0" xMax="1389" yMax="1864">
      <contour>
        <pt x="143" y="451" on="1"/>
        <pt x="348" y="451" on="1"/>
        <pt x="348" y="205" on="1"/>
        <pt x="928" y="205" on="1"/>
        <pt x="928" y="1434" on="1"/>
        <pt x="1133" y="1434" on="1"/>
        <pt x="1133" y="205" on="1"/>
        <pt x="1133" y="163" on="0"/>
        <pt x="1100" y="88" on="0"/>
        <pt x="1045" y="32" on="0"/>
        <pt x="970" y="0" on="0"/>
        <pt x="928" y="0" on="1"/>
        <pt x="348" y="0" on="1"/>
        <pt x="306" y="0" on="0"/>
        <pt x="231" y="32" on="0"/>
        <pt x="176" y="88" on="0"/>
        <pt x="143" y="163" on="0"/>
        <pt x="143" y="205" on="1"/>
      </contour>
      <contour>
        <pt x="1389" y="1618" on="1"/>
        <pt x="1180" y="1618" on="1"/>
        <pt x="1028" y="1753" on="1"/>
        <pt x="877" y="1618" on="1"/>
        <pt x="668" y="1618" on="1"/>
        <pt x="905" y="1864" on="1"/>
        <pt x="1151" y="1864" on="1"/>
      </contour>
    </TTGlyph>
    <TTGlyph name="K" xMin="184" yMin="0" xMax="1393" yMax="1434">
      <contour>
        <pt x="389" y="1434" on="1"/>
        <pt x="389" y="815" on="1"/>
        <pt x="1073" y="1434" on="1"/>
        <pt x="1362" y="1434" on="1"/>
        <pt x="586" y="731" on="1"/>
        <pt x="1393" y="0" on="1"/>
        <pt x="1104" y="0" on="1"/>
        <pt x="389" y="645" on="1"/>
        <pt x="389" y="0" on="1"/>
        <pt x="184" y="0" on="1"/>
        <pt x="184" y="1434" on="1"/>
      </contour>
    </TTGlyph>
    <TTGlyph name="L" xMin="184" yMin="0" xMax="1126" yMax="1434">
      <contour>
        <pt x="389" y="1434" on="1"/>
        <pt x="389" y="205" on="1"/>
        <pt x="1126" y="205" on="1"/>
        <pt x="1126" y="0" on="1"/>
        <pt x="184" y="0" on="1"/>
        <pt x="184" y="1434" on="1"/>
      </contour>
    </TTGlyph>
    <TTGlyph name="Ldotaccent" xMin="184" yMin="0" xMax="1126" yMax="1434">
      <contour>
        <pt x="389" y="1434" on="1"/>
        <pt x="389" y="205" on="1"/>
        <pt x="1126" y="205" on="1"/>
        <pt x="1126" y="0" on="1"/>
        <pt x="184" y="0" on="1"/>
        <pt x="184" y="1434" on="1"/>
      </contour>
      <contour>
        <pt x="637" y="920" on="1"/>
        <pt x="895" y="920" on="1"/>
        <pt x="895" y="662" on="1"/>
        <pt x="637" y="662" on="1"/>
      </contour>
    </TTGlyph>
    <TTGlyph name="Lslash" xMin="41" yMin="0" xMax="1167" yMax="1434">
      <contour>
        <pt x="430" y="1434" on="1"/>
        <pt x="430" y="801" on="1"/>
        <pt x="786" y="924" on="1"/>
        <pt x="786" y="754" on="1"/>
        <pt x="430" y="631" on="1"/>
        <pt x="430" y="205" on="1"/>
        <pt x="1167" y="205" on="1"/>
        <pt x="1167" y="0" on="1"/>
        <pt x="225" y="0" on="1"/>
        <pt x="225" y="561" on="1"/>
        <pt x="41" y="498" on="1"/>
        <pt x="41" y="668" on="1"/>
        <pt x="225" y="731" on="1"/>
        <pt x="225" y="1434" on="1"/>
      </contour>
    </TTGlyph>
    <TTGlyph name="M" xMin="184" yMin="0" xMax="1724" yMax="1434">
      <contour>
        <pt x="924" y="0" on="1"/>
        <pt x="389" y="1051" on="1"/>
        <pt x="389" y="0" on="1"/>
        <pt x="184" y="0" on="1"/>
        <pt x="184" y="1434" on="1"/>
        <pt x="408" y="1434" on="1"/>
        <pt x="954" y="354" on="1"/>
        <pt x="1501" y="1434" on="1"/>
        <pt x="1724" y="1434" on="1"/>
        <pt x="1724" y="0" on="1"/>
        <pt x="1520" y="0" on="1"/>
        <pt x="1520" y="1051" on="1"/>
        <pt x="985" y="0" on="1"/>
      </contour>
    </TTGlyph>
    <TTGlyph name="N" xMin="184" yMin="0" xMax="1456" yMax="1434">
      <contour>
        <pt x="389" y="0" on="1"/>
        <pt x="184" y="0" on="1"/>
        <pt x="184" y="1434" on="1"/>
        <pt x="389" y="1434" on="1"/>
        <pt x="1251" y="322" on="1"/>
        <pt x="1251" y="1434" on="1"/>
        <pt x="1456" y="1434" on="1"/>
        <pt x="1456" y="0" on="1"/>
        <pt x="1251" y="0" on="1"/>
        <pt x="389" y="1112" on="1"/>
      </contour>
    </TTGlyph>
    <TTGlyph name="Nacute" xMin="184" yMin="0" xMax="1456" yMax="1843">
      <contour>
        <pt x="389" y="0" on="1"/>
        <pt x="184" y="0" on="1"/>
        <pt x="184" y="1434" on="1"/>
        <pt x="389" y="1434" on="1"/>
        <pt x="1251" y="322" on="1"/>
        <pt x="1251" y="1434" on="1"/>
        <pt x="1456" y="1434" on="1"/>
        <pt x="1456" y="0" on="1"/>
        <pt x="1251" y="0" on="1"/>
        <pt x="389" y="1112" on="1"/>
      </contour>
      <contour>
        <pt x="887" y="1843" on="1"/>
        <pt x="1186" y="1843" on="1"/>
        <pt x="848" y="1618" on="1"/>
        <pt x="659" y="1618" on="1"/>
      </contour>
    </TTGlyph>
    <TTGlyph name="Ntilde" xMin="184" yMin="0" xMax="1456" yMax="1872">
      <contour>
        <pt x="389" y="0" on="1"/>
        <pt x="184" y="0" on="1"/>
        <pt x="184" y="1434" on="1"/>
        <pt x="389" y="1434" on="1"/>
        <pt x="1251" y="322" on="1"/>
        <pt x="1251" y="1434" on="1"/>
        <pt x="1456" y="1434" on="1"/>
        <pt x="1456" y="0" on="1"/>
        <pt x="1251" y="0" on="1"/>
        <pt x="389" y="1112" on="1"/>
      </contour>
      <contour>
        <pt x="428" y="1620" on="1"/>
        <pt x="428" y="1673" on="0"/>
        <pt x="464" y="1765" on="0"/>
        <pt x="528" y="1833" on="0"/>
        <pt x="618" y="1872" on="0"/>
        <pt x="672" y="1872" on="1"/>
        <pt x="727" y="1872" on="0"/>
        <pt x="806" y="1841" on="0"/>
        <pt x="872" y="1803" on="0"/>
        <pt x="935" y="1772" on="0"/>
        <pt x="975" y="1772" on="1"/>
        <pt x="1018" y="1772" on="0"/>
        <pt x="1070" y="1832" on="0"/>
        <pt x="1073" y="1872" on="1"/>
        <pt x="1210" y="1872" on="1"/>
        <pt x="1209" y="1819" on="0"/>
        <pt x="1173" y="1727" on="0"/>
        <pt x="1109" y="1659" on="0"/>
        <pt x="1021" y="1620" on="0"/>
        <pt x="967" y="1620" on="1"/>
        <pt x="911" y="1620" on="0"/>
        <pt x="832" y="1651" on="0"/>
        <pt x="766" y="1689" on="0"/>
        <pt x="704" y="1720" on="0"/>
        <pt x="664" y="1720" on="1"/>
        <pt x="620" y="1720" on="0"/>
        <pt x="568" y="1660" on="0"/>
        <pt x="565" y="1620" on="1"/>
      </contour>
    </TTGlyph>
    <TTGlyph name="O" xMin="184" yMin="0" xMax="1413" yMax="1434">
      <contour>
        <pt x="1413" y="205" on="1"/>
        <pt x="1413" y="163" on="0"/>
        <pt x="1381" y="88" on="0"/>
        <pt x="1325" y="32" on="0"/>
        <pt x="1250" y="0" on="0"/>
        <pt x="1208" y="0" on="1"/>
        <pt x="389" y="0" on="1"/>
        <pt x="347" y="0" on="0"/>
        <pt x="272" y="32" on="0"/>
        <pt x="216" y="88" on="0"/>
        <pt x="184" y="163" on="0"/>
        <pt x="184" y="205" on="1"/>
        <pt x="184" y="1229" on="1"/>
        <pt x="184" y="1271" on="0"/>
        <pt x="216" y="1346" on="0"/>
        <pt x="272" y="1401" on="0"/>
        <pt x="347" y="1434" on="0"/>
        <pt x="389" y="1434" on="1"/>
        <pt x="1208" y="1434" on="1"/>
        <pt x="1250" y="1434" on="0"/>
        <pt x="1325" y="1401" on="0"/>
        <pt x="1381" y="1346" on="0"/>
        <pt x="1413" y="1271" on="0"/>
        <pt x="1413" y="1229" on="1"/>
      </contour>
      <contour>
        <pt x="389" y="1229" on="1"/>
        <pt x="389" y="205" on="1"/>
        <pt x="1208" y="205" on="1"/>
        <pt x="1208" y="1229" on="1"/>
      </contour>
    </TTGlyph>
    <TTGlyph name="OE" xMin="184" yMin="0" xMax="2150" yMax="1434">
      <contour>
        <pt x="184" y="1229" on="1"/>
        <pt x="184" y="1271" on="0"/>
        <pt x="216" y="1346" on="0"/>
        <pt x="272" y="1401" on="0"/>
        <pt x="347" y="1434" on="0"/>
        <pt x="389" y="1434" on="1"/>
        <pt x="2150" y="1434" on="1"/>
        <pt x="2150" y="1229" on="1"/>
        <pt x="1311" y="1229" on="1"/>
        <pt x="1311" y="819" on="1"/>
        <pt x="2028" y="819" on="1"/>
        <pt x="2028" y="614" on="1"/>
        <pt x="1311" y="614" on="1"/>
        <pt x="1311" y="205" on="1"/>
        <pt x="2150" y="205" on="1"/>
        <pt x="2150" y="0" on="1"/>
        <pt x="389" y="0" on="1"/>
        <pt x="347" y="0" on="0"/>
        <pt x="272" y="32" on="0"/>
        <pt x="216" y="88" on="0"/>
        <pt x="184" y="163" on="0"/>
        <pt x="184" y="205" on="1"/>
      </contour>
      <contour>
        <pt x="389" y="1229" on="1"/>
        <pt x="389" y="205" on="1"/>
        <pt x="1106" y="205" on="1"/>
        <pt x="1106" y="1229" on="1"/>
      </contour>
    </TTGlyph>
    <TTGlyph name="Oacute" xMin="184" yMin="0" xMax="1413" yMax="1843">
      <contour>
        <pt x="1413" y="205" on="1"/>
        <pt x="1413" y="163" on="0"/>
        <pt x="1381" y="88" on="0"/>
        <pt x="1325" y="32" on="0"/>
        <pt x="1250" y="0" on="0"/>
        <pt x="1208" y="0" on="1"/>
        <pt x="389" y="0" on="1"/>
        <pt x="347" y="0" on="0"/>
        <pt x="272" y="32" on="0"/>
        <pt x="216" y="88" on="0"/>
        <pt x="184" y="163" on="0"/>
        <pt x="184" y="205" on="1"/>
        <pt x="184" y="1229" on="1"/>
        <pt x="184" y="1271" on="0"/>
        <pt x="216" y="1346" on="0"/>
        <pt x="272" y="1401" on="0"/>
        <pt x="347" y="1434" on="0"/>
        <pt x="389" y="1434" on="1"/>
        <pt x="1208" y="1434" on="1"/>
        <pt x="1250" y="1434" on="0"/>
        <pt x="1325" y="1401" on="0"/>
        <pt x="1381" y="1346" on="0"/>
        <pt x="1413" y="1271" on="0"/>
        <pt x="1413" y="1229" on="1"/>
      </contour>
      <contour>
        <pt x="389" y="1229" on="1"/>
        <pt x="389" y="205" on="1"/>
        <pt x="1208" y="205" on="1"/>
        <pt x="1208" y="1229" on="1"/>
      </contour>
      <contour>
        <pt x="844" y="1843" on="1"/>
        <pt x="1143" y="1843" on="1"/>
        <pt x="805" y="1618" on="1"/>
        <pt x="616" y="1618" on="1"/>
      </contour>
    </TTGlyph>
    <TTGlyph name="Ocircumflex" xMin="184" yMin="0" xMax="1413" yMax="1864">
      <contour>
        <pt x="1413" y="205" on="1"/>
        <pt x="1413" y="163" on="0"/>
        <pt x="1381" y="88" on="0"/>
        <pt x="1325" y="32" on="0"/>
        <pt x="1250" y="0" on="0"/>
        <pt x="1208" y="0" on="1"/>
        <pt x="389" y="0" on="1"/>
        <pt x="347" y="0" on="0"/>
        <pt x="272" y="32" on="0"/>
        <pt x="216" y="88" on="0"/>
        <pt x="184" y="163" on="0"/>
        <pt x="184" y="205" on="1"/>
        <pt x="184" y="1229" on="1"/>
        <pt x="184" y="1271" on="0"/>
        <pt x="216" y="1346" on="0"/>
        <pt x="272" y="1401" on="0"/>
        <pt x="347" y="1434" on="0"/>
        <pt x="389" y="1434" on="1"/>
        <pt x="1208" y="1434" on="1"/>
        <pt x="1250" y="1434" on="0"/>
        <pt x="1325" y="1401" on="0"/>
        <pt x="1381" y="1346" on="0"/>
        <pt x="1413" y="1271" on="0"/>
        <pt x="1413" y="1229" on="1"/>
      </contour>
      <contour>
        <pt x="389" y="1229" on="1"/>
        <pt x="389" y="205" on="1"/>
        <pt x="1208" y="205" on="1"/>
        <pt x="1208" y="1229" on="1"/>
      </contour>
      <contour>
        <pt x="1159" y="1618" on="1"/>
        <pt x="950" y="1618" on="1"/>
        <pt x="799" y="1753" on="1"/>
        <pt x="647" y="1618" on="1"/>
        <pt x="438" y="1618" on="1"/>
        <pt x="676" y="1864" on="1"/>
        <pt x="922" y="1864" on="1"/>
      </contour>
    </TTGlyph>
    <TTGlyph name="Odieresis" xMin="184" yMin="0" xMax="1413" yMax="1835">
      <contour>
        <pt x="1413" y="205" on="1"/>
        <pt x="1413" y="163" on="0"/>
        <pt x="1381" y="88" on="0"/>
        <pt x="1325" y="32" on="0"/>
        <pt x="1250" y="0" on="0"/>
        <pt x="1208" y="0" on="1"/>
        <pt x="389" y="0" on="1"/>
        <pt x="347" y="0" on="0"/>
        <pt x="272" y="32" on="0"/>
        <pt x="216" y="88" on="0"/>
        <pt x="184" y="163" on="0"/>
        <pt x="184" y="205" on="1"/>
        <pt x="184" y="1229" on="1"/>
        <pt x="184" y="1271" on="0"/>
        <pt x="216" y="1346" on="0"/>
        <pt x="272" y="1401" on="0"/>
        <pt x="347" y="1434" on="0"/>
        <pt x="389" y="1434" on="1"/>
        <pt x="1208" y="1434" on="1"/>
        <pt x="1250" y="1434" on="0"/>
        <pt x="1325" y="1401" on="0"/>
        <pt x="1381" y="1346" on="0"/>
        <pt x="1413" y="1271" on="0"/>
        <pt x="1413" y="1229" on="1"/>
      </contour>
      <contour>
        <pt x="389" y="1229" on="1"/>
        <pt x="389" y="205" on="1"/>
        <pt x="1208" y="205" on="1"/>
        <pt x="1208" y="1229" on="1"/>
      </contour>
      <contour>
        <pt x="897" y="1835" on="1"/>
        <pt x="1114" y="1835" on="1"/>
        <pt x="1114" y="1618" on="1"/>
        <pt x="897" y="1618" on="1"/>
      </contour>
      <contour>
        <pt x="481" y="1835" on="1"/>
        <pt x="698" y="1835" on="1"/>
        <pt x="698" y="1618" on="1"/>
        <pt x="481" y="1618" on="1"/>
      </contour>
    </TTGlyph>
    <TTGlyph name="Ograve" xMin="184" yMin="0" xMax="1413" yMax="1843">
      <contour>
        <pt x="1413" y="205" on="1"/>
        <pt x="1413" y="163" on="0"/>
        <pt x="1381" y="88" on="0"/>
        <pt x="1325" y="32" on="0"/>
        <pt x="1250" y="0" on="0"/>
        <pt x="1208" y="0" on="1"/>
        <pt x="389" y="0" on="1"/>
        <pt x="347" y="0" on="0"/>
        <pt x="272" y="32" on="0"/>
        <pt x="216" y="88" on="0"/>
        <pt x="184" y="163" on="0"/>
        <pt x="184" y="205" on="1"/>
        <pt x="184" y="1229" on="1"/>
        <pt x="184" y="1271" on="0"/>
        <pt x="216" y="1346" on="0"/>
        <pt x="272" y="1401" on="0"/>
        <pt x="347" y="1434" on="0"/>
        <pt x="389" y="1434" on="1"/>
        <pt x="1208" y="1434" on="1"/>
        <pt x="1250" y="1434" on="0"/>
        <pt x="1325" y="1401" on="0"/>
        <pt x="1381" y="1346" on="0"/>
        <pt x="1413" y="1271" on="0"/>
        <pt x="1413" y="1229" on="1"/>
      </contour>
      <contour>
        <pt x="389" y="1229" on="1"/>
        <pt x="389" y="205" on="1"/>
        <pt x="1208" y="205" on="1"/>
        <pt x="1208" y="1229" on="1"/>
      </contour>
      <contour>
        <pt x="979" y="1618" on="1"/>
        <pt x="791" y="1618" on="1"/>
        <pt x="453" y="1843" on="1"/>
        <pt x="752" y="1843" on="1"/>
      </contour>
    </TTGlyph>
    <TTGlyph name="Oslash" xMin="184" yMin="-205" xMax="1413" yMax="1638">
      <contour>
        <pt x="1413" y="205" on="1"/>
        <pt x="1413" y="163" on="0"/>
        <pt x="1381" y="88" on="0"/>
        <pt x="1325" y="32" on="0"/>
        <pt x="1250" y="0" on="0"/>
        <pt x="1208" y="0" on="1"/>
        <pt x="465" y="0" on="1"/>
        <pt x="346" y="-205" on="1"/>
        <pt x="184" y="-205" on="1"/>
        <pt x="309" y="14" on="1"/>
        <pt x="282" y="26" on="0"/>
        <pt x="236" y="64" on="0"/>
        <pt x="203" y="114" on="0"/>
        <pt x="184" y="173" on="0"/>
        <pt x="184" y="205" on="1"/>
        <pt x="184" y="1229" on="1"/>
        <pt x="184" y="1271" on="0"/>
        <pt x="216" y="1346" on="0"/>
        <pt x="272" y="1401" on="0"/>
        <pt x="347" y="1434" on="0"/>
        <pt x="389" y="1434" on="1"/>
        <pt x="1124" y="1434" on="1"/>
        <pt x="1241" y="1638" on="1"/>
        <pt x="1413" y="1638" on="1"/>
        <pt x="1286" y="1417" on="1"/>
        <pt x="1314" y="1405" on="0"/>
        <pt x="1360" y="1367" on="0"/>
        <pt x="1394" y="1318" on="0"/>
        <pt x="1413" y="1261" on="0"/>
        <pt x="1413" y="1229" on="1"/>
      </contour>
      <contour>
        <pt x="1176" y="1229" on="1"/>
        <pt x="584" y="205" on="1"/>
        <pt x="1208" y="205" on="1"/>
        <pt x="1208" y="1229" on="1"/>
      </contour>
      <contour>
        <pt x="389" y="205" on="1"/>
        <pt x="418" y="205" on="1"/>
        <pt x="1006" y="1229" on="1"/>
        <pt x="389" y="1229" on="1"/>
      </contour>
    </TTGlyph>
    <TTGlyph name="Otilde" xMin="184" yMin="0" xMax="1413" yMax="1872">
      <contour>
        <pt x="1413" y="205" on="1"/>
        <pt x="1413" y="163" on="0"/>
        <pt x="1381" y="88" on="0"/>
        <pt x="1325" y="32" on="0"/>
        <pt x="1250" y="0" on="0"/>
        <pt x="1208" y="0" on="1"/>
        <pt x="389" y="0" on="1"/>
        <pt x="347" y="0" on="0"/>
        <pt x="272" y="32" on="0"/>
        <pt x="216" y="88" on="0"/>
        <pt x="184" y="163" on="0"/>
        <pt x="184" y="205" on="1"/>
        <pt x="184" y="1229" on="1"/>
        <pt x="184" y="1271" on="0"/>
        <pt x="216" y="1346" on="0"/>
        <pt x="272" y="1401" on="0"/>
        <pt x="347" y="1434" on="0"/>
        <pt x="389" y="1434" on="1"/>
        <pt x="1208" y="1434" on="1"/>
        <pt x="1250" y="1434" on="0"/>
        <pt x="1325" y="1401" on="0"/>
        <pt x="1381" y="1346" on="0"/>
        <pt x="1413" y="1271" on="0"/>
        <pt x="1413" y="1229" on="1"/>
      </contour>
      <contour>
        <pt x="389" y="1229" on="1"/>
        <pt x="389" y="205" on="1"/>
        <pt x="1208" y="205" on="1"/>
        <pt x="1208" y="1229" on="1"/>
      </contour>
      <contour>
        <pt x="408" y="1620" on="1"/>
        <pt x="408" y="1673" on="0"/>
        <pt x="444" y="1765" on="0"/>
        <pt x="508" y="1833" on="0"/>
        <pt x="597" y="1872" on="0"/>
        <pt x="651" y="1872" on="1"/>
        <pt x="707" y="1872" on="0"/>
        <pt x="785" y="1841" on="0"/>
        <pt x="851" y="1803" on="0"/>
        <pt x="914" y="1772" on="0"/>
        <pt x="954" y="1772" on="1"/>
        <pt x="998" y="1772" on="0"/>
        <pt x="1050" y="1832" on="0"/>
        <pt x="1053" y="1872" on="1"/>
        <pt x="1190" y="1872" on="1"/>
        <pt x="1189" y="1819" on="0"/>
        <pt x="1153" y="1727" on="0"/>
        <pt x="1089" y="1659" on="0"/>
        <pt x="1000" y="1620" on="0"/>
        <pt x="946" y="1620" on="1"/>
        <pt x="890" y="1620" on="0"/>
        <pt x="812" y="1651" on="0"/>
        <pt x="746" y="1689" on="0"/>
        <pt x="683" y="1720" on="0"/>
        <pt x="643" y="1720" on="1"/>
        <pt x="600" y="1720" on="0"/>
        <pt x="548" y="1660" on="0"/>
        <pt x="545" y="1620" on="1"/>
      </contour>
    </TTGlyph>
    <TTGlyph name="P" xMin="184" yMin="0" xMax="1317" yMax="1434">
      <contour>
        <pt x="184" y="0" on="1"/>
        <pt x="184" y="1434" on="1"/>
        <pt x="969" y="1434" on="1"/>
        <pt x="1317" y="1434" on="0"/>
        <pt x="1317" y="1085" on="1"/>
        <pt x="1317" y="881" on="1"/>
        <pt x="1317" y="532" on="0"/>
        <pt x="969" y="532" on="1"/>
        <pt x="389" y="532" on="1"/>
        <pt x="389" y="0" on="1"/>
      </contour>
      <contour>
        <pt x="389" y="737" on="1"/>
        <pt x="958" y="737" on="1"/>
        <pt x="1040" y="737" on="0"/>
        <pt x="1112" y="809" on="0"/>
        <pt x="1112" y="891" on="1"/>
        <pt x="1112" y="1075" on="1"/>
        <pt x="1112" y="1157" on="0"/>
        <pt x="1040" y="1229" on="0"/>
        <pt x="958" y="1229" on="1"/>
        <pt x="389" y="1229" on="1"/>
      </contour>
    </TTGlyph>
    <TTGlyph name="Q" xMin="184" yMin="-266" xMax="1413" yMax="1434">
      <contour>
        <pt x="1413" y="205" on="1"/>
        <pt x="1413" y="163" on="0"/>
        <pt x="1381" y="88" on="0"/>
        <pt x="1325" y="32" on="0"/>
        <pt x="1250" y="0" on="0"/>
        <pt x="1208" y="0" on="1"/>
        <pt x="901" y="0" on="1"/>
        <pt x="901" y="-266" on="1"/>
        <pt x="696" y="-266" on="1"/>
        <pt x="696" y="0" on="1"/>
        <pt x="389" y="0" on="1"/>
        <pt x="347" y="0" on="0"/>
        <pt x="272" y="32" on="0"/>
        <pt x="216" y="88" on="0"/>
        <pt x="184" y="163" on="0"/>
        <pt x="184" y="205" on="1"/>
        <pt x="184" y="1229" on="1"/>
        <pt x="184" y="1271" on="0"/>
        <pt x="216" y="1346" on="0"/>
        <pt x="272" y="1401" on="0"/>
        <pt x="347" y="1434" on="0"/>
        <pt x="389" y="1434" on="1"/>
        <pt x="1208" y="1434" on="1"/>
        <pt x="1250" y="1434" on="0"/>
        <pt x="1325" y="1401" on="0"/>
        <pt x="1381" y="1346" on="0"/>
        <pt x="1413" y="1271" on="0"/>
        <pt x="1413" y="1229" on="1"/>
      </contour>
      <contour>
        <pt x="901" y="371" on="1"/>
        <pt x="901" y="205" on="1"/>
        <pt x="1208" y="205" on="1"/>
        <pt x="1208" y="1229" on="1"/>
        <pt x="389" y="1229" on="1"/>
        <pt x="389" y="205" on="1"/>
        <pt x="696" y="205" on="1"/>
        <pt x="696" y="371" on="1"/>
      </contour>
    </TTGlyph>
    <TTGlyph name="R" xMin="184" yMin="0" xMax="1331" yMax="1434">
      <contour>
        <pt x="1317" y="922" on="1"/>
        <pt x="1317" y="622" on="0"/>
        <pt x="1061" y="580" on="1"/>
        <pt x="1331" y="0" on="1"/>
        <pt x="1104" y="0" on="1"/>
        <pt x="838" y="573" on="1"/>
        <pt x="389" y="573" on="1"/>
        <pt x="389" y="0" on="1"/>
        <pt x="184" y="0" on="1"/>
        <pt x="184" y="1434" on="1"/>
        <pt x="969" y="1434" on="1"/>
        <pt x="1317" y="1434" on="0"/>
        <pt x="1317" y="1085" on="1"/>
      </contour>
      <contour>
        <pt x="389" y="778" on="1"/>
        <pt x="958" y="778" on="1"/>
        <pt x="1040" y="778" on="0"/>
        <pt x="1112" y="850" on="0"/>
        <pt x="1112" y="932" on="1"/>
        <pt x="1112" y="1075" on="1"/>
        <pt x="1112" y="1157" on="0"/>
        <pt x="1040" y="1229" on="0"/>
        <pt x="958" y="1229" on="1"/>
        <pt x="389" y="1229" on="1"/>
      </contour>
    </TTGlyph>
    <TTGlyph name="Racute" xMin="184" yMin="0" xMax="1331" yMax="1843">
      <contour>
        <pt x="1317" y="922" on="1"/>
        <pt x="1317" y="622" on="0"/>
        <pt x="1061" y="580" on="1"/>
        <pt x="1331" y="0" on="1"/>
        <pt x="1104" y="0" on="1"/>
        <pt x="838" y="573" on="1"/>
        <pt x="389" y="573" on="1"/>
        <pt x="389" y="0" on="1"/>
        <pt x="184" y="0" on="1"/>
        <pt x="184" y="1434" on="1"/>
        <pt x="969" y="1434" on="1"/>
        <pt x="1317" y="1434" on="0"/>
        <pt x="1317" y="1085" on="1"/>
      </contour>
      <contour>
        <pt x="389" y="778" on="1"/>
        <pt x="958" y="778" on="1"/>
        <pt x="1040" y="778" on="0"/>
        <pt x="1112" y="850" on="0"/>
        <pt x="1112" y="932" on="1"/>
        <pt x="1112" y="1075" on="1"/>
        <pt x="1112" y="1157" on="0"/>
        <pt x="1040" y="1229" on="0"/>
        <pt x="958" y="1229" on="1"/>
        <pt x="389" y="1229" on="1"/>
      </contour>
      <contour>
        <pt x="782" y="1843" on="1"/>
        <pt x="1081" y="1843" on="1"/>
        <pt x="743" y="1618" on="1"/>
        <pt x="555" y="1618" on="1"/>
      </contour>
    </TTGlyph>
    <TTGlyph name="Rcaron" xMin="184" yMin="0" xMax="1331" yMax="1864">
      <contour>
        <pt x="1317" y="922" on="1"/>
        <pt x="1317" y="622" on="0"/>
        <pt x="1061" y="580" on="1"/>
        <pt x="1331" y="0" on="1"/>
        <pt x="1104" y="0" on="1"/>
        <pt x="838" y="573" on="1"/>
        <pt x="389" y="573" on="1"/>
        <pt x="389" y="0" on="1"/>
        <pt x="184" y="0" on="1"/>
        <pt x="184" y="1434" on="1"/>
        <pt x="969" y="1434" on="1"/>
        <pt x="1317" y="1434" on="0"/>
        <pt x="1317" y="1085" on="1"/>
      </contour>
      <contour>
        <pt x="389" y="778" on="1"/>
        <pt x="958" y="778" on="1"/>
        <pt x="1040" y="778" on="0"/>
        <pt x="1112" y="850" on="0"/>
        <pt x="1112" y="932" on="1"/>
        <pt x="1112" y="1075" on="1"/>
        <pt x="1112" y="1157" on="0"/>
        <pt x="1040" y="1229" on="0"/>
        <pt x="958" y="1229" on="1"/>
        <pt x="389" y="1229" on="1"/>
      </contour>
      <contour>
        <pt x="377" y="1864" on="1"/>
        <pt x="586" y="1864" on="1"/>
        <pt x="737" y="1726" on="1"/>
        <pt x="889" y="1864" on="1"/>
        <pt x="1098" y="1864" on="1"/>
        <pt x="860" y="1618" on="1"/>
        <pt x="614" y="1618" on="1"/>
      </contour>
    </TTGlyph>
    <TTGlyph name="Rcommaaccent" xMin="184" yMin="-809" xMax="1331" yMax="1434">
      <contour>
        <pt x="1317" y="922" on="1"/>
        <pt x="1317" y="622" on="0"/>
        <pt x="1061" y="580" on="1"/>
        <pt x="1331" y="0" on="1"/>
        <pt x="1104" y="0" on="1"/>
        <pt x="838" y="573" on="1"/>
        <pt x="389" y="573" on="1"/>
        <pt x="389" y="0" on="1"/>
        <pt x="184" y="0" on="1"/>
        <pt x="184" y="1434" on="1"/>
        <pt x="969" y="1434" on="1"/>
        <pt x="1317" y="1434" on="0"/>
        <pt x="1317" y="1085" on="1"/>
      </contour>
      <contour>
        <pt x="389" y="778" on="1"/>
        <pt x="958" y="778" on="1"/>
        <pt x="1040" y="778" on="0"/>
        <pt x="1112" y="850" on="0"/>
        <pt x="1112" y="932" on="1"/>
        <pt x="1112" y="1075" on="1"/>
        <pt x="1112" y="1157" on="0"/>
        <pt x="1040" y="1229" on="0"/>
        <pt x="958" y="1229" on="1"/>
        <pt x="389" y="1229" on="1"/>
      </contour>
      <contour>
        <pt x="733" y="-809" on="1"/>
        <pt x="588" y="-809" on="1"/>
        <pt x="735" y="-504" on="1"/>
        <pt x="588" y="-504" on="1"/>
        <pt x="588" y="-205" on="1"/>
        <pt x="887" y="-205" on="1"/>
        <pt x="887" y="-504" on="1"/>
      </contour>
    </TTGlyph>
    <TTGlyph name="S" xMin="164" yMin="0" xMax="1290" yMax="1434">
      <contour>
        <pt x="389" y="614" on="1"/>
        <pt x="347" y="614" on="0"/>
        <pt x="272" y="647" on="0"/>
        <pt x="216" y="702" on="0"/>
        <pt x="184" y="777" on="0"/>
        <pt x="184" y="819" on="1"/>
        <pt x="184" y="1229" on="1"/>
        <pt x="184" y="1271" on="0"/>
        <pt x="216" y="1346" on="0"/>
        <pt x="272" y="1401" on="0"/>
        <pt x="347" y="1434" on="0"/>
        <pt x="389" y="1434" on="1"/>
        <pt x="1085" y="1434" on="1"/>
        <pt x="1127" y="1434" on="0"/>
        <pt x="1202" y="1401" on="0"/>
        <pt x="1258" y="1346" on="0"/>
        <pt x="1290" y="1271" on="0"/>
        <pt x="1290" y="1229" on="1"/>
        <pt x="1290" y="1044" on="1"/>
        <pt x="1085" y="1044" on="1"/>
        <pt x="1085" y="1229" on="1"/>
        <pt x="389" y="1229" on="1"/>
        <pt x="389" y="819" on="1"/>
        <pt x="1085" y="819" on="1"/>
        <pt x="1127" y="819" on="0"/>
        <pt x="1202" y="787" on="0"/>
        <pt x="1258" y="731" on="0"/>
        <pt x="1290" y="656" on="0"/>
        <pt x="1290" y="614" on="1"/>
        <pt x="1290" y="205" on="1"/>
        <pt x="1290" y="163" on="0"/>
        <pt x="1258" y="88" on="0"/>
        <pt x="1202" y="32" on="0"/>
        <pt x="1127" y="0" on="0"/>
        <pt x="1085" y="0" on="1"/>
        <pt x="369" y="0" on="1"/>
        <pt x="327" y="0" on="0"/>
        <pt x="252" y="32" on="0"/>
        <pt x="196" y="88" on="0"/>
        <pt x="164" y="163" on="0"/>
        <pt x="164" y="205" on="1"/>
        <pt x="164" y="389" on="1"/>
        <pt x="369" y="389" on="1"/>
        <pt x="369" y="205" on="1"/>
        <pt x="1085" y="205" on="1"/>
        <pt x="1085" y="614" on="1"/>
      </contour>
    </TTGlyph>
    <TTGlyph name="Scaron" xMin="164" yMin="0" xMax="1290" yMax="1864">
      <contour>
        <pt x="389" y="614" on="1"/>
        <pt x="347" y="614" on="0"/>
        <pt x="272" y="647" on="0"/>
        <pt x="216" y="702" on="0"/>
        <pt x="184" y="777" on="0"/>
        <pt x="184" y="819" on="1"/>
        <pt x="184" y="1229" on="1"/>
        <pt x="184" y="1271" on="0"/>
        <pt x="216" y="1346" on="0"/>
        <pt x="272" y="1401" on="0"/>
        <pt x="347" y="1434" on="0"/>
        <pt x="389" y="1434" on="1"/>
        <pt x="1085" y="1434" on="1"/>
        <pt x="1127" y="1434" on="0"/>
        <pt x="1202" y="1401" on="0"/>
        <pt x="1258" y="1346" on="0"/>
        <pt x="1290" y="1271" on="0"/>
        <pt x="1290" y="1229" on="1"/>
        <pt x="1290" y="1044" on="1"/>
        <pt x="1085" y="1044" on="1"/>
        <pt x="1085" y="1229" on="1"/>
        <pt x="389" y="1229" on="1"/>
        <pt x="389" y="819" on="1"/>
        <pt x="1085" y="819" on="1"/>
        <pt x="1127" y="819" on="0"/>
        <pt x="1202" y="787" on="0"/>
        <pt x="1258" y="731" on="0"/>
        <pt x="1290" y="656" on="0"/>
        <pt x="1290" y="614" on="1"/>
        <pt x="1290" y="205" on="1"/>
        <pt x="1290" y="163" on="0"/>
        <pt x="1258" y="88" on="0"/>
        <pt x="1202" y="32" on="0"/>
        <pt x="1127" y="0" on="0"/>
        <pt x="1085" y="0" on="1"/>
        <pt x="369" y="0" on="1"/>
        <pt x="327" y="0" on="0"/>
        <pt x="252" y="32" on="0"/>
        <pt x="196" y="88" on="0"/>
        <pt x="164" y="163" on="0"/>
        <pt x="164" y="205" on="1"/>
        <pt x="164" y="389" on="1"/>
        <pt x="369" y="389" on="1"/>
        <pt x="369" y="205" on="1"/>
        <pt x="1085" y="205" on="1"/>
        <pt x="1085" y="614" on="1"/>
      </contour>
      <contour>
        <pt x="377" y="1864" on="1"/>
        <pt x="586" y="1864" on="1"/>
        <pt x="737" y="1726" on="1"/>
        <pt x="889" y="1864" on="1"/>
        <pt x="1098" y="1864" on="1"/>
        <pt x="860" y="1618" on="1"/>
        <pt x="614" y="1618" on="1"/>
      </contour>
    </TTGlyph>
    <TTGlyph name="T" xMin="61" yMin="0" xMax="1208" yMax="1434">
      <contour>
        <pt x="61" y="1434" on="1"/>
        <pt x="1208" y="1434" on="1"/>
        <pt x="1208" y="1229" on="1"/>
        <pt x="737" y="1229" on="1"/>
        <pt x="737" y="0" on="1"/>
        <pt x="532" y="0" on="1"/>
        <pt x="532" y="1229" on="1"/>
        <pt x="61" y="1229" on="1"/>
      </contour>
    </TTGlyph>
    <TTGlyph name="Thorn" xMin="184" yMin="0" xMax="1317" yMax="1475">
      <contour>
        <pt x="1317" y="676" on="1"/>
        <pt x="1317" y="499" on="0"/>
        <pt x="1145" y="328" on="0"/>
        <pt x="969" y="328" on="1"/>
        <pt x="389" y="328" on="1"/>
        <pt x="389" y="0" on="1"/>
        <pt x="184" y="0" on="1"/>
        <pt x="184" y="1475" on="1"/>
        <pt x="389" y="1475" on="1"/>
        <pt x="389" y="1188" on="1"/>
        <pt x="969" y="1188" on="1"/>
        <pt x="1317" y="1188" on="0"/>
        <pt x="1317" y="840" on="1"/>
      </contour>
      <contour>
        <pt x="958" y="532" on="1"/>
        <pt x="1040" y="532" on="0"/>
        <pt x="1112" y="605" on="0"/>
        <pt x="1112" y="686" on="1"/>
        <pt x="1112" y="829" on="1"/>
        <pt x="1112" y="911" on="0"/>
        <pt x="1040" y="983" on="0"/>
        <pt x="958" y="983" on="1"/>
        <pt x="389" y="983" on="1"/>
        <pt x="389" y="532" on="1"/>
      </contour>
    </TTGlyph>
    <TTGlyph name="U" xMin="184" yMin="0" xMax="1413" yMax="1434">
      <contour>
        <pt x="184" y="1434" on="1"/>
        <pt x="389" y="1434" on="1"/>
        <pt x="389" y="205" on="1"/>
        <pt x="1208" y="205" on="1"/>
        <pt x="1208" y="1434" on="1"/>
        <pt x="1413" y="1434" on="1"/>
        <pt x="1413" y="205" on="1"/>
        <pt x="1413" y="163" on="0"/>
        <pt x="1381" y="88" on="0"/>
        <pt x="1325" y="32" on="0"/>
        <pt x="1250" y="0" on="0"/>
        <pt x="1208" y="0" on="1"/>
        <pt x="389" y="0" on="1"/>
        <pt x="347" y="0" on="0"/>
        <pt x="272" y="32" on="0"/>
        <pt x="216" y="88" on="0"/>
        <pt x="184" y="163" on="0"/>
        <pt x="184" y="205" on="1"/>
      </contour>
    </TTGlyph>
    <TTGlyph name="Uacute" xMin="184" yMin="0" xMax="1413" yMax="1843">
      <contour>
        <pt x="184" y="1434" on="1"/>
        <pt x="389" y="1434" on="1"/>
        <pt x="389" y="205" on="1"/>
        <pt x="1208" y="205" on="1"/>
        <pt x="1208" y="1434" on="1"/>
        <pt x="1413" y="1434" on="1"/>
        <pt x="1413" y="205" on="1"/>
        <pt x="1413" y="163" on="0"/>
        <pt x="1381" y="88" on="0"/>
        <pt x="1325" y="32" on="0"/>
        <pt x="1250" y="0" on="0"/>
        <pt x="1208" y="0" on="1"/>
        <pt x="389" y="0" on="1"/>
        <pt x="347" y="0" on="0"/>
        <pt x="272" y="32" on="0"/>
        <pt x="216" y="88" on="0"/>
        <pt x="184" y="163" on="0"/>
        <pt x="184" y="205" on="1"/>
      </contour>
      <contour>
        <pt x="864" y="1843" on="1"/>
        <pt x="1163" y="1843" on="1"/>
        <pt x="825" y="1618" on="1"/>
        <pt x="637" y="1618" on="1"/>
      </contour>
    </TTGlyph>
    <TTGlyph name="Ucircumflex" xMin="184" yMin="0" xMax="1413" yMax="1864">
      <contour>
        <pt x="184" y="1434" on="1"/>
        <pt x="389" y="1434" on="1"/>
        <pt x="389" y="205" on="1"/>
        <pt x="1208" y="205" on="1"/>
        <pt x="1208" y="1434" on="1"/>
        <pt x="1413" y="1434" on="1"/>
        <pt x="1413" y="205" on="1"/>
        <pt x="1413" y="163" on="0"/>
        <pt x="1381" y="88" on="0"/>
        <pt x="1325" y="32" on="0"/>
        <pt x="1250" y="0" on="0"/>
        <pt x="1208" y="0" on="1"/>
        <pt x="389" y="0" on="1"/>
        <pt x="347" y="0" on="0"/>
        <pt x="272" y="32" on="0"/>
        <pt x="216" y="88" on="0"/>
        <pt x="184" y="163" on="0"/>
        <pt x="184" y="205" on="1"/>
      </contour>
      <contour>
        <pt x="1159" y="1618" on="1"/>
        <pt x="950" y="1618" on="1"/>
        <pt x="799" y="1753" on="1"/>
        <pt x="647" y="1618" on="1"/>
        <pt x="438" y="1618" on="1"/>
        <pt x="676" y="1864" on="1"/>
        <pt x="922" y="1864" on="1"/>
      </contour>
    </TTGlyph>
    <TTGlyph name="Udieresis" xMin="184" yMin="0" xMax="1413" yMax="1835">
      <contour>
        <pt x="184" y="1434" on="1"/>
        <pt x="389" y="1434" on="1"/>
        <pt x="389" y="205" on="1"/>
        <pt x="1208" y="205" on="1"/>
        <pt x="1208" y="1434" on="1"/>
        <pt x="1413" y="1434" on="1"/>
        <pt x="1413" y="205" on="1"/>
        <pt x="1413" y="163" on="0"/>
        <pt x="1381" y="88" on="0"/>
        <pt x="1325" y="32" on="0"/>
        <pt x="1250" y="0" on="0"/>
        <pt x="1208" y="0" on="1"/>
        <pt x="389" y="0" on="1"/>
        <pt x="347" y="0" on="0"/>
        <pt x="272" y="32" on="0"/>
        <pt x="216" y="88" on="0"/>
        <pt x="184" y="163" on="0"/>
        <pt x="184" y="205" on="1"/>
      </contour>
      <contour>
        <pt x="897" y="1835" on="1"/>
        <pt x="1114" y="1835" on="1"/>
        <pt x="1114" y="1618" on="1"/>
        <pt x="897" y="1618" on="1"/>
      </contour>
      <contour>
        <pt x="481" y="1835" on="1"/>
        <pt x="698" y="1835" on="1"/>
        <pt x="698" y="1618" on="1"/>
        <pt x="481" y="1618" on="1"/>
      </contour>
    </TTGlyph>
    <TTGlyph name="Ugrave" xMin="184" yMin="0" xMax="1413" yMax="1843">
      <contour>
        <pt x="184" y="1434" on="1"/>
        <pt x="389" y="1434" on="1"/>
        <pt x="389" y="205" on="1"/>
        <pt x="1208" y="205" on="1"/>
        <pt x="1208" y="1434" on="1"/>
        <pt x="1413" y="1434" on="1"/>
        <pt x="1413" y="205" on="1"/>
        <pt x="1413" y="163" on="0"/>
        <pt x="1381" y="88" on="0"/>
        <pt x="1325" y="32" on="0"/>
        <pt x="1250" y="0" on="0"/>
        <pt x="1208" y="0" on="1"/>
        <pt x="389" y="0" on="1"/>
        <pt x="347" y="0" on="0"/>
        <pt x="272" y="32" on="0"/>
        <pt x="216" y="88" on="0"/>
        <pt x="184" y="163" on="0"/>
        <pt x="184" y="205" on="1"/>
      </contour>
      <contour>
        <pt x="958" y="1618" on="1"/>
        <pt x="770" y="1618" on="1"/>
        <pt x="432" y="1843" on="1"/>
        <pt x="731" y="1843" on="1"/>
      </contour>
    </TTGlyph>
    <TTGlyph name="V" xMin="61" yMin="0" xMax="1393" yMax="1434">
      <contour>
        <pt x="614" y="0" on="1"/>
        <pt x="61" y="1434" on="1"/>
        <pt x="281" y="1434" on="1"/>
        <pt x="727" y="254" on="1"/>
        <pt x="1174" y="1434" on="1"/>
        <pt x="1393" y="1434" on="1"/>
        <pt x="840" y="0" on="1"/>
      </contour>
    </TTGlyph>
    <TTGlyph name="W" xMin="61" yMin="0" xMax="1946" yMax="1434">
      <contour>
        <pt x="471" y="0" on="1"/>
        <pt x="61" y="1434" on="1"/>
        <pt x="266" y="1434" on="1"/>
        <pt x="584" y="293" on="1"/>
        <pt x="901" y="1434" on="1"/>
        <pt x="1106" y="1434" on="1"/>
        <pt x="1423" y="293" on="1"/>
        <pt x="1741" y="1434" on="1"/>
        <pt x="1946" y="1434" on="1"/>
        <pt x="1536" y="0" on="1"/>
        <pt x="1311" y="0" on="1"/>
        <pt x="1004" y="1075" on="1"/>
        <pt x="696" y="0" on="1"/>
      </contour>
    </TTGlyph>
    <TTGlyph name="X" xMin="61" yMin="0" xMax="1346" yMax="1434">
      <contour>
        <pt x="319" y="1434" on="1"/>
        <pt x="702" y="897" on="1"/>
        <pt x="1087" y="1434" on="1"/>
        <pt x="1335" y="1434" on="1"/>
        <pt x="827" y="723" on="1"/>
        <pt x="1346" y="0" on="1"/>
        <pt x="1098" y="0" on="1"/>
        <pt x="702" y="551" on="1"/>
        <pt x="309" y="0" on="1"/>
        <pt x="61" y="0" on="1"/>
        <pt x="580" y="723" on="1"/>
        <pt x="72" y="1434" on="1"/>
      </contour>
    </TTGlyph>
    <TTGlyph name="Y" xMin="41" yMin="0" xMax="1352" yMax="1434">
      <contour>
        <pt x="279" y="1434" on="1"/>
        <pt x="696" y="764" on="1"/>
        <pt x="1114" y="1434" on="1"/>
        <pt x="1352" y="1434" on="1"/>
        <pt x="799" y="569" on="1"/>
        <pt x="799" y="0" on="1"/>
        <pt x="594" y="0" on="1"/>
        <pt x="594" y="569" on="1"/>
        <pt x="41" y="1434" on="1"/>
      </contour>
    </TTGlyph>
    <TTGlyph name="Yacute" xMin="41" yMin="0" xMax="1352" yMax="1843">
      <contour>
        <pt x="279" y="1434" on="1"/>
        <pt x="696" y="764" on="1"/>
        <pt x="1114" y="1434" on="1"/>
        <pt x="1352" y="1434" on="1"/>
        <pt x="799" y="569" on="1"/>
        <pt x="799" y="0" on="1"/>
        <pt x="594" y="0" on="1"/>
        <pt x="594" y="569" on="1"/>
        <pt x="41" y="1434" on="1"/>
      </contour>
      <contour>
        <pt x="782" y="1843" on="1"/>
        <pt x="1081" y="1843" on="1"/>
        <pt x="743" y="1618" on="1"/>
        <pt x="555" y="1618" on="1"/>
      </contour>
    </TTGlyph>
    <TTGlyph name="Ydieresis" xMin="41" yMin="0" xMax="1352" yMax="1835">
      <contour>
        <pt x="279" y="1434" on="1"/>
        <pt x="696" y="764" on="1"/>
        <pt x="1114" y="1434" on="1"/>
        <pt x="1352" y="1434" on="1"/>
        <pt x="799" y="569" on="1"/>
        <pt x="799" y="0" on="1"/>
        <pt x="594" y="0" on="1"/>
        <pt x="594" y="569" on="1"/>
        <pt x="41" y="1434" on="1"/>
      </contour>
      <contour>
        <pt x="795" y="1835" on="1"/>
        <pt x="1012" y="1835" on="1"/>
        <pt x="1012" y="1618" on="1"/>
        <pt x="795" y="1618" on="1"/>
      </contour>
      <contour>
        <pt x="379" y="1835" on="1"/>
        <pt x="596" y="1835" on="1"/>
        <pt x="596" y="1618" on="1"/>
        <pt x="379" y="1618" on="1"/>
      </contour>
    </TTGlyph>
    <TTGlyph name="Z" xMin="123" yMin="0" xMax="1278" yMax="1434">
      <contour>
        <pt x="152" y="1434" on="1"/>
        <pt x="1278" y="1434" on="1"/>
        <pt x="1278" y="1372" on="1"/>
        <pt x="465" y="205" on="1"/>
        <pt x="1278" y="205" on="1"/>
        <pt x="1278" y="0" on="1"/>
        <pt x="123" y="0" on="1"/>
        <pt x="123" y="61" on="1"/>
        <pt x="936" y="1229" on="1"/>
        <pt x="152" y="1229" on="1"/>
      </contour>
    </TTGlyph>
    <TTGlyph name="Zcaron" xMin="123" yMin="0" xMax="1278" yMax="1864">
      <contour>
        <pt x="152" y="1434" on="1"/>
        <pt x="1278" y="1434" on="1"/>
        <pt x="1278" y="1372" on="1"/>
        <pt x="465" y="205" on="1"/>
        <pt x="1278" y="205" on="1"/>
        <pt x="1278" y="0" on="1"/>
        <pt x="123" y="0" on="1"/>
        <pt x="123" y="61" on="1"/>
        <pt x="936" y="1229" on="1"/>
        <pt x="152" y="1229" on="1"/>
      </contour>
      <contour>
        <pt x="340" y="1864" on="1"/>
        <pt x="549" y="1864" on="1"/>
        <pt x="700" y="1726" on="1"/>
        <pt x="852" y="1864" on="1"/>
        <pt x="1061" y="1864" on="1"/>
        <pt x="823" y="1618" on="1"/>
        <pt x="578" y="1618" on="1"/>
      </contour>
    </TTGlyph>
    <TTGlyph name="a" xMin="164" yMin="0" xMax="1065" yMax="1065">
      <contour>
        <pt x="164" y="465" on="1"/>
        <pt x="164" y="506" on="0"/>
        <pt x="195" y="577" on="0"/>
        <pt x="248" y="631" on="0"/>
        <pt x="320" y="662" on="0"/>
        <pt x="360" y="662" on="1"/>
        <pt x="868" y="662" on="1"/>
        <pt x="868" y="868" on="1"/>
        <pt x="225" y="868" on="1"/>
        <pt x="225" y="1065" on="1"/>
        <pt x="868" y="1065" on="1"/>
        <pt x="909" y="1065" on="0"/>
        <pt x="981" y="1034" on="0"/>
        <pt x="1034" y="981" on="0"/>
        <pt x="1065" y="909" on="0"/>
        <pt x="1065" y="868" on="1"/>
        <pt x="1065" y="0" on="1"/>
        <pt x="868" y="0" on="1"/>
        <pt x="868" y="180" on="1"/>
        <pt x="865" y="143" on="0"/>
        <pt x="831" y="77" on="0"/>
        <pt x="778" y="28" on="0"/>
        <pt x="710" y="0" on="0"/>
        <pt x="672" y="0" on="1"/>
        <pt x="360" y="0" on="1"/>
        <pt x="320" y="0" on="0"/>
        <pt x="248" y="31" on="0"/>
        <pt x="195" y="84" on="0"/>
        <pt x="164" y="156" on="0"/>
        <pt x="164" y="197" on="1"/>
      </contour>
      <contour>
        <pt x="360" y="197" on="1"/>
        <pt x="868" y="197" on="1"/>
        <pt x="868" y="465" on="1"/>
        <pt x="360" y="465" on="1"/>
      </contour>
    </TTGlyph>
    <TTGlyph name="aacute" xMin="164" yMin="0" xMax="1065" yMax="1475">
      <contour>
        <pt x="164" y="465" on="1"/>
        <pt x="164" y="506" on="0"/>
        <pt x="195" y="577" on="0"/>
        <pt x="248" y="631" on="0"/>
        <pt x="320" y="662" on="0"/>
        <pt x="360" y="662" on="1"/>
        <pt x="868" y="662" on="1"/>
        <pt x="868" y="868" on="1"/>
        <pt x="225" y="868" on="1"/>
        <pt x="225" y="1065" on="1"/>
        <pt x="868" y="1065" on="1"/>
        <pt x="909" y="1065" on="0"/>
        <pt x="981" y="1034" on="0"/>
        <pt x="1034" y="981" on="0"/>
        <pt x="1065" y="909" on="0"/>
        <pt x="1065" y="868" on="1"/>
        <pt x="1065" y="0" on="1"/>
        <pt x="868" y="0" on="1"/>
        <pt x="868" y="180" on="1"/>
        <pt x="865" y="143" on="0"/>
        <pt x="831" y="77" on="0"/>
        <pt x="778" y="28" on="0"/>
        <pt x="710" y="0" on="0"/>
        <pt x="672" y="0" on="1"/>
        <pt x="360" y="0" on="1"/>
        <pt x="320" y="0" on="0"/>
        <pt x="248" y="31" on="0"/>
        <pt x="195" y="84" on="0"/>
        <pt x="164" y="156" on="0"/>
        <pt x="164" y="197" on="1"/>
      </contour>
      <contour>
        <pt x="360" y="197" on="1"/>
        <pt x="868" y="197" on="1"/>
        <pt x="868" y="465" on="1"/>
        <pt x="360" y="465" on="1"/>
      </contour>
      <contour>
        <pt x="680" y="1475" on="1"/>
        <pt x="979" y="1475" on="1"/>
        <pt x="641" y="1249" on="1"/>
        <pt x="453" y="1249" on="1"/>
      </contour>
    </TTGlyph>
    <TTGlyph name="acircumflex" xMin="164" yMin="0" xMax="1065" yMax="1495">
      <contour>
        <pt x="164" y="465" on="1"/>
        <pt x="164" y="506" on="0"/>
        <pt x="195" y="577" on="0"/>
        <pt x="248" y="631" on="0"/>
        <pt x="320" y="662" on="0"/>
        <pt x="360" y="662" on="1"/>
        <pt x="868" y="662" on="1"/>
        <pt x="868" y="868" on="1"/>
        <pt x="225" y="868" on="1"/>
        <pt x="225" y="1065" on="1"/>
        <pt x="868" y="1065" on="1"/>
        <pt x="909" y="1065" on="0"/>
        <pt x="981" y="1034" on="0"/>
        <pt x="1034" y="981" on="0"/>
        <pt x="1065" y="909" on="0"/>
        <pt x="1065" y="868" on="1"/>
        <pt x="1065" y="0" on="1"/>
        <pt x="868" y="0" on="1"/>
        <pt x="868" y="180" on="1"/>
        <pt x="865" y="143" on="0"/>
        <pt x="831" y="77" on="0"/>
        <pt x="778" y="28" on="0"/>
        <pt x="710" y="0" on="0"/>
        <pt x="672" y="0" on="1"/>
        <pt x="360" y="0" on="1"/>
        <pt x="320" y="0" on="0"/>
        <pt x="248" y="31" on="0"/>
        <pt x="195" y="84" on="0"/>
        <pt x="164" y="156" on="0"/>
        <pt x="164" y="197" on="1"/>
      </contour>
      <contour>
        <pt x="360" y="197" on="1"/>
        <pt x="868" y="197" on="1"/>
        <pt x="868" y="465" on="1"/>
        <pt x="360" y="465" on="1"/>
      </contour>
      <contour>
        <pt x="1016" y="1249" on="1"/>
        <pt x="807" y="1249" on="1"/>
        <pt x="655" y="1384" on="1"/>
        <pt x="504" y="1249" on="1"/>
        <pt x="295" y="1249" on="1"/>
        <pt x="532" y="1495" on="1"/>
        <pt x="778" y="1495" on="1"/>
      </contour>
    </TTGlyph>
    <TTGlyph name="acute" xMin="123" yMin="1249" xMax="649" yMax="1475">
      <contour>
        <pt x="350" y="1475" on="1"/>
        <pt x="649" y="1475" on="1"/>
        <pt x="311" y="1249" on="1"/>
        <pt x="123" y="1249" on="1"/>
      </contour>
    </TTGlyph>
    <TTGlyph name="acute.cap" xMin="123" yMin="1618" xMax="649" yMax="1843">
      <contour>
        <pt x="350" y="1843" on="1"/>
        <pt x="649" y="1843" on="1"/>
        <pt x="311" y="1618" on="1"/>
        <pt x="123" y="1618" on="1"/>
      </contour>
    </TTGlyph>
    <TTGlyph name="adieresis" xMin="164" yMin="0" xMax="1065" yMax="1466">
      <contour>
        <pt x="164" y="465" on="1"/>
        <pt x="164" y="506" on="0"/>
        <pt x="195" y="577" on="0"/>
        <pt x="248" y="631" on="0"/>
        <pt x="320" y="662" on="0"/>
        <pt x="360" y="662" on="1"/>
        <pt x="868" y="662" on="1"/>
        <pt x="868" y="868" on="1"/>
        <pt x="225" y="868" on="1"/>
        <pt x="225" y="1065" on="1"/>
        <pt x="868" y="1065" on="1"/>
        <pt x="909" y="1065" on="0"/>
        <pt x="981" y="1034" on="0"/>
        <pt x="1034" y="981" on="0"/>
        <pt x="1065" y="909" on="0"/>
        <pt x="1065" y="868" on="1"/>
        <pt x="1065" y="0" on="1"/>
        <pt x="868" y="0" on="1"/>
        <pt x="868" y="180" on="1"/>
        <pt x="865" y="143" on="0"/>
        <pt x="831" y="77" on="0"/>
        <pt x="778" y="28" on="0"/>
        <pt x="710" y="0" on="0"/>
        <pt x="672" y="0" on="1"/>
        <pt x="360" y="0" on="1"/>
        <pt x="320" y="0" on="0"/>
        <pt x="248" y="31" on="0"/>
        <pt x="195" y="84" on="0"/>
        <pt x="164" y="156" on="0"/>
        <pt x="164" y="197" on="1"/>
      </contour>
      <contour>
        <pt x="360" y="197" on="1"/>
        <pt x="868" y="197" on="1"/>
        <pt x="868" y="465" on="1"/>
        <pt x="360" y="465" on="1"/>
      </contour>
      <contour>
        <pt x="733" y="1466" on="1"/>
        <pt x="950" y="1466" on="1"/>
        <pt x="950" y="1249" on="1"/>
        <pt x="733" y="1249" on="1"/>
      </contour>
      <contour>
        <pt x="317" y="1466" on="1"/>
        <pt x="535" y="1466" on="1"/>
        <pt x="535" y="1249" on="1"/>
        <pt x="317" y="1249" on="1"/>
      </contour>
    </TTGlyph>
    <TTGlyph name="ae" xMin="164" yMin="0" xMax="1769" yMax="1065">
      <contour>
        <pt x="868" y="465" on="1"/>
        <pt x="360" y="465" on="1"/>
        <pt x="360" y="197" on="1"/>
        <pt x="868" y="197" on="1"/>
      </contour>
      <contour>
        <pt x="1065" y="868" on="1"/>
        <pt x="1065" y="629" on="1"/>
        <pt x="1573" y="629" on="1"/>
        <pt x="1573" y="868" on="1"/>
      </contour>
      <contour>
        <pt x="967" y="928" on="1"/>
        <pt x="976" y="958" on="0"/>
        <pt x="1012" y="1008" on="0"/>
        <pt x="1060" y="1045" on="0"/>
        <pt x="1120" y="1065" on="0"/>
        <pt x="1153" y="1065" on="1"/>
        <pt x="1573" y="1065" on="1"/>
        <pt x="1614" y="1065" on="0"/>
        <pt x="1685" y="1034" on="0"/>
        <pt x="1738" y="981" on="0"/>
        <pt x="1769" y="909" on="0"/>
        <pt x="1769" y="868" on="1"/>
        <pt x="1769" y="432" on="1"/>
        <pt x="1065" y="432" on="1"/>
        <pt x="1065" y="197" on="1"/>
        <pt x="1769" y="197" on="1"/>
        <pt x="1769" y="0" on="1"/>
        <pt x="1065" y="0" on="1"/>
        <pt x="1025" y="0" on="0"/>
        <pt x="954" y="30" on="0"/>
        <pt x="901" y="81" on="0"/>
        <pt x="870" y="149" on="0"/>
        <pt x="868" y="188" on="1"/>
        <pt x="867" y="149" on="0"/>
        <pt x="834" y="81" on="0"/>
        <pt x="781" y="30" on="0"/>
        <pt x="711" y="0" on="0"/>
        <pt x="672" y="0" on="1"/>
        <pt x="360" y="0" on="1"/>
        <pt x="320" y="0" on="0"/>
        <pt x="248" y="31" on="0"/>
        <pt x="195" y="84" on="0"/>
        <pt x="164" y="156" on="0"/>
        <pt x="164" y="197" on="1"/>
        <pt x="164" y="465" on="1"/>
        <pt x="164" y="506" on="0"/>
        <pt x="195" y="577" on="0"/>
        <pt x="248" y="631" on="0"/>
        <pt x="320" y="662" on="0"/>
        <pt x="360" y="662" on="1"/>
        <pt x="868" y="662" on="1"/>
        <pt x="868" y="868" on="1"/>
        <pt x="225" y="868" on="1"/>
        <pt x="225" y="1065" on="1"/>
        <pt x="780" y="1065" on="1"/>
        <pt x="813" y="1065" on="0"/>
        <pt x="873" y="1045" on="0"/>
        <pt x="922" y="1008" on="0"/>
        <pt x="958" y="958" on="0"/>
      </contour>
    </TTGlyph>
    <TTGlyph name="agrave" xMin="164" yMin="0" xMax="1065" yMax="1475">
      <contour>
        <pt x="164" y="465" on="1"/>
        <pt x="164" y="506" on="0"/>
        <pt x="195" y="577" on="0"/>
        <pt x="248" y="631" on="0"/>
        <pt x="320" y="662" on="0"/>
        <pt x="360" y="662" on="1"/>
        <pt x="868" y="662" on="1"/>
        <pt x="868" y="868" on="1"/>
        <pt x="225" y="868" on="1"/>
        <pt x="225" y="1065" on="1"/>
        <pt x="868" y="1065" on="1"/>
        <pt x="909" y="1065" on="0"/>
        <pt x="981" y="1034" on="0"/>
        <pt x="1034" y="981" on="0"/>
        <pt x="1065" y="909" on="0"/>
        <pt x="1065" y="868" on="1"/>
        <pt x="1065" y="0" on="1"/>
        <pt x="868" y="0" on="1"/>
        <pt x="868" y="180" on="1"/>
        <pt x="865" y="143" on="0"/>
        <pt x="831" y="77" on="0"/>
        <pt x="778" y="28" on="0"/>
        <pt x="710" y="0" on="0"/>
        <pt x="672" y="0" on="1"/>
        <pt x="360" y="0" on="1"/>
        <pt x="320" y="0" on="0"/>
        <pt x="248" y="31" on="0"/>
        <pt x="195" y="84" on="0"/>
        <pt x="164" y="156" on="0"/>
        <pt x="164" y="197" on="1"/>
      </contour>
      <contour>
        <pt x="360" y="197" on="1"/>
        <pt x="868" y="197" on="1"/>
        <pt x="868" y="465" on="1"/>
        <pt x="360" y="465" on="1"/>
      </contour>
      <contour>
        <pt x="795" y="1249" on="1"/>
        <pt x="606" y="1249" on="1"/>
        <pt x="268" y="1475" on="1"/>
        <pt x="567" y="1475" on="1"/>
      </contour>
    </TTGlyph>
    <TTGlyph name="ampersand" xMin="143" yMin="0" xMax="1436" yMax="1434">
      <contour>
        <pt x="1436" y="0" on="1"/>
        <pt x="1372" y="0" on="1"/>
        <pt x="1166" y="0" on="0"/>
        <pt x="1083" y="119" on="1"/>
        <pt x="998" y="0" on="0"/>
        <pt x="795" y="0" on="1"/>
        <pt x="492" y="0" on="1"/>
        <pt x="143" y="0" on="0"/>
        <pt x="143" y="348" on="1"/>
        <pt x="143" y="420" on="1"/>
        <pt x="143" y="554" on="0"/>
        <pt x="239" y="716" on="0"/>
        <pt x="330" y="743" on="1"/>
        <pt x="249" y="781" on="0"/>
        <pt x="164" y="938" on="0"/>
        <pt x="164" y="1059" on="1"/>
        <pt x="164" y="1085" on="1"/>
        <pt x="164" y="1434" on="0"/>
        <pt x="512" y="1434" on="1"/>
        <pt x="815" y="1434" on="1"/>
        <pt x="992" y="1434" on="0"/>
        <pt x="1163" y="1262" on="0"/>
        <pt x="1163" y="1085" on="1"/>
        <pt x="1163" y="999" on="1"/>
        <pt x="963" y="999" on="1"/>
        <pt x="963" y="1075" on="1"/>
        <pt x="963" y="1157" on="0"/>
        <pt x="891" y="1233" on="0"/>
        <pt x="809" y="1233" on="1"/>
        <pt x="518" y="1233" on="1"/>
        <pt x="437" y="1233" on="0"/>
        <pt x="365" y="1157" on="0"/>
        <pt x="365" y="1075" on="1"/>
        <pt x="365" y="981" on="1"/>
        <pt x="365" y="903" on="0"/>
        <pt x="430" y="828" on="0"/>
        <pt x="504" y="825" on="1"/>
        <pt x="1436" y="825" on="1"/>
        <pt x="1436" y="625" on="1"/>
        <pt x="1184" y="625" on="1"/>
        <pt x="1184" y="358" on="1"/>
        <pt x="1184" y="277" on="0"/>
        <pt x="1256" y="201" on="0"/>
        <pt x="1337" y="201" on="1"/>
        <pt x="1436" y="201" on="1"/>
      </contour>
      <contour>
        <pt x="829" y="201" on="1"/>
        <pt x="911" y="201" on="0"/>
        <pt x="983" y="277" on="0"/>
        <pt x="983" y="358" on="1"/>
        <pt x="983" y="625" on="1"/>
        <pt x="498" y="625" on="1"/>
        <pt x="416" y="625" on="0"/>
        <pt x="344" y="551" on="0"/>
        <pt x="344" y="469" on="1"/>
        <pt x="344" y="358" on="1"/>
        <pt x="344" y="277" on="0"/>
        <pt x="416" y="201" on="0"/>
        <pt x="498" y="201" on="1"/>
        <pt x="829" y="201" on="1"/>
      </contour>
    </TTGlyph>
    <TTGlyph name="aring" xMin="164" yMin="0" xMax="1065" yMax="1751">
      <contour>
        <pt x="164" y="465" on="1"/>
        <pt x="164" y="506" on="0"/>
        <pt x="195" y="577" on="0"/>
        <pt x="248" y="631" on="0"/>
        <pt x="320" y="662" on="0"/>
        <pt x="360" y="662" on="1"/>
        <pt x="868" y="662" on="1"/>
        <pt x="868" y="868" on="1"/>
        <pt x="225" y="868" on="1"/>
        <pt x="225" y="1065" on="1"/>
        <pt x="868" y="1065" on="1"/>
        <pt x="909" y="1065" on="0"/>
        <pt x="981" y="1034" on="0"/>
        <pt x="1034" y="981" on="0"/>
        <pt x="1065" y="909" on="0"/>
        <pt x="1065" y="868" on="1"/>
        <pt x="1065" y="0" on="1"/>
        <pt x="868" y="0" on="1"/>
        <pt x="868" y="180" on="1"/>
        <pt x="865" y="143" on="0"/>
        <pt x="831" y="77" on="0"/>
        <pt x="778" y="28" on="0"/>
        <pt x="710" y="0" on="0"/>
        <pt x="672" y="0" on="1"/>
        <pt x="360" y="0" on="1"/>
        <pt x="320" y="0" on="0"/>
        <pt x="248" y="31" on="0"/>
        <pt x="195" y="84" on="0"/>
        <pt x="164" y="156" on="0"/>
        <pt x="164" y="197" on="1"/>
      </contour>
      <contour>
        <pt x="358" y="1475" on="1"/>
        <pt x="358" y="1533" on="0"/>
        <pt x="401" y="1634" on="0"/>
        <pt x="475" y="1708" on="0"/>
        <pt x="577" y="1751" on="0"/>
        <pt x="635" y="1751" on="1"/>
        <pt x="694" y="1751" on="0"/>
        <pt x="794" y="1708" on="0"/>
        <pt x="869" y="1634" on="0"/>
        <pt x="911" y="1533" on="0"/>
        <pt x="911" y="1475" on="1"/>
        <pt x="911" y="1417" on="0"/>
        <pt x="869" y="1315" on="0"/>
        <pt x="794" y="1241" on="0"/>
        <pt x="694" y="1198" on="0"/>
        <pt x="635" y="1198" on="1"/>
        <pt x="577" y="1198" on="0"/>
        <pt x="475" y="1241" on="0"/>
        <pt x="401" y="1315" on="0"/>
        <pt x="358" y="1417" on="0"/>
      </contour>
      <contour>
        <pt x="360" y="197" on="1"/>
        <pt x="868" y="197" on="1"/>
        <pt x="868" y="465" on="1"/>
        <pt x="360" y="465" on="1"/>
      </contour>
      <contour>
        <pt x="504" y="1475" on="1"/>
        <pt x="504" y="1447" on="0"/>
        <pt x="524" y="1398" on="0"/>
        <pt x="559" y="1361" on="0"/>
        <pt x="607" y="1339" on="0"/>
        <pt x="635" y="1339" on="1"/>
        <pt x="663" y="1339" on="0"/>
        <pt x="711" y="1361" on="0"/>
        <pt x="746" y="1398" on="0"/>
        <pt x="766" y="1447" on="0"/>
        <pt x="766" y="1475" on="1"/>
        <pt x="766" y="1502" on="0"/>
        <pt x="746" y="1551" on="0"/>
        <pt x="711" y="1588" on="0"/>
        <pt x="663" y="1610" on="0"/>
        <pt x="635" y="1610" on="1"/>
        <pt x="607" y="1610" on="0"/>
        <pt x="559" y="1588" on="0"/>
        <pt x="524" y="1551" on="0"/>
        <pt x="504" y="1502" on="0"/>
      </contour>
    </TTGlyph>
    <TTGlyph name="asciicircum" xMin="82" yMin="823" xMax="1061" yMax="1434">
      <contour>
        <pt x="674" y="1434" on="1"/>
        <pt x="1061" y="823" on="1"/>
        <pt x="856" y="823" on="1"/>
        <pt x="571" y="1284" on="1"/>
        <pt x="287" y="823" on="1"/>
        <pt x="82" y="823" on="1"/>
        <pt x="469" y="1434" on="1"/>
      </contour>
    </TTGlyph>
    <TTGlyph name="asciitilde" xMin="123" yMin="487" xMax="1087" yMax="797">
      <contour>
        <pt x="123" y="487" on="1"/>
        <pt x="124" y="553" on="0"/>
        <pt x="169" y="666" on="0"/>
        <pt x="248" y="749" on="0"/>
        <pt x="358" y="797" on="0"/>
        <pt x="424" y="797" on="1"/>
        <pt x="492" y="797" on="0"/>
        <pt x="589" y="759" on="0"/>
        <pt x="670" y="712" on="0"/>
        <pt x="748" y="674" on="0"/>
        <pt x="797" y="674" on="1"/>
        <pt x="824" y="674" on="0"/>
        <pt x="867" y="694" on="0"/>
        <pt x="898" y="728" on="0"/>
        <pt x="916" y="772" on="0"/>
        <pt x="918" y="797" on="1"/>
        <pt x="1087" y="797" on="1"/>
        <pt x="1086" y="732" on="0"/>
        <pt x="1042" y="619" on="0"/>
        <pt x="962" y="535" on="0"/>
        <pt x="852" y="487" on="0"/>
        <pt x="786" y="487" on="1"/>
        <pt x="718" y="487" on="0"/>
        <pt x="621" y="525" on="0"/>
        <pt x="540" y="572" on="0"/>
        <pt x="463" y="610" on="0"/>
        <pt x="414" y="610" on="1"/>
        <pt x="387" y="610" on="0"/>
        <pt x="344" y="590" on="0"/>
        <pt x="312" y="556" on="0"/>
        <pt x="295" y="512" on="0"/>
        <pt x="293" y="487" on="1"/>
      </contour>
    </TTGlyph>
    <TTGlyph name="asterisk" xMin="123" yMin="598" xMax="1001" yMax="1434">
      <contour>
        <pt x="377" y="598" on="1"/>
        <pt x="240" y="698" on="1"/>
        <pt x="444" y="961" on="1"/>
        <pt x="123" y="1053" on="1"/>
        <pt x="176" y="1214" on="1"/>
        <pt x="489" y="1100" on="1"/>
        <pt x="477" y="1434" on="1"/>
        <pt x="647" y="1434" on="1"/>
        <pt x="635" y="1100" on="1"/>
        <pt x="948" y="1214" on="1"/>
        <pt x="1001" y="1053" on="1"/>
        <pt x="680" y="961" on="1"/>
        <pt x="885" y="698" on="1"/>
        <pt x="748" y="598" on="1"/>
        <pt x="561" y="877" on="1"/>
      </contour>
    </TTGlyph>
    <TTGlyph name="at" xMin="184" yMin="-430" xMax="1987" yMax="1434">
      <contour>
        <pt x="645" y="807" on="1"/>
        <pt x="645" y="848" on="0"/>
        <pt x="676" y="919" on="0"/>
        <pt x="729" y="973" on="0"/>
        <pt x="801" y="1004" on="0"/>
        <pt x="842" y="1004" on="1"/>
        <pt x="1112" y="1004" on="1"/>
        <pt x="1151" y="1004" on="0"/>
        <pt x="1222" y="974" on="0"/>
        <pt x="1275" y="923" on="0"/>
        <pt x="1308" y="854" on="0"/>
        <pt x="1309" y="815" on="1"/>
        <pt x="1309" y="1004" on="1"/>
        <pt x="1505" y="1004" on="1"/>
        <pt x="1505" y="197" on="1"/>
        <pt x="1790" y="197" on="1"/>
        <pt x="1790" y="940" on="1"/>
        <pt x="1790" y="1010" on="0"/>
        <pt x="1750" y="1120" on="0"/>
        <pt x="1673" y="1197" on="0"/>
        <pt x="1563" y="1237" on="0"/>
        <pt x="1493" y="1237" on="1"/>
        <pt x="678" y="1237" on="1"/>
        <pt x="608" y="1237" on="0"/>
        <pt x="498" y="1197" on="0"/>
        <pt x="422" y="1120" on="0"/>
        <pt x="381" y="1010" on="0"/>
        <pt x="381" y="940" on="1"/>
        <pt x="381" y="72" on="1"/>
        <pt x="381" y="1" on="0"/>
        <pt x="421" y="-112" on="0"/>
        <pt x="497" y="-191" on="0"/>
        <pt x="607" y="-233" on="0"/>
        <pt x="678" y="-233" on="1"/>
        <pt x="1743" y="-233" on="1"/>
        <pt x="1743" y="-272" on="0"/>
        <pt x="1711" y="-344" on="0"/>
        <pt x="1657" y="-398" on="0"/>
        <pt x="1585" y="-430" on="0"/>
        <pt x="1546" y="-430" on="1"/>
        <pt x="686" y="-430" on="1"/>
        <pt x="572" y="-430" on="0"/>
        <pt x="386" y="-359" on="0"/>
        <pt x="255" y="-228" on="0"/>
        <pt x="184" y="-42" on="0"/>
        <pt x="184" y="72" on="1"/>
        <pt x="184" y="932" on="1"/>
        <pt x="184" y="1046" on="0"/>
        <pt x="255" y="1232" on="0"/>
        <pt x="386" y="1363" on="0"/>
        <pt x="572" y="1434" on="0"/>
        <pt x="686" y="1434" on="1"/>
        <pt x="1485" y="1434" on="1"/>
        <pt x="1599" y="1434" on="0"/>
        <pt x="1785" y="1363" on="0"/>
        <pt x="1916" y="1232" on="0"/>
        <pt x="1987" y="1046" on="0"/>
        <pt x="1987" y="932" on="1"/>
        <pt x="1987" y="197" on="1"/>
        <pt x="1987" y="156" on="0"/>
        <pt x="1956" y="84" on="0"/>
        <pt x="1902" y="31" on="0"/>
        <pt x="1831" y="0" on="0"/>
        <pt x="1790" y="0" on="1"/>
        <pt x="1505" y="0" on="1"/>
        <pt x="1466" y="0" on="0"/>
        <pt x="1397" y="28" on="0"/>
        <pt x="1345" y="77" on="0"/>
        <pt x="1312" y="143" on="0"/>
        <pt x="1309" y="180" on="1"/>
        <pt x="1306" y="143" on="0"/>
        <pt x="1271" y="77" on="0"/>
        <pt x="1218" y="28" on="0"/>
        <pt x="1150" y="0" on="0"/>
        <pt x="1112" y="0" on="1"/>
        <pt x="842" y="0" on="1"/>
        <pt x="801" y="0" on="0"/>
        <pt x="729" y="31" on="0"/>
        <pt x="676" y="84" on="0"/>
        <pt x="645" y="156" on="0"/>
        <pt x="645" y="197" on="1"/>
      </contour>
      <contour>
        <pt x="1309" y="807" on="1"/>
        <pt x="842" y="807" on="1"/>
        <pt x="842" y="197" on="1"/>
        <pt x="1309" y="197" on="1"/>
      </contour>
    </TTGlyph>
    <TTGlyph name="atilde" xMin="164" yMin="0" xMax="1065" yMax="1503">
      <contour>
        <pt x="164" y="465" on="1"/>
        <pt x="164" y="506" on="0"/>
        <pt x="195" y="577" on="0"/>
        <pt x="248" y="631" on="0"/>
        <pt x="320" y="662" on="0"/>
        <pt x="360" y="662" on="1"/>
        <pt x="868" y="662" on="1"/>
        <pt x="868" y="868" on="1"/>
        <pt x="225" y="868" on="1"/>
        <pt x="225" y="1065" on="1"/>
        <pt x="868" y="1065" on="1"/>
        <pt x="909" y="1065" on="0"/>
        <pt x="981" y="1034" on="0"/>
        <pt x="1034" y="981" on="0"/>
        <pt x="1065" y="909" on="0"/>
        <pt x="1065" y="868" on="1"/>
        <pt x="1065" y="0" on="1"/>
        <pt x="868" y="0" on="1"/>
        <pt x="868" y="180" on="1"/>
        <pt x="865" y="143" on="0"/>
        <pt x="831" y="77" on="0"/>
        <pt x="778" y="28" on="0"/>
        <pt x="710" y="0" on="0"/>
        <pt x="672" y="0" on="1"/>
        <pt x="360" y="0" on="1"/>
        <pt x="320" y="0" on="0"/>
        <pt x="248" y="31" on="0"/>
        <pt x="195" y="84" on="0"/>
        <pt x="164" y="156" on="0"/>
        <pt x="164" y="197" on="1"/>
      </contour>
      <contour>
        <pt x="360" y="197" on="1"/>
        <pt x="868" y="197" on="1"/>
        <pt x="868" y="465" on="1"/>
        <pt x="360" y="465" on="1"/>
      </contour>
      <contour>
        <pt x="244" y="1251" on="1"/>
        <pt x="244" y="1304" on="0"/>
        <pt x="280" y="1396" on="0"/>
        <pt x="344" y="1464" on="0"/>
        <pt x="433" y="1503" on="0"/>
        <pt x="487" y="1503" on="1"/>
        <pt x="543" y="1503" on="0"/>
        <pt x="621" y="1472" on="0"/>
        <pt x="687" y="1434" on="0"/>
        <pt x="751" y="1403" on="0"/>
        <pt x="791" y="1403" on="1"/>
        <pt x="834" y="1403" on="0"/>
        <pt x="886" y="1463" on="0"/>
        <pt x="889" y="1503" on="1"/>
        <pt x="1026" y="1503" on="1"/>
        <pt x="1025" y="1450" on="0"/>
        <pt x="989" y="1358" on="0"/>
        <pt x="925" y="1290" on="0"/>
        <pt x="836" y="1251" on="0"/>
        <pt x="782" y="1251" on="1"/>
        <pt x="745" y="1251" on="0"/>
        <pt x="686" y="1266" on="0"/>
        <pt x="636" y="1288" on="0"/>
        <pt x="593" y="1315" on="0"/>
        <pt x="551" y="1337" on="0"/>
        <pt x="506" y="1352" on="0"/>
        <pt x="479" y="1352" on="1"/>
        <pt x="436" y="1352" on="0"/>
        <pt x="384" y="1292" on="0"/>
        <pt x="381" y="1251" on="1"/>
      </contour>
    </TTGlyph>
    <TTGlyph name="b" xMin="164" yMin="0" xMax="1106" yMax="1475">
      <contour>
        <pt x="1106" y="197" on="1"/>
        <pt x="1106" y="156" on="0"/>
        <pt x="1075" y="84" on="0"/>
        <pt x="1022" y="31" on="0"/>
        <pt x="950" y="0" on="0"/>
        <pt x="909" y="0" on="1"/>
        <pt x="360" y="0" on="1"/>
        <pt x="320" y="0" on="0"/>
        <pt x="248" y="31" on="0"/>
        <pt x="195" y="84" on="0"/>
        <pt x="164" y="156" on="0"/>
        <pt x="164" y="197" on="1"/>
        <pt x="164" y="1475" on="1"/>
        <pt x="360" y="1475" on="1"/>
        <pt x="360" y="877" on="1"/>
        <pt x="362" y="916" on="0"/>
        <pt x="394" y="985" on="0"/>
        <pt x="447" y="1036" on="0"/>
        <pt x="517" y="1065" on="0"/>
        <pt x="557" y="1065" on="1"/>
        <pt x="909" y="1065" on="1"/>
        <pt x="950" y="1065" on="0"/>
        <pt x="1022" y="1034" on="0"/>
        <pt x="1075" y="981" on="0"/>
        <pt x="1106" y="909" on="0"/>
        <pt x="1106" y="868" on="1"/>
      </contour>
      <contour>
        <pt x="360" y="868" on="1"/>
        <pt x="360" y="197" on="1"/>
        <pt x="909" y="197" on="1"/>
        <pt x="909" y="868" on="1"/>
      </contour>
    </TTGlyph>
    <TTGlyph name="backslash" xMin="82" yMin="-102" xMax="823" yMax="1536">
      <contour>
        <pt x="635" y="-102" on="1"/>
        <pt x="82" y="1536" on="1"/>
        <pt x="281" y="1536" on="1"/>
        <pt x="823" y="-102" on="1"/>
      </contour>
    </TTGlyph>
    <TTGlyph name="bar" xMin="184" yMin="-430" xMax="389" yMax="1536">
      <contour>
        <pt x="389" y="1536" on="1"/>
        <pt x="389" y="-430" on="1"/>
        <pt x="184" y="-430" on="1"/>
        <pt x="184" y="1536" on="1"/>
      </contour>
    </TTGlyph>
    <TTGlyph name="braceleft" xMin="41" yMin="-430" xMax="672" yMax="1536">
      <contour>
        <pt x="672" y="-236" on="1"/>
        <pt x="672" y="-430" on="1"/>
        <pt x="643" y="-430" on="1"/>
        <pt x="548" y="-430" on="0"/>
        <pt x="392" y="-376" on="0"/>
        <pt x="281" y="-274" on="0"/>
        <pt x="221" y="-127" on="0"/>
        <pt x="221" y="-33" on="1"/>
        <pt x="221" y="2" on="0"/>
        <pt x="228" y="84" on="0"/>
        <pt x="235" y="165" on="0"/>
        <pt x="242" y="238" on="0"/>
        <pt x="242" y="264" on="1"/>
        <pt x="242" y="321" on="0"/>
        <pt x="220" y="395" on="0"/>
        <pt x="174" y="438" on="0"/>
        <pt x="100" y="455" on="0"/>
        <pt x="49" y="455" on="1"/>
        <pt x="41" y="455" on="1"/>
        <pt x="41" y="651" on="1"/>
        <pt x="49" y="651" on="1"/>
        <pt x="100" y="651" on="0"/>
        <pt x="174" y="668" on="0"/>
        <pt x="220" y="711" on="0"/>
        <pt x="242" y="785" on="0"/>
        <pt x="242" y="842" on="1"/>
        <pt x="242" y="868" on="0"/>
        <pt x="235" y="940" on="0"/>
        <pt x="228" y="1021" on="0"/>
        <pt x="221" y="1103" on="0"/>
        <pt x="221" y="1139" on="1"/>
        <pt x="221" y="1233" on="0"/>
        <pt x="281" y="1380" on="0"/>
        <pt x="392" y="1482" on="0"/>
        <pt x="548" y="1536" on="0"/>
        <pt x="643" y="1536" on="1"/>
        <pt x="672" y="1536" on="1"/>
        <pt x="672" y="1341" on="1"/>
        <pt x="643" y="1341" on="1"/>
        <pt x="538" y="1341" on="0"/>
        <pt x="426" y="1238" on="0"/>
        <pt x="426" y="1135" on="1"/>
        <pt x="426" y="1104" on="0"/>
        <pt x="432" y="1032" on="0"/>
        <pt x="440" y="957" on="0"/>
        <pt x="446" y="883" on="0"/>
        <pt x="446" y="850" on="1"/>
        <pt x="446" y="744" on="0"/>
        <pt x="382" y="595" on="0"/>
        <pt x="309" y="553" on="1"/>
        <pt x="382" y="510" on="0"/>
        <pt x="446" y="361" on="0"/>
        <pt x="446" y="256" on="1"/>
        <pt x="446" y="223" on="0"/>
        <pt x="440" y="149" on="0"/>
        <pt x="432" y="74" on="0"/>
        <pt x="426" y="2" on="0"/>
        <pt x="426" y="-29" on="1"/>
        <pt x="426" y="-132" on="0"/>
        <pt x="538" y="-236" on="0"/>
        <pt x="643" y="-236" on="1"/>
      </contour>
    </TTGlyph>
    <TTGlyph name="braceright" xMin="123" yMin="-430" xMax="754" yMax="1536">
      <contour>
        <pt x="152" y="-236" on="1"/>
        <pt x="257" y="-236" on="0"/>
        <pt x="369" y="-132" on="0"/>
        <pt x="369" y="-29" on="1"/>
        <pt x="369" y="2" on="0"/>
        <pt x="362" y="74" on="0"/>
        <pt x="355" y="149" on="0"/>
        <pt x="348" y="223" on="0"/>
        <pt x="348" y="256" on="1"/>
        <pt x="348" y="361" on="0"/>
        <pt x="413" y="510" on="0"/>
        <pt x="485" y="553" on="1"/>
        <pt x="413" y="595" on="0"/>
        <pt x="348" y="744" on="0"/>
        <pt x="348" y="850" on="1"/>
        <pt x="348" y="883" on="0"/>
        <pt x="355" y="957" on="0"/>
        <pt x="362" y="1032" on="0"/>
        <pt x="369" y="1104" on="0"/>
        <pt x="369" y="1135" on="1"/>
        <pt x="369" y="1238" on="0"/>
        <pt x="257" y="1341" on="0"/>
        <pt x="152" y="1341" on="1"/>
        <pt x="123" y="1341" on="1"/>
        <pt x="123" y="1536" on="1"/>
        <pt x="152" y="1536" on="1"/>
        <pt x="247" y="1536" on="0"/>
        <pt x="403" y="1482" on="0"/>
        <pt x="513" y="1380" on="0"/>
        <pt x="573" y="1233" on="0"/>
        <pt x="573" y="1139" on="1"/>
        <pt x="573" y="1103" on="0"/>
        <pt x="567" y="1021" on="0"/>
        <pt x="559" y="940" on="0"/>
        <pt x="553" y="868" on="0"/>
        <pt x="553" y="842" on="1"/>
        <pt x="553" y="785" on="0"/>
        <pt x="574" y="711" on="0"/>
        <pt x="621" y="668" on="0"/>
        <pt x="694" y="651" on="0"/>
        <pt x="745" y="651" on="1"/>
        <pt x="754" y="651" on="1"/>
        <pt x="754" y="455" on="1"/>
        <pt x="745" y="455" on="1"/>
        <pt x="694" y="455" on="0"/>
        <pt x="621" y="438" on="0"/>
        <pt x="574" y="395" on="0"/>
        <pt x="553" y="321" on="0"/>
        <pt x="553" y="264" on="1"/>
        <pt x="553" y="238" on="0"/>
        <pt x="559" y="165" on="0"/>
        <pt x="567" y="84" on="0"/>
        <pt x="573" y="2" on="0"/>
        <pt x="573" y="-33" on="1"/>
        <pt x="573" y="-127" on="0"/>
        <pt x="513" y="-274" on="0"/>
        <pt x="403" y="-376" on="0"/>
        <pt x="247" y="-430" on="0"/>
        <pt x="152" y="-430" on="1"/>
        <pt x="123" y="-430" on="1"/>
        <pt x="123" y="-236" on="1"/>
      </contour>
    </TTGlyph>
    <TTGlyph name="bracketleft" xMin="184" yMin="-430" xMax="715" yMax="1536">
      <contour>
        <pt x="184" y="1536" on="1"/>
        <pt x="715" y="1536" on="1"/>
        <pt x="715" y="1341" on="1"/>
        <pt x="389" y="1341" on="1"/>
        <pt x="389" y="-236" on="1"/>
        <pt x="715" y="-236" on="1"/>
        <pt x="715" y="-430" on="1"/>
        <pt x="184" y="-430" on="1"/>
      </contour>
    </TTGlyph>
    <TTGlyph name="bracketright" xMin="123" yMin="-430" xMax="653" yMax="1536">
      <contour>
        <pt x="449" y="1341" on="1"/>
        <pt x="123" y="1341" on="1"/>
        <pt x="123" y="1536" on="1"/>
        <pt x="653" y="1536" on="1"/>
        <pt x="653" y="-430" on="1"/>
        <pt x="123" y="-430" on="1"/>
        <pt x="123" y="-236" on="1"/>
        <pt x="449" y="-236" on="1"/>
      </contour>
    </TTGlyph>
    <TTGlyph name="breve" xMin="123" yMin="1239" xMax="840" yMax="1561">
      <contour>
        <pt x="840" y="1561" on="1"/>
        <pt x="833" y="1493" on="0"/>
        <pt x="772" y="1376" on="0"/>
        <pt x="676" y="1289" on="0"/>
        <pt x="551" y="1239" on="0"/>
        <pt x="481" y="1239" on="1"/>
        <pt x="412" y="1239" on="0"/>
        <pt x="289" y="1289" on="0"/>
        <pt x="193" y="1376" on="0"/>
        <pt x="131" y="1493" on="0"/>
        <pt x="123" y="1561" on="1"/>
        <pt x="289" y="1561" on="1"/>
        <pt x="296" y="1527" on="0"/>
        <pt x="330" y="1469" on="0"/>
        <pt x="381" y="1427" on="0"/>
        <pt x="445" y="1403" on="0"/>
        <pt x="481" y="1403" on="1"/>
        <pt x="516" y="1403" on="0"/>
        <pt x="580" y="1427" on="0"/>
        <pt x="631" y="1469" on="0"/>
        <pt x="667" y="1527" on="0"/>
        <pt x="674" y="1561" on="1"/>
      </contour>
    </TTGlyph>
    <TTGlyph name="brokenbar" xMin="184" yMin="-430" xMax="389" yMax="1536">
      <contour>
        <pt x="389" y="455" on="1"/>
        <pt x="389" y="-430" on="1"/>
        <pt x="184" y="-430" on="1"/>
        <pt x="184" y="455" on="1"/>
      </contour>
      <contour>
        <pt x="389" y="1536" on="1"/>
        <pt x="389" y="651" on="1"/>
        <pt x="184" y="651" on="1"/>
        <pt x="184" y="1536" on="1"/>
      </contour>
    </TTGlyph>
    <TTGlyph name="bullet" xMin="123" yMin="352" xMax="836" yMax="1065">
      <contour>
        <pt x="123" y="709" on="1"/>
        <pt x="123" y="783" on="0"/>
        <pt x="179" y="912" on="0"/>
        <pt x="276" y="1009" on="0"/>
        <pt x="406" y="1065" on="0"/>
        <pt x="479" y="1065" on="1"/>
        <pt x="553" y="1065" on="0"/>
        <pt x="683" y="1009" on="0"/>
        <pt x="780" y="912" on="0"/>
        <pt x="836" y="783" on="0"/>
        <pt x="836" y="709" on="1"/>
        <pt x="836" y="635" on="0"/>
        <pt x="780" y="505" on="0"/>
        <pt x="683" y="408" on="0"/>
        <pt x="553" y="352" on="0"/>
        <pt x="479" y="352" on="1"/>
        <pt x="406" y="352" on="0"/>
        <pt x="276" y="408" on="0"/>
        <pt x="179" y="505" on="0"/>
        <pt x="123" y="635" on="0"/>
      </contour>
    </TTGlyph>
    <TTGlyph name="c" xMin="164" yMin="0" xMax="1065" yMax="1065">
      <contour>
        <pt x="360" y="868" on="1"/>
        <pt x="360" y="197" on="1"/>
        <pt x="868" y="197" on="1"/>
        <pt x="868" y="377" on="1"/>
        <pt x="1065" y="377" on="1"/>
        <pt x="1065" y="197" on="1"/>
        <pt x="1065" y="156" on="0"/>
        <pt x="1034" y="84" on="0"/>
        <pt x="981" y="31" on="0"/>
        <pt x="909" y="0" on="0"/>
        <pt x="868" y="0" on="1"/>
        <pt x="360" y="0" on="1"/>
        <pt x="320" y="0" on="0"/>
        <pt x="248" y="31" on="0"/>
        <pt x="195" y="84" on="0"/>
        <pt x="164" y="156" on="0"/>
        <pt x="164" y="197" on="1"/>
        <pt x="164" y="868" on="1"/>
        <pt x="164" y="909" on="0"/>
        <pt x="195" y="981" on="0"/>
        <pt x="248" y="1034" on="0"/>
        <pt x="320" y="1065" on="0"/>
        <pt x="360" y="1065" on="1"/>
        <pt x="868" y="1065" on="1"/>
        <pt x="909" y="1065" on="0"/>
        <pt x="981" y="1034" on="0"/>
        <pt x="1034" y="981" on="0"/>
        <pt x="1065" y="909" on="0"/>
        <pt x="1065" y="868" on="1"/>
        <pt x="1065" y="688" on="1"/>
        <pt x="868" y="688" on="1"/>
        <pt x="868" y="868" on="1"/>
      </contour>
    </TTGlyph>
    <TTGlyph name="caron" xMin="123" yMin="1249" xMax="844" yMax="1495">
      <contour>
        <pt x="123" y="1495" on="1"/>
        <pt x="332" y="1495" on="1"/>
        <pt x="483" y="1358" on="1"/>
        <pt x="635" y="1495" on="1"/>
        <pt x="844" y="1495" on="1"/>
        <pt x="606" y="1249" on="1"/>
        <pt x="360" y="1249" on="1"/>
      </contour>
    </TTGlyph>
    <TTGlyph name="caron.cap" xMin="123" yMin="1618" xMax="844" yMax="1864">
      <contour>
        <pt x="123" y="1864" on="1"/>
        <pt x="332" y="1864" on="1"/>
        <pt x="483" y="1726" on="1"/>
        <pt x="635" y="1864" on="1"/>
        <pt x="844" y="1864" on="1"/>
        <pt x="606" y="1618" on="1"/>
        <pt x="360" y="1618" on="1"/>
      </contour>
    </TTGlyph>
    <TTGlyph name="ccedilla" xMin="164" yMin="-526" xMax="1065" yMax="1065">
      <contour>
        <pt x="408" y="-231" on="1"/>
        <pt x="573" y="0" on="1"/>
        <pt x="360" y="0" on="1"/>
        <pt x="320" y="0" on="0"/>
        <pt x="248" y="31" on="0"/>
        <pt x="195" y="84" on="0"/>
        <pt x="164" y="156" on="0"/>
        <pt x="164" y="197" on="1"/>
        <pt x="164" y="868" on="1"/>
        <pt x="164" y="909" on="0"/>
        <pt x="195" y="981" on="0"/>
        <pt x="248" y="1034" on="0"/>
        <pt x="320" y="1065" on="0"/>
        <pt x="360" y="1065" on="1"/>
        <pt x="868" y="1065" on="1"/>
        <pt x="909" y="1065" on="0"/>
        <pt x="981" y="1034" on="0"/>
        <pt x="1034" y="981" on="0"/>
        <pt x="1065" y="909" on="0"/>
        <pt x="1065" y="868" on="1"/>
        <pt x="1065" y="688" on="1"/>
        <pt x="868" y="688" on="1"/>
        <pt x="868" y="868" on="1"/>
        <pt x="360" y="868" on="1"/>
        <pt x="360" y="197" on="1"/>
        <pt x="868" y="197" on="1"/>
        <pt x="868" y="377" on="1"/>
        <pt x="1065" y="377" on="1"/>
        <pt x="1065" y="197" on="1"/>
        <pt x="1065" y="156" on="0"/>
        <pt x="1034" y="84" on="0"/>
        <pt x="981" y="31" on="0"/>
        <pt x="909" y="0" on="0"/>
        <pt x="868" y="0" on="1"/>
        <pt x="719" y="0" on="1"/>
        <pt x="655" y="-92" on="1"/>
        <pt x="684" y="-92" on="0"/>
        <pt x="735" y="-114" on="0"/>
        <pt x="773" y="-152" on="0"/>
        <pt x="795" y="-203" on="0"/>
        <pt x="795" y="-231" on="1"/>
        <pt x="795" y="-387" on="1"/>
        <pt x="795" y="-416" on="0"/>
        <pt x="773" y="-466" on="0"/>
        <pt x="735" y="-504" on="0"/>
        <pt x="684" y="-526" on="0"/>
        <pt x="655" y="-526" on="1"/>
        <pt x="391" y="-526" on="1"/>
        <pt x="391" y="-387" on="1"/>
        <pt x="655" y="-387" on="1"/>
        <pt x="655" y="-231" on="1"/>
      </contour>
    </TTGlyph>
    <TTGlyph name="cedilla" xMin="266" yMin="-526" xMax="670" yMax="66">
      <contour>
        <pt x="283" y="-231" on="1"/>
        <pt x="496" y="66" on="1"/>
        <pt x="641" y="66" on="1"/>
        <pt x="530" y="-92" on="1"/>
        <pt x="559" y="-92" on="0"/>
        <pt x="610" y="-114" on="0"/>
        <pt x="648" y="-152" on="0"/>
        <pt x="670" y="-203" on="0"/>
        <pt x="670" y="-231" on="1"/>
        <pt x="670" y="-387" on="1"/>
        <pt x="670" y="-416" on="0"/>
        <pt x="648" y="-466" on="0"/>
        <pt x="610" y="-504" on="0"/>
        <pt x="559" y="-526" on="0"/>
        <pt x="530" y="-526" on="1"/>
        <pt x="266" y="-526" on="1"/>
        <pt x="266" y="-387" on="1"/>
        <pt x="530" y="-387" on="1"/>
        <pt x="530" y="-231" on="1"/>
      </contour>
    </TTGlyph>
    <TTGlyph name="cent" xMin="164" yMin="-223" xMax="1065" yMax="1288">
      <contour>
        <pt x="360" y="868" on="1"/>
        <pt x="360" y="197" on="1"/>
        <pt x="868" y="197" on="1"/>
        <pt x="868" y="377" on="1"/>
        <pt x="1065" y="377" on="1"/>
        <pt x="1065" y="197" on="1"/>
        <pt x="1065" y="156" on="0"/>
        <pt x="1034" y="84" on="0"/>
        <pt x="981" y="31" on="0"/>
        <pt x="909" y="0" on="0"/>
        <pt x="868" y="0" on="1"/>
        <pt x="713" y="0" on="1"/>
        <pt x="713" y="-223" on="1"/>
        <pt x="516" y="-223" on="1"/>
        <pt x="516" y="0" on="1"/>
        <pt x="360" y="0" on="1"/>
        <pt x="320" y="0" on="0"/>
        <pt x="248" y="31" on="0"/>
        <pt x="195" y="84" on="0"/>
        <pt x="164" y="156" on="0"/>
        <pt x="164" y="197" on="1"/>
        <pt x="164" y="868" on="1"/>
        <pt x="164" y="909" on="0"/>
        <pt x="195" y="981" on="0"/>
        <pt x="248" y="1034" on="0"/>
        <pt x="320" y="1065" on="0"/>
        <pt x="360" y="1065" on="1"/>
        <pt x="516" y="1065" on="1"/>
        <pt x="516" y="1288" on="1"/>
        <pt x="713" y="1288" on="1"/>
        <pt x="713" y="1065" on="1"/>
        <pt x="868" y="1065" on="1"/>
        <pt x="909" y="1065" on="0"/>
        <pt x="981" y="1034" on="0"/>
        <pt x="1034" y="981" on="0"/>
        <pt x="1065" y="909" on="0"/>
        <pt x="1065" y="868" on="1"/>
        <pt x="1065" y="688" on="1"/>
        <pt x="868" y="688" on="1"/>
        <pt x="868" y="868" on="1"/>
      </contour>
    </TTGlyph>
    <TTGlyph name="circumflex" xMin="123" yMin="1249" xMax="844" yMax="1495">
      <contour>
        <pt x="844" y="1249" on="1"/>
        <pt x="635" y="1249" on="1"/>
        <pt x="483" y="1384" on="1"/>
        <pt x="332" y="1249" on="1"/>
        <pt x="123" y="1249" on="1"/>
        <pt x="360" y="1495" on="1"/>
        <pt x="606" y="1495" on="1"/>
      </contour>
    </TTGlyph>
    <TTGlyph name="circumflex.cap" xMin="123" yMin="1618" xMax="844" yMax="1864">
      <contour>
        <pt x="844" y="1618" on="1"/>
        <pt x="635" y="1618" on="1"/>
        <pt x="483" y="1753" on="1"/>
        <pt x="332" y="1618" on="1"/>
        <pt x="123" y="1618" on="1"/>
        <pt x="360" y="1864" on="1"/>
        <pt x="606" y="1864" on="1"/>
      </contour>
    </TTGlyph>
    <TTGlyph name="colon" xMin="164" yMin="0" xMax="463" yMax="1065">
      <contour>
        <pt x="164" y="299" on="1"/>
        <pt x="463" y="299" on="1"/>
        <pt x="463" y="0" on="1"/>
        <pt x="164" y="0" on="1"/>
      </contour>
      <contour>
        <pt x="164" y="1065" on="1"/>
        <pt x="463" y="1065" on="1"/>
        <pt x="463" y="766" on="1"/>
        <pt x="164" y="766" on="1"/>
      </contour>
    </TTGlyph>
    <TTGlyph name="comma" xMin="164" yMin="-305" xMax="463" yMax="299">
      <contour>
        <pt x="309" y="-305" on="1"/>
        <pt x="164" y="-305" on="1"/>
        <pt x="311" y="0" on="1"/>
        <pt x="164" y="0" on="1"/>
        <pt x="164" y="299" on="1"/>
        <pt x="463" y="299" on="1"/>
        <pt x="463" y="0" on="1"/>
      </contour>
    </TTGlyph>
    <TTGlyph name="commaaccent" xMin="123" yMin="-809" xMax="422" yMax="-205">
      <contour>
        <pt x="268" y="-809" on="1"/>
        <pt x="123" y="-809" on="1"/>
        <pt x="270" y="-504" on="1"/>
        <pt x="123" y="-504" on="1"/>
        <pt x="123" y="-205" on="1"/>
        <pt x="422" y="-205" on="1"/>
        <pt x="422" y="-504" on="1"/>
      </contour>
    </TTGlyph>
    <TTGlyph name="copyright" xMin="102" yMin="-20" xMax="1577" yMax="1454">
      <contour>
        <pt x="102" y="717" on="1"/>
        <pt x="102" y="878" on="0"/>
        <pt x="212" y="1148" on="0"/>
        <pt x="409" y="1344" on="0"/>
        <pt x="680" y="1454" on="0"/>
        <pt x="840" y="1454" on="1"/>
        <pt x="1001" y="1454" on="0"/>
        <pt x="1271" y="1344" on="0"/>
        <pt x="1467" y="1148" on="0"/>
        <pt x="1577" y="878" on="0"/>
        <pt x="1577" y="717" on="1"/>
        <pt x="1577" y="557" on="0"/>
        <pt x="1467" y="286" on="0"/>
        <pt x="1271" y="90" on="0"/>
        <pt x="1001" y="-20" on="0"/>
        <pt x="840" y="-20" on="1"/>
        <pt x="680" y="-20" on="0"/>
        <pt x="409" y="90" on="0"/>
        <pt x="212" y="286" on="0"/>
        <pt x="102" y="557" on="0"/>
      </contour>
      <contour>
        <pt x="840" y="121" on="1"/>
        <pt x="971" y="121" on="0"/>
        <pt x="1188" y="209" on="0"/>
        <pt x="1344" y="367" on="0"/>
        <pt x="1430" y="586" on="0"/>
        <pt x="1430" y="717" on="1"/>
        <pt x="1430" y="848" on="0"/>
        <pt x="1344" y="1067" on="0"/>
        <pt x="1188" y="1225" on="0"/>
        <pt x="971" y="1313" on="0"/>
        <pt x="840" y="1313" on="1"/>
        <pt x="708" y="1313" on="0"/>
        <pt x="491" y="1225" on="0"/>
        <pt x="336" y="1067" on="0"/>
        <pt x="250" y="848" on="0"/>
        <pt x="250" y="717" on="1"/>
        <pt x="250" y="586" on="0"/>
        <pt x="336" y="367" on="0"/>
        <pt x="491" y="209" on="0"/>
        <pt x="708" y="121" on="0"/>
      </contour>
      <contour>
        <pt x="518" y="999" on="1"/>
        <pt x="518" y="1022" on="0"/>
        <pt x="536" y="1063" on="0"/>
        <pt x="567" y="1094" on="0"/>
        <pt x="608" y="1112" on="0"/>
        <pt x="631" y="1112" on="1"/>
        <pt x="1040" y="1112" on="1"/>
        <pt x="1063" y="1112" on="0"/>
        <pt x="1104" y="1094" on="0"/>
        <pt x="1135" y="1063" on="0"/>
        <pt x="1153" y="1022" on="0"/>
        <pt x="1153" y="999" on="1"/>
        <pt x="1153" y="870" on="1"/>
        <pt x="1014" y="870" on="1"/>
        <pt x="1014" y="973" on="1"/>
        <pt x="657" y="973" on="1"/>
        <pt x="657" y="461" on="1"/>
        <pt x="1014" y="461" on="1"/>
        <pt x="1014" y="563" on="1"/>
        <pt x="1153" y="563" on="1"/>
        <pt x="1153" y="434" on="1"/>
        <pt x="1153" y="411" on="0"/>
        <pt x="1135" y="370" on="0"/>
        <pt x="1104" y="340" on="0"/>
        <pt x="1063" y="322" on="0"/>
        <pt x="1040" y="322" on="1"/>
        <pt x="631" y="322" on="1"/>
        <pt x="608" y="322" on="0"/>
        <pt x="567" y="340" on="0"/>
        <pt x="536" y="370" on="0"/>
        <pt x="518" y="411" on="0"/>
        <pt x="518" y="434" on="1"/>
      </contour>
    </TTGlyph>
    <TTGlyph name="currency" xMin="143" yMin="199" xMax="1176" yMax="1231">
      <contour>
        <pt x="1049" y="199" on="1"/>
        <pt x="891" y="354" on="1"/>
        <pt x="840" y="322" on="0"/>
        <pt x="722" y="287" on="0"/>
        <pt x="659" y="287" on="1"/>
        <pt x="594" y="287" on="0"/>
        <pt x="478" y="324" on="0"/>
        <pt x="428" y="356" on="1"/>
        <pt x="270" y="199" on="1"/>
        <pt x="143" y="326" on="1"/>
        <pt x="301" y="483" on="1"/>
        <pt x="269" y="533" on="0"/>
        <pt x="231" y="650" on="0"/>
        <pt x="231" y="715" on="1"/>
        <pt x="231" y="778" on="0"/>
        <pt x="267" y="897" on="0"/>
        <pt x="299" y="946" on="1"/>
        <pt x="143" y="1104" on="1"/>
        <pt x="270" y="1231" on="1"/>
        <pt x="428" y="1073" on="1"/>
        <pt x="478" y="1105" on="0"/>
        <pt x="594" y="1143" on="0"/>
        <pt x="659" y="1143" on="1"/>
        <pt x="722" y="1143" on="0"/>
        <pt x="841" y="1105" on="0"/>
        <pt x="891" y="1073" on="1"/>
        <pt x="1049" y="1231" on="1"/>
        <pt x="1176" y="1104" on="1"/>
        <pt x="1018" y="946" on="1"/>
        <pt x="1050" y="897" on="0"/>
        <pt x="1087" y="778" on="0"/>
        <pt x="1087" y="715" on="1"/>
        <pt x="1087" y="650" on="0"/>
        <pt x="1050" y="533" on="0"/>
        <pt x="1018" y="483" on="1"/>
        <pt x="1176" y="326" on="1"/>
      </contour>
      <contour>
        <pt x="420" y="715" on="1"/>
        <pt x="420" y="665" on="0"/>
        <pt x="457" y="576" on="0"/>
        <pt x="522" y="510" on="0"/>
        <pt x="609" y="471" on="0"/>
        <pt x="659" y="471" on="1"/>
        <pt x="709" y="471" on="0"/>
        <pt x="797" y="510" on="0"/>
        <pt x="862" y="576" on="0"/>
        <pt x="899" y="665" on="0"/>
        <pt x="899" y="715" on="1"/>
        <pt x="899" y="765" on="0"/>
        <pt x="862" y="853" on="0"/>
        <pt x="797" y="919" on="0"/>
        <pt x="709" y="958" on="0"/>
        <pt x="659" y="958" on="1"/>
        <pt x="609" y="958" on="0"/>
        <pt x="522" y="919" on="0"/>
        <pt x="457" y="853" on="0"/>
        <pt x="420" y="765" on="0"/>
      </contour>
    </TTGlyph>
    <TTGlyph name="d" xMin="164" yMin="0" xMax="1106" yMax="1475">
      <contour>
        <pt x="164" y="868" on="1"/>
        <pt x="164" y="909" on="0"/>
        <pt x="195" y="981" on="0"/>
        <pt x="248" y="1034" on="0"/>
        <pt x="320" y="1065" on="0"/>
        <pt x="360" y="1065" on="1"/>
        <pt x="909" y="1065" on="1"/>
        <pt x="909" y="1475" on="1"/>
        <pt x="1106" y="1475" on="1"/>
        <pt x="1106" y="0" on="1"/>
        <pt x="909" y="0" on="1"/>
        <pt x="909" y="180" on="1"/>
        <pt x="906" y="143" on="0"/>
        <pt x="872" y="77" on="0"/>
        <pt x="819" y="28" on="0"/>
        <pt x="751" y="0" on="0"/>
        <pt x="713" y="0" on="1"/>
        <pt x="360" y="0" on="1"/>
        <pt x="320" y="0" on="0"/>
        <pt x="248" y="31" on="0"/>
        <pt x="195" y="84" on="0"/>
        <pt x="164" y="156" on="0"/>
        <pt x="164" y="197" on="1"/>
      </contour>
      <contour>
        <pt x="360" y="197" on="1"/>
        <pt x="909" y="197" on="1"/>
        <pt x="909" y="868" on="1"/>
        <pt x="360" y="868" on="1"/>
      </contour>
    </TTGlyph>
    <TTGlyph name="dagger" xMin="123" yMin="-430" xMax="1118" yMax="1434">
      <contour>
        <pt x="719" y="1434" on="1"/>
        <pt x="719" y="1024" on="1"/>
        <pt x="1118" y="1024" on="1"/>
        <pt x="1118" y="827" on="1"/>
        <pt x="719" y="827" on="1"/>
        <pt x="719" y="-430" on="1"/>
        <pt x="522" y="-430" on="1"/>
        <pt x="522" y="827" on="1"/>
        <pt x="123" y="827" on="1"/>
        <pt x="123" y="1024" on="1"/>
        <pt x="522" y="1024" on="1"/>
        <pt x="522" y="1434" on="1"/>
      </contour>
    </TTGlyph>
    <TTGlyph name="daggerdbl" xMin="123" yMin="-430" xMax="1118" yMax="1434">
      <contour>
        <pt x="719" y="1434" on="1"/>
        <pt x="719" y="1024" on="1"/>
        <pt x="1118" y="1024" on="1"/>
        <pt x="1118" y="827" on="1"/>
        <pt x="719" y="827" on="1"/>
        <pt x="719" y="176" on="1"/>
        <pt x="1118" y="176" on="1"/>
        <pt x="1118" y="-20" on="1"/>
        <pt x="719" y="-20" on="1"/>
        <pt x="719" y="-430" on="1"/>
        <pt x="522" y="-430" on="1"/>
        <pt x="522" y="-20" on="1"/>
        <pt x="123" y="-20" on="1"/>
        <pt x="123" y="176" on="1"/>
        <pt x="522" y="176" on="1"/>
        <pt x="522" y="827" on="1"/>
        <pt x="123" y="827" on="1"/>
        <pt x="123" y="1024" on="1"/>
        <pt x="522" y="1024" on="1"/>
        <pt x="522" y="1434" on="1"/>
      </contour>
    </TTGlyph>
    <TTGlyph name="degree" xMin="123" yMin="803" xMax="774" yMax="1454">
      <contour>
        <pt x="123" y="1128" on="1"/>
        <pt x="123" y="1195" on="0"/>
        <pt x="175" y="1314" on="0"/>
        <pt x="263" y="1402" on="0"/>
        <pt x="382" y="1454" on="0"/>
        <pt x="449" y="1454" on="1"/>
        <pt x="516" y="1454" on="0"/>
        <pt x="634" y="1402" on="0"/>
        <pt x="723" y="1314" on="0"/>
        <pt x="774" y="1195" on="0"/>
        <pt x="774" y="1128" on="1"/>
        <pt x="774" y="1061" on="0"/>
        <pt x="723" y="943" on="0"/>
        <pt x="634" y="855" on="0"/>
        <pt x="516" y="803" on="0"/>
        <pt x="449" y="803" on="1"/>
        <pt x="382" y="803" on="0"/>
        <pt x="263" y="855" on="0"/>
        <pt x="175" y="943" on="0"/>
        <pt x="123" y="1061" on="0"/>
      </contour>
      <contour>
        <pt x="283" y="1128" on="1"/>
        <pt x="283" y="1093" on="0"/>
        <pt x="308" y="1030" on="0"/>
        <pt x="353" y="983" on="0"/>
        <pt x="413" y="956" on="0"/>
        <pt x="449" y="956" on="1"/>
        <pt x="484" y="956" on="0"/>
        <pt x="545" y="983" on="0"/>
        <pt x="589" y="1030" on="0"/>
        <pt x="614" y="1093" on="0"/>
        <pt x="614" y="1128" on="1"/>
        <pt x="614" y="1164" on="0"/>
        <pt x="589" y="1226" on="0"/>
        <pt x="545" y="1273" on="0"/>
        <pt x="484" y="1300" on="0"/>
        <pt x="449" y="1300" on="1"/>
        <pt x="413" y="1300" on="0"/>
        <pt x="353" y="1273" on="0"/>
        <pt x="308" y="1226" on="0"/>
        <pt x="283" y="1164" on="0"/>
      </contour>
    </TTGlyph>
    <TTGlyph name="dieresis" xMin="123" yMin="1249" xMax="756" yMax="1466">
      <contour>
        <pt x="539" y="1466" on="1"/>
        <pt x="756" y="1466" on="1"/>
        <pt x="756" y="1249" on="1"/>
        <pt x="539" y="1249" on="1"/>
      </contour>
      <contour>
        <pt x="123" y="1466" on="1"/>
        <pt x="340" y="1466" on="1"/>
        <pt x="340" y="1249" on="1"/>
        <pt x="123" y="1249" on="1"/>
      </contour>
    </TTGlyph>
    <TTGlyph name="dieresis.cap" xMin="123" yMin="1618" xMax="756" yMax="1835">
      <contour>
        <pt x="539" y="1835" on="1"/>
        <pt x="756" y="1835" on="1"/>
        <pt x="756" y="1618" on="1"/>
        <pt x="539" y="1618" on="1"/>
      </contour>
      <contour>
        <pt x="123" y="1835" on="1"/>
        <pt x="340" y="1835" on="1"/>
        <pt x="340" y="1618" on="1"/>
        <pt x="123" y="1618" on="1"/>
      </contour>
    </TTGlyph>
    <TTGlyph name="divide" xMin="164" yMin="33" xMax="1282" yMax="1122">
      <contour>
        <pt x="164" y="676" on="1"/>
        <pt x="1282" y="676" on="1"/>
        <pt x="1282" y="479" on="1"/>
        <pt x="164" y="479" on="1"/>
      </contour>
      <contour>
        <pt x="588" y="1122" on="1"/>
        <pt x="858" y="1122" on="1"/>
        <pt x="858" y="852" on="1"/>
        <pt x="588" y="852" on="1"/>
      </contour>
      <contour>
        <pt x="588" y="303" on="1"/>
        <pt x="858" y="303" on="1"/>
        <pt x="858" y="33" on="1"/>
        <pt x="588" y="33" on="1"/>
      </contour>
    </TTGlyph>
    <TTGlyph name="dollar" xMin="143" yMin="-205" xMax="1270" yMax="1638">
      <contour>
        <pt x="143" y="389" on="1"/>
        <pt x="342" y="389" on="1"/>
        <pt x="342" y="205" on="1"/>
        <pt x="625" y="205" on="1"/>
        <pt x="625" y="614" on="1"/>
        <pt x="369" y="614" on="1"/>
        <pt x="327" y="614" on="0"/>
        <pt x="252" y="647" on="0"/>
        <pt x="196" y="702" on="0"/>
        <pt x="164" y="777" on="0"/>
        <pt x="164" y="819" on="1"/>
        <pt x="164" y="1229" on="1"/>
        <pt x="164" y="1271" on="0"/>
        <pt x="196" y="1346" on="0"/>
        <pt x="252" y="1401" on="0"/>
        <pt x="327" y="1434" on="0"/>
        <pt x="369" y="1434" on="1"/>
        <pt x="625" y="1434" on="1"/>
        <pt x="625" y="1638" on="1"/>
        <pt x="809" y="1638" on="1"/>
        <pt x="809" y="1434" on="1"/>
        <pt x="1065" y="1434" on="1"/>
        <pt x="1107" y="1434" on="0"/>
        <pt x="1182" y="1401" on="0"/>
        <pt x="1238" y="1346" on="0"/>
        <pt x="1270" y="1271" on="0"/>
        <pt x="1270" y="1229" on="1"/>
        <pt x="1270" y="1044" on="1"/>
        <pt x="1071" y="1044" on="1"/>
        <pt x="1071" y="1229" on="1"/>
        <pt x="809" y="1229" on="1"/>
        <pt x="809" y="819" on="1"/>
        <pt x="1065" y="819" on="1"/>
        <pt x="1107" y="819" on="0"/>
        <pt x="1182" y="787" on="0"/>
        <pt x="1238" y="731" on="0"/>
        <pt x="1270" y="656" on="0"/>
        <pt x="1270" y="614" on="1"/>
        <pt x="1270" y="205" on="1"/>
        <pt x="1270" y="163" on="0"/>
        <pt x="1238" y="88" on="0"/>
        <pt x="1182" y="32" on="0"/>
        <pt x="1107" y="0" on="0"/>
        <pt x="1065" y="0" on="1"/>
        <pt x="809" y="0" on="1"/>
        <pt x="809" y="-205" on="1"/>
        <pt x="625" y="-205" on="1"/>
        <pt x="625" y="0" on="1"/>
        <pt x="348" y="0" on="1"/>
        <pt x="306" y="0" on="0"/>
        <pt x="231" y="32" on="0"/>
        <pt x="176" y="88" on="0"/>
        <pt x="143" y="163" on="0"/>
        <pt x="143" y="205" on="1"/>
      </contour>
      <contour>
        <pt x="362" y="819" on="1"/>
        <pt x="625" y="819" on="1"/>
        <pt x="625" y="1229" on="1"/>
        <pt x="362" y="1229" on="1"/>
      </contour>
      <contour>
        <pt x="809" y="614" on="1"/>
        <pt x="809" y="205" on="1"/>
        <pt x="1071" y="205" on="1"/>
        <pt x="1071" y="614" on="1"/>
      </contour>
    </TTGlyph>
    <TTGlyph name="dotaccent" xMin="123" yMin="1249" xMax="381" yMax="1507">
      <contour>
        <pt x="123" y="1507" on="1"/>
        <pt x="381" y="1507" on="1"/>
        <pt x="381" y="1249" on="1"/>
        <pt x="123" y="1249" on="1"/>
      </contour>
    </TTGlyph>
    <TTGlyph name="dotaccentcmb" xMin="123" yMin="1249" xMax="381" yMax="1507">
      <contour>
        <pt x="123" y="1507" on="1"/>
        <pt x="381" y="1507" on="1"/>
        <pt x="381" y="1249" on="1"/>
        <pt x="123" y="1249" on="1"/>
      </contour>
    </TTGlyph>
    <TTGlyph name="dotlessi" xMin="174" yMin="0" xMax="371" yMax="1065">
      <contour>
        <pt x="371" y="1065" on="1"/>
        <pt x="371" y="0" on="1"/>
        <pt x="174" y="0" on="1"/>
        <pt x="174" y="1065" on="1"/>
      </contour>
    </TTGlyph>
    <TTGlyph name="dotlessj" xMin="20" yMin="-430" xMax="371" yMax="1065">
      <contour>
        <pt x="174" y="-233" on="1"/>
        <pt x="174" y="1065" on="1"/>
        <pt x="371" y="1065" on="1"/>
        <pt x="371" y="-233" on="1"/>
        <pt x="371" y="-274" on="0"/>
        <pt x="340" y="-346" on="0"/>
        <pt x="287" y="-399" on="0"/>
        <pt x="215" y="-430" on="0"/>
        <pt x="174" y="-430" on="1"/>
        <pt x="20" y="-430" on="1"/>
        <pt x="20" y="-233" on="1"/>
      </contour>
    </TTGlyph>
    <TTGlyph name="e" xMin="164" yMin="0" xMax="1065" yMax="1065">
      <contour>
        <pt x="1065" y="432" on="1"/>
        <pt x="360" y="432" on="1"/>
        <pt x="360" y="197" on="1"/>
        <pt x="1065" y="197" on="1"/>
        <pt x="1065" y="0" on="1"/>
        <pt x="360" y="0" on="1"/>
        <pt x="320" y="0" on="0"/>
        <pt x="248" y="31" on="0"/>
        <pt x="195" y="84" on="0"/>
        <pt x="164" y="156" on="0"/>
        <pt x="164" y="197" on="1"/>
        <pt x="164" y="868" on="1"/>
        <pt x="164" y="909" on="0"/>
        <pt x="195" y="981" on="0"/>
        <pt x="248" y="1034" on="0"/>
        <pt x="320" y="1065" on="0"/>
        <pt x="360" y="1065" on="1"/>
        <pt x="868" y="1065" on="1"/>
        <pt x="909" y="1065" on="0"/>
        <pt x="981" y="1034" on="0"/>
        <pt x="1034" y="981" on="0"/>
        <pt x="1065" y="909" on="0"/>
        <pt x="1065" y="868" on="1"/>
      </contour>
      <contour>
        <pt x="360" y="868" on="1"/>
        <pt x="360" y="629" on="1"/>
        <pt x="868" y="629" on="1"/>
        <pt x="868" y="868" on="1"/>
      </contour>
    </TTGlyph>
    <TTGlyph name="eacute" xMin="164" yMin="0" xMax="1065" yMax="1475">
      <contour>
        <pt x="1065" y="432" on="1"/>
        <pt x="360" y="432" on="1"/>
        <pt x="360" y="197" on="1"/>
        <pt x="1065" y="197" on="1"/>
        <pt x="1065" y="0" on="1"/>
        <pt x="360" y="0" on="1"/>
        <pt x="320" y="0" on="0"/>
        <pt x="248" y="31" on="0"/>
        <pt x="195" y="84" on="0"/>
        <pt x="164" y="156" on="0"/>
        <pt x="164" y="197" on="1"/>
        <pt x="164" y="868" on="1"/>
        <pt x="164" y="909" on="0"/>
        <pt x="195" y="981" on="0"/>
        <pt x="248" y="1034" on="0"/>
        <pt x="320" y="1065" on="0"/>
        <pt x="360" y="1065" on="1"/>
        <pt x="868" y="1065" on="1"/>
        <pt x="909" y="1065" on="0"/>
        <pt x="981" y="1034" on="0"/>
        <pt x="1034" y="981" on="0"/>
        <pt x="1065" y="909" on="0"/>
        <pt x="1065" y="868" on="1"/>
      </contour>
      <contour>
        <pt x="360" y="868" on="1"/>
        <pt x="360" y="629" on="1"/>
        <pt x="868" y="629" on="1"/>
        <pt x="868" y="868" on="1"/>
      </contour>
      <contour>
        <pt x="659" y="1475" on="1"/>
        <pt x="958" y="1475" on="1"/>
        <pt x="621" y="1249" on="1"/>
        <pt x="432" y="1249" on="1"/>
      </contour>
    </TTGlyph>
    <TTGlyph name="ecircumflex" xMin="164" yMin="0" xMax="1065" yMax="1495">
      <contour>
        <pt x="1065" y="432" on="1"/>
        <pt x="360" y="432" on="1"/>
        <pt x="360" y="197" on="1"/>
        <pt x="1065" y="197" on="1"/>
        <pt x="1065" y="0" on="1"/>
        <pt x="360" y="0" on="1"/>
        <pt x="320" y="0" on="0"/>
        <pt x="248" y="31" on="0"/>
        <pt x="195" y="84" on="0"/>
        <pt x="164" y="156" on="0"/>
        <pt x="164" y="197" on="1"/>
        <pt x="164" y="868" on="1"/>
        <pt x="164" y="909" on="0"/>
        <pt x="195" y="981" on="0"/>
        <pt x="248" y="1034" on="0"/>
        <pt x="320" y="1065" on="0"/>
        <pt x="360" y="1065" on="1"/>
        <pt x="868" y="1065" on="1"/>
        <pt x="909" y="1065" on="0"/>
        <pt x="981" y="1034" on="0"/>
        <pt x="1034" y="981" on="0"/>
        <pt x="1065" y="909" on="0"/>
        <pt x="1065" y="868" on="1"/>
      </contour>
      <contour>
        <pt x="360" y="868" on="1"/>
        <pt x="360" y="629" on="1"/>
        <pt x="868" y="629" on="1"/>
        <pt x="868" y="868" on="1"/>
      </contour>
      <contour>
        <pt x="975" y="1249" on="1"/>
        <pt x="766" y="1249" on="1"/>
        <pt x="614" y="1384" on="1"/>
        <pt x="463" y="1249" on="1"/>
        <pt x="254" y="1249" on="1"/>
        <pt x="492" y="1495" on="1"/>
        <pt x="737" y="1495" on="1"/>
      </contour>
    </TTGlyph>
    <TTGlyph name="edieresis" xMin="164" yMin="0" xMax="1065" yMax="1466">
      <contour>
        <pt x="1065" y="432" on="1"/>
        <pt x="360" y="432" on="1"/>
        <pt x="360" y="197" on="1"/>
        <pt x="1065" y="197" on="1"/>
        <pt x="1065" y="0" on="1"/>
        <pt x="360" y="0" on="1"/>
        <pt x="320" y="0" on="0"/>
        <pt x="248" y="31" on="0"/>
        <pt x="195" y="84" on="0"/>
        <pt x="164" y="156" on="0"/>
        <pt x="164" y="197" on="1"/>
        <pt x="164" y="868" on="1"/>
        <pt x="164" y="909" on="0"/>
        <pt x="195" y="981" on="0"/>
        <pt x="248" y="1034" on="0"/>
        <pt x="320" y="1065" on="0"/>
        <pt x="360" y="1065" on="1"/>
        <pt x="868" y="1065" on="1"/>
        <pt x="909" y="1065" on="0"/>
        <pt x="981" y="1034" on="0"/>
        <pt x="1034" y="981" on="0"/>
        <pt x="1065" y="909" on="0"/>
        <pt x="1065" y="868" on="1"/>
      </contour>
      <contour>
        <pt x="360" y="868" on="1"/>
        <pt x="360" y="629" on="1"/>
        <pt x="868" y="629" on="1"/>
        <pt x="868" y="868" on="1"/>
      </contour>
      <contour>
        <pt x="713" y="1466" on="1"/>
        <pt x="930" y="1466" on="1"/>
        <pt x="930" y="1249" on="1"/>
        <pt x="713" y="1249" on="1"/>
      </contour>
      <contour>
        <pt x="297" y="1466" on="1"/>
        <pt x="514" y="1466" on="1"/>
        <pt x="514" y="1249" on="1"/>
        <pt x="297" y="1249" on="1"/>
      </contour>
    </TTGlyph>
    <TTGlyph name="egrave" xMin="164" yMin="0" xMax="1065" yMax="1475">
      <contour>
        <pt x="1065" y="432" on="1"/>
        <pt x="360" y="432" on="1"/>
        <pt x="360" y="197" on="1"/>
        <pt x="1065" y="197" on="1"/>
        <pt x="1065" y="0" on="1"/>
        <pt x="360" y="0" on="1"/>
        <pt x="320" y="0" on="0"/>
        <pt x="248" y="31" on="0"/>
        <pt x="195" y="84" on="0"/>
        <pt x="164" y="156" on="0"/>
        <pt x="164" y="197" on="1"/>
        <pt x="164" y="868" on="1"/>
        <pt x="164" y="909" on="0"/>
        <pt x="195" y="981" on="0"/>
        <pt x="248" y="1034" on="0"/>
        <pt x="320" y="1065" on="0"/>
        <pt x="360" y="1065" on="1"/>
        <pt x="868" y="1065" on="1"/>
        <pt x="909" y="1065" on="0"/>
        <pt x="981" y="1034" on="0"/>
        <pt x="1034" y="981" on="0"/>
        <pt x="1065" y="909" on="0"/>
        <pt x="1065" y="868" on="1"/>
      </contour>
      <contour>
        <pt x="360" y="868" on="1"/>
        <pt x="360" y="629" on="1"/>
        <pt x="868" y="629" on="1"/>
        <pt x="868" y="868" on="1"/>
      </contour>
      <contour>
        <pt x="795" y="1249" on="1"/>
        <pt x="606" y="1249" on="1"/>
        <pt x="268" y="1475" on="1"/>
        <pt x="567" y="1475" on="1"/>
      </contour>
    </TTGlyph>
    <TTGlyph name="eight" xMin="143" yMin="0" xMax="1266" yMax="1434">
      <contour>
        <pt x="905" y="825" on="1"/>
        <pt x="980" y="828" on="0"/>
        <pt x="1044" y="903" on="0"/>
        <pt x="1044" y="981" on="1"/>
        <pt x="1044" y="1075" on="1"/>
        <pt x="1044" y="1157" on="0"/>
        <pt x="972" y="1233" on="0"/>
        <pt x="891" y="1233" on="1"/>
        <pt x="518" y="1233" on="1"/>
        <pt x="437" y="1233" on="0"/>
        <pt x="365" y="1157" on="0"/>
        <pt x="365" y="1075" on="1"/>
        <pt x="365" y="981" on="1"/>
        <pt x="365" y="903" on="0"/>
        <pt x="430" y="828" on="0"/>
        <pt x="504" y="825" on="1"/>
      </contour>
      <contour>
        <pt x="911" y="201" on="1"/>
        <pt x="993" y="201" on="0"/>
        <pt x="1065" y="277" on="0"/>
        <pt x="1065" y="358" on="1"/>
        <pt x="1065" y="469" on="1"/>
        <pt x="1065" y="551" on="0"/>
        <pt x="993" y="625" on="0"/>
        <pt x="911" y="625" on="1"/>
        <pt x="498" y="625" on="1"/>
        <pt x="416" y="625" on="0"/>
        <pt x="344" y="551" on="0"/>
        <pt x="344" y="469" on="1"/>
        <pt x="344" y="358" on="1"/>
        <pt x="344" y="277" on="0"/>
        <pt x="416" y="201" on="0"/>
        <pt x="498" y="201" on="1"/>
      </contour>
      <contour>
        <pt x="492" y="0" on="1"/>
        <pt x="143" y="0" on="0"/>
        <pt x="143" y="348" on="1"/>
        <pt x="143" y="420" on="1"/>
        <pt x="143" y="554" on="0"/>
        <pt x="239" y="716" on="0"/>
        <pt x="330" y="743" on="1"/>
        <pt x="249" y="781" on="0"/>
        <pt x="164" y="938" on="0"/>
        <pt x="164" y="1059" on="1"/>
        <pt x="164" y="1085" on="1"/>
        <pt x="164" y="1434" on="0"/>
        <pt x="512" y="1434" on="1"/>
        <pt x="897" y="1434" on="1"/>
        <pt x="1245" y="1434" on="0"/>
        <pt x="1245" y="1085" on="1"/>
        <pt x="1245" y="1059" on="1"/>
        <pt x="1245" y="938" on="0"/>
        <pt x="1160" y="781" on="0"/>
        <pt x="1079" y="743" on="1"/>
        <pt x="1170" y="716" on="0"/>
        <pt x="1266" y="554" on="0"/>
        <pt x="1266" y="420" on="1"/>
        <pt x="1266" y="348" on="1"/>
        <pt x="1266" y="0" on="0"/>
        <pt x="918" y="0" on="1"/>
      </contour>
    </TTGlyph>
    <TTGlyph name="ellipsis" xMin="164" yMin="0" xMax="1470" yMax="299">
      <contour>
        <pt x="164" y="299" on="1"/>
        <pt x="463" y="299" on="1"/>
        <pt x="463" y="0" on="1"/>
        <pt x="164" y="0" on="1"/>
      </contour>
      <contour>
        <pt x="668" y="299" on="1"/>
        <pt x="967" y="299" on="1"/>
        <pt x="967" y="0" on="1"/>
        <pt x="668" y="0" on="1"/>
      </contour>
      <contour>
        <pt x="1171" y="299" on="1"/>
        <pt x="1470" y="299" on="1"/>
        <pt x="1470" y="0" on="1"/>
        <pt x="1171" y="0" on="1"/>
      </contour>
    </TTGlyph>
    <TTGlyph name="emdash" xMin="184" yMin="479" xMax="1864" yMax="676">
      <contour>
        <pt x="184" y="676" on="1"/>
        <pt x="1864" y="676" on="1"/>
        <pt x="1864" y="479" on="1"/>
        <pt x="184" y="479" on="1"/>
      </contour>
    </TTGlyph>
    <TTGlyph name="endash" xMin="184" yMin="479" xMax="1458" yMax="676">
      <contour>
        <pt x="184" y="676" on="1"/>
        <pt x="1458" y="676" on="1"/>
        <pt x="1458" y="479" on="1"/>
        <pt x="184" y="479" on="1"/>
      </contour>
    </TTGlyph>
    <TTGlyph name="equal" xMin="164" yMin="242" xMax="1282" yMax="913">
      <contour>
        <pt x="164" y="913" on="1"/>
        <pt x="1282" y="913" on="1"/>
        <pt x="1282" y="717" on="1"/>
        <pt x="164" y="717" on="1"/>
      </contour>
      <contour>
        <pt x="164" y="438" on="1"/>
        <pt x="1282" y="438" on="1"/>
        <pt x="1282" y="242" on="1"/>
        <pt x="164" y="242" on="1"/>
      </contour>
    </TTGlyph>
    <TTGlyph name="eth" xMin="164" yMin="0" xMax="1085" yMax="1565">
      <contour>
        <pt x="1085" y="197" on="1"/>
        <pt x="1085" y="156" on="0"/>
        <pt x="1054" y="84" on="0"/>
        <pt x="1001" y="31" on="0"/>
        <pt x="930" y="0" on="0"/>
        <pt x="889" y="0" on="1"/>
        <pt x="360" y="0" on="1"/>
        <pt x="320" y="0" on="0"/>
        <pt x="248" y="31" on="0"/>
        <pt x="195" y="84" on="0"/>
        <pt x="164" y="156" on="0"/>
        <pt x="164" y="197" on="1"/>
        <pt x="164" y="868" on="1"/>
        <pt x="164" y="909" on="0"/>
        <pt x="195" y="981" on="0"/>
        <pt x="248" y="1034" on="0"/>
        <pt x="320" y="1065" on="0"/>
        <pt x="360" y="1065" on="1"/>
        <pt x="846" y="1065" on="1"/>
        <pt x="829" y="1108" on="0"/>
        <pt x="783" y="1188" on="0"/>
        <pt x="754" y="1223" on="1"/>
        <pt x="584" y="1122" on="1"/>
        <pt x="522" y="1233" on="1"/>
        <pt x="666" y="1317" on="1"/>
        <pt x="627" y="1351" on="0"/>
        <pt x="542" y="1404" on="0"/>
        <pt x="496" y="1425" on="1"/>
        <pt x="561" y="1565" on="1"/>
        <pt x="704" y="1512" on="0"/>
        <pt x="819" y="1409" on="1"/>
        <pt x="993" y="1511" on="1"/>
        <pt x="1055" y="1403" on="1"/>
        <pt x="907" y="1315" on="1"/>
        <pt x="985" y="1221" on="0"/>
        <pt x="1077" y="993" on="0"/>
        <pt x="1085" y="868" on="1"/>
      </contour>
      <contour>
        <pt x="889" y="197" on="1"/>
        <pt x="889" y="868" on="1"/>
        <pt x="360" y="868" on="1"/>
        <pt x="360" y="197" on="1"/>
      </contour>
    </TTGlyph>
    <TTGlyph name="exclam" xMin="143" yMin="0" xMax="442" yMax="1434">
      <contour>
        <pt x="236" y="532" on="1"/>
        <pt x="154" y="1434" on="1"/>
        <pt x="432" y="1434" on="1"/>
        <pt x="350" y="532" on="1"/>
      </contour>
      <contour>
        <pt x="143" y="299" on="1"/>
        <pt x="442" y="299" on="1"/>
        <pt x="442" y="0" on="1"/>
        <pt x="143" y="0" on="1"/>
      </contour>
    </TTGlyph>
    <TTGlyph name="exclamdown" xMin="143" yMin="-430" xMax="442" yMax="1004">
      <contour>
        <pt x="350" y="471" on="1"/>
        <pt x="432" y="-430" on="1"/>
        <pt x="154" y="-430" on="1"/>
        <pt x="236" y="471" on="1"/>
      </contour>
      <contour>
        <pt x="143" y="1004" on="1"/>
        <pt x="442" y="1004" on="1"/>
        <pt x="442" y="705" on="1"/>
        <pt x="143" y="705" on="1"/>
      </contour>
    </TTGlyph>
    <TTGlyph name="f" xMin="102" yMin="0" xMax="909" yMax="1475">
      <contour>
        <pt x="559" y="1278" on="1"/>
        <pt x="559" y="1065" on="1"/>
        <pt x="909" y="1065" on="1"/>
        <pt x="909" y="868" on="1"/>
        <pt x="559" y="868" on="1"/>
        <pt x="559" y="0" on="1"/>
        <pt x="362" y="0" on="1"/>
        <pt x="362" y="868" on="1"/>
        <pt x="102" y="868" on="1"/>
        <pt x="102" y="1065" on="1"/>
        <pt x="362" y="1065" on="1"/>
        <pt x="362" y="1278" on="1"/>
        <pt x="362" y="1319" on="0"/>
        <pt x="393" y="1390" on="0"/>
        <pt x="447" y="1444" on="0"/>
        <pt x="519" y="1475" on="0"/>
        <pt x="559" y="1475" on="1"/>
        <pt x="909" y="1475" on="1"/>
        <pt x="909" y="1278" on="1"/>
      </contour>
    </TTGlyph>
    <TTGlyph name="five" xMin="102" yMin="0" xMax="1184" yMax="1434">
      <contour>
        <pt x="1184" y="348" on="1"/>
        <pt x="1181" y="173" on="0"/>
        <pt x="1011" y="0" on="0"/>
        <pt x="836" y="0" on="1"/>
        <pt x="451" y="0" on="1"/>
        <pt x="102" y="0" on="0"/>
        <pt x="102" y="348" on="1"/>
        <pt x="102" y="434" on="1"/>
        <pt x="303" y="434" on="1"/>
        <pt x="303" y="358" on="1"/>
        <pt x="303" y="277" on="0"/>
        <pt x="375" y="201" on="0"/>
        <pt x="457" y="201" on="1"/>
        <pt x="829" y="201" on="1"/>
        <pt x="911" y="201" on="0"/>
        <pt x="983" y="277" on="0"/>
        <pt x="983" y="358" on="1"/>
        <pt x="983" y="551" on="1"/>
        <pt x="983" y="632" on="0"/>
        <pt x="911" y="707" on="0"/>
        <pt x="829" y="707" on="1"/>
        <pt x="143" y="707" on="1"/>
        <pt x="143" y="1434" on="1"/>
        <pt x="1147" y="1434" on="1"/>
        <pt x="1147" y="1229" on="1"/>
        <pt x="348" y="1229" on="1"/>
        <pt x="348" y="907" on="1"/>
        <pt x="836" y="907" on="1"/>
        <pt x="1012" y="907" on="0"/>
        <pt x="1184" y="736" on="0"/>
        <pt x="1184" y="559" on="1"/>
      </contour>
    </TTGlyph>
    <TTGlyph name="florin" xMin="-102" yMin="-430" xMax="983" yMax="1475">
      <contour>
        <pt x="662" y="1278" on="1"/>
        <pt x="602" y="942" on="1"/>
        <pt x="891" y="942" on="1"/>
        <pt x="856" y="745" on="1"/>
        <pt x="567" y="745" on="1"/>
        <pt x="393" y="-233" on="1"/>
        <pt x="386" y="-274" on="0"/>
        <pt x="343" y="-346" on="0"/>
        <pt x="281" y="-399" on="0"/>
        <pt x="205" y="-430" on="0"/>
        <pt x="164" y="-430" on="1"/>
        <pt x="-102" y="-430" on="1"/>
        <pt x="-70" y="-233" on="1"/>
        <pt x="197" y="-233" on="1"/>
        <pt x="371" y="745" on="1"/>
        <pt x="131" y="745" on="1"/>
        <pt x="166" y="942" on="1"/>
        <pt x="406" y="942" on="1"/>
        <pt x="465" y="1278" on="1"/>
        <pt x="472" y="1319" on="0"/>
        <pt x="515" y="1390" on="0"/>
        <pt x="577" y="1444" on="0"/>
        <pt x="654" y="1475" on="0"/>
        <pt x="694" y="1475" on="1"/>
        <pt x="983" y="1475" on="1"/>
        <pt x="950" y="1278" on="1"/>
      </contour>
    </TTGlyph>
    <TTGlyph name="foundryicon" xMin="123" yMin="-39" xMax="1630" yMax="1475">
      <contour>
        <pt x="1290" y="84" on="1"/>
        <pt x="1199" y="27" on="0"/>
        <pt x="989" y="-39" on="0"/>
        <pt x="874" y="-39" on="1"/>
        <pt x="770" y="-39" on="0"/>
        <pt x="578" y="15" on="0"/>
        <pt x="411" y="113" on="0"/>
        <pt x="274" y="252" on="0"/>
        <pt x="177" y="420" on="0"/>
        <pt x="123" y="614" on="0"/>
        <pt x="123" y="719" on="1"/>
        <pt x="123" y="821" on="0"/>
        <pt x="174" y="1007" on="0"/>
        <pt x="254" y="1148" on="0"/>
        <pt x="352" y="1231" on="0"/>
        <pt x="399" y="1231" on="1"/>
        <pt x="447" y="1231" on="0"/>
        <pt x="498" y="1176" on="0"/>
        <pt x="498" y="1126" on="1"/>
        <pt x="498" y="1097" on="0"/>
        <pt x="480" y="990" on="0"/>
        <pt x="453" y="860" on="0"/>
        <pt x="422" y="724" on="0"/>
        <pt x="395" y="609" on="0"/>
        <pt x="377" y="529" on="0"/>
        <pt x="377" y="522" on="1"/>
        <pt x="377" y="510" on="0"/>
        <pt x="398" y="500" on="0"/>
        <pt x="412" y="500" on="1"/>
        <pt x="429" y="500" on="0"/>
        <pt x="493" y="510" on="0"/>
        <pt x="559" y="526" on="0"/>
        <pt x="612" y="544" on="0"/>
        <pt x="616" y="553" on="1"/>
        <pt x="617" y="557" on="0"/>
        <pt x="628" y="605" on="0"/>
        <pt x="646" y="681" on="0"/>
        <pt x="667" y="778" on="0"/>
        <pt x="689" y="883" on="0"/>
        <pt x="711" y="989" on="0"/>
        <pt x="727" y="1084" on="0"/>
        <pt x="737" y="1160" on="0"/>
        <pt x="737" y="1182" on="1"/>
        <pt x="737" y="1226" on="0"/>
        <pt x="700" y="1289" on="0"/>
        <pt x="637" y="1330" on="0"/>
        <pt x="553" y="1350" on="0"/>
        <pt x="506" y="1350" on="1"/>
        <pt x="501" y="1350" on="0"/>
        <pt x="487" y="1349" on="0"/>
        <pt x="481" y="1348" on="1"/>
        <pt x="474" y="1347" on="0"/>
        <pt x="467" y="1346" on="1"/>
        <pt x="463" y="1352" on="1"/>
        <pt x="553" y="1409" on="0"/>
        <pt x="759" y="1475" on="0"/>
        <pt x="874" y="1475" on="1"/>
        <pt x="979" y="1475" on="0"/>
        <pt x="1173" y="1421" on="0"/>
        <pt x="1341" y="1323" on="0"/>
        <pt x="1478" y="1184" on="0"/>
        <pt x="1576" y="1016" on="0"/>
        <pt x="1630" y="822" on="0"/>
        <pt x="1630" y="717" on="1"/>
        <pt x="1630" y="615" on="0"/>
        <pt x="1579" y="429" on="0"/>
        <pt x="1499" y="288" on="0"/>
        <pt x="1401" y="205" on="0"/>
        <pt x="1354" y="205" on="1"/>
        <pt x="1306" y="205" on="0"/>
        <pt x="1255" y="260" on="0"/>
        <pt x="1255" y="309" on="1"/>
        <pt x="1255" y="338" on="0"/>
        <pt x="1273" y="446" on="0"/>
        <pt x="1300" y="575" on="0"/>
        <pt x="1331" y="712" on="0"/>
        <pt x="1358" y="826" on="0"/>
        <pt x="1376" y="905" on="0"/>
        <pt x="1376" y="911" on="1"/>
        <pt x="1376" y="925" on="0"/>
        <pt x="1355" y="936" on="0"/>
        <pt x="1341" y="936" on="1"/>
        <pt x="1324" y="936" on="0"/>
        <pt x="1260" y="926" on="0"/>
        <pt x="1194" y="910" on="0"/>
        <pt x="1142" y="891" on="0"/>
        <pt x="1137" y="883" on="1"/>
        <pt x="1136" y="878" on="0"/>
        <pt x="1117" y="797" on="0"/>
        <pt x="1090" y="677" on="0"/>
        <pt x="1060" y="533" on="0"/>
        <pt x="1033" y="397" on="0"/>
        <pt x="1016" y="284" on="0"/>
        <pt x="1016" y="254" on="1"/>
        <pt x="1016" y="210" on="0"/>
        <pt x="1053" y="147" on="0"/>
        <pt x="1116" y="106" on="0"/>
        <pt x="1200" y="86" on="0"/>
        <pt x="1247" y="86" on="1"/>
        <pt x="1253" y="86" on="0"/>
        <pt x="1266" y="86" on="0"/>
        <pt x="1272" y="87" on="1"/>
        <pt x="1279" y="88" on="0"/>
        <pt x="1286" y="88" on="1"/>
        <pt x="1290" y="84" on="1"/>
      </contour>
      <contour>
        <pt x="934" y="459" on="1"/>
        <pt x="936" y="469" on="0"/>
        <pt x="955" y="553" on="0"/>
        <pt x="981" y="669" on="0"/>
        <pt x="1010" y="800" on="0"/>
        <pt x="1035" y="915" on="0"/>
        <pt x="1051" y="998" on="0"/>
        <pt x="1051" y="1008" on="1"/>
        <pt x="1051" y="1019" on="0"/>
        <pt x="1033" y="1026" on="0"/>
        <pt x="1018" y="1026" on="1"/>
        <pt x="1003" y="1026" on="0"/>
        <pt x="948" y="1019" on="0"/>
        <pt x="888" y="1007" on="0"/>
        <pt x="834" y="989" on="0"/>
        <pt x="819" y="977" on="1"/>
        <pt x="817" y="967" on="0"/>
        <pt x="798" y="883" on="0"/>
        <pt x="772" y="767" on="0"/>
        <pt x="743" y="636" on="0"/>
        <pt x="718" y="521" on="0"/>
        <pt x="702" y="438" on="0"/>
        <pt x="702" y="428" on="1"/>
        <pt x="702" y="417" on="0"/>
        <pt x="720" y="408" on="0"/>
        <pt x="735" y="408" on="1"/>
        <pt x="750" y="408" on="0"/>
        <pt x="805" y="415" on="0"/>
        <pt x="865" y="429" on="0"/>
        <pt x="919" y="447" on="0"/>
      </contour>
    </TTGlyph>
    <TTGlyph name="four" xMin="41" yMin="0" xMax="1182" yMax="1434">
      <contour>
        <pt x="41" y="494" on="1"/>
        <pt x="748" y="1434" on="1"/>
        <pt x="989" y="1434" on="1"/>
        <pt x="989" y="494" on="1"/>
        <pt x="1182" y="494" on="1"/>
        <pt x="1182" y="297" on="1"/>
        <pt x="989" y="297" on="1"/>
        <pt x="989" y="0" on="1"/>
        <pt x="784" y="0" on="1"/>
        <pt x="784" y="297" on="1"/>
        <pt x="41" y="297" on="1"/>
      </contour>
      <contour>
        <pt x="784" y="494" on="1"/>
        <pt x="784" y="1186" on="1"/>
        <pt x="264" y="494" on="1"/>
      </contour>
    </TTGlyph>
    <TTGlyph name="fraction" xMin="20" yMin="0" xMax="1141" yMax="1434">
      <contour>
        <pt x="20" y="0" on="1"/>
        <pt x="971" y="1434" on="1"/>
        <pt x="1141" y="1434" on="1"/>
        <pt x="180" y="0" on="1"/>
      </contour>
    </TTGlyph>
    <TTGlyph name="g" xMin="164" yMin="-430" xMax="1106" yMax="1065">
      <contour>
        <pt x="164" y="868" on="1"/>
        <pt x="164" y="909" on="0"/>
        <pt x="195" y="981" on="0"/>
        <pt x="248" y="1034" on="0"/>
        <pt x="320" y="1065" on="0"/>
        <pt x="360" y="1065" on="1"/>
        <pt x="713" y="1065" on="1"/>
        <pt x="752" y="1065" on="0"/>
        <pt x="822" y="1036" on="0"/>
        <pt x="875" y="985" on="0"/>
        <pt x="908" y="916" on="0"/>
        <pt x="909" y="877" on="1"/>
        <pt x="909" y="1065" on="1"/>
        <pt x="1106" y="1065" on="1"/>
        <pt x="1106" y="-233" on="1"/>
        <pt x="1106" y="-274" on="0"/>
        <pt x="1075" y="-346" on="0"/>
        <pt x="1022" y="-399" on="0"/>
        <pt x="950" y="-430" on="0"/>
        <pt x="909" y="-430" on="1"/>
        <pt x="287" y="-430" on="1"/>
        <pt x="287" y="-233" on="1"/>
        <pt x="909" y="-233" on="1"/>
        <pt x="909" y="41" on="1"/>
        <pt x="360" y="41" on="1"/>
        <pt x="320" y="41" on="0"/>
        <pt x="248" y="72" on="0"/>
        <pt x="195" y="125" on="0"/>
        <pt x="164" y="197" on="0"/>
        <pt x="164" y="238" on="1"/>
      </contour>
      <contour>
        <pt x="909" y="238" on="1"/>
        <pt x="909" y="868" on="1"/>
        <pt x="360" y="868" on="1"/>
        <pt x="360" y="238" on="1"/>
      </contour>
    </TTGlyph>
    <TTGlyph name="germandbls" xMin="184" yMin="0" xMax="1223" yMax="1475">
      <contour>
        <pt x="1026" y="197" on="1"/>
        <pt x="1026" y="444" on="1"/>
        <pt x="743" y="444" on="1"/>
        <pt x="703" y="444" on="0"/>
        <pt x="631" y="475" on="0"/>
        <pt x="578" y="528" on="0"/>
        <pt x="547" y="600" on="0"/>
        <pt x="547" y="641" on="1"/>
        <pt x="547" y="760" on="1"/>
        <pt x="547" y="802" on="0"/>
        <pt x="564" y="868" on="0"/>
        <pt x="598" y="920" on="0"/>
        <pt x="653" y="963" on="0"/>
        <pt x="690" y="981" on="1"/>
        <pt x="963" y="1112" on="1"/>
        <pt x="963" y="1278" on="1"/>
        <pt x="381" y="1278" on="1"/>
        <pt x="381" y="0" on="1"/>
        <pt x="184" y="0" on="1"/>
        <pt x="184" y="1278" on="1"/>
        <pt x="184" y="1319" on="0"/>
        <pt x="215" y="1390" on="0"/>
        <pt x="268" y="1444" on="0"/>
        <pt x="340" y="1475" on="0"/>
        <pt x="381" y="1475" on="1"/>
        <pt x="963" y="1475" on="1"/>
        <pt x="1004" y="1475" on="0"/>
        <pt x="1075" y="1444" on="0"/>
        <pt x="1128" y="1390" on="0"/>
        <pt x="1159" y="1319" on="0"/>
        <pt x="1159" y="1278" on="1"/>
        <pt x="1159" y="1145" on="1"/>
        <pt x="1159" y="1103" on="0"/>
        <pt x="1143" y="1037" on="0"/>
        <pt x="1109" y="984" on="0"/>
        <pt x="1054" y="942" on="0"/>
        <pt x="1016" y="924" on="1"/>
        <pt x="743" y="793" on="1"/>
        <pt x="743" y="641" on="1"/>
        <pt x="1026" y="641" on="1"/>
        <pt x="1067" y="641" on="0"/>
        <pt x="1139" y="610" on="0"/>
        <pt x="1192" y="557" on="0"/>
        <pt x="1223" y="485" on="0"/>
        <pt x="1223" y="444" on="1"/>
        <pt x="1223" y="197" on="1"/>
        <pt x="1223" y="156" on="0"/>
        <pt x="1192" y="84" on="0"/>
        <pt x="1139" y="31" on="0"/>
        <pt x="1067" y="0" on="0"/>
        <pt x="1026" y="0" on="1"/>
        <pt x="547" y="0" on="1"/>
        <pt x="547" y="197" on="1"/>
      </contour>
    </TTGlyph>
    <TTGlyph name="grave" xMin="123" yMin="1249" xMax="649" yMax="1475">
      <contour>
        <pt x="649" y="1249" on="1"/>
        <pt x="461" y="1249" on="1"/>
        <pt x="123" y="1475" on="1"/>
        <pt x="422" y="1475" on="1"/>
      </contour>
    </TTGlyph>
    <TTGlyph name="grave.cap" xMin="123" yMin="1618" xMax="649" yMax="1843">
      <contour>
        <pt x="649" y="1618" on="1"/>
        <pt x="461" y="1618" on="1"/>
        <pt x="123" y="1843" on="1"/>
        <pt x="422" y="1843" on="1"/>
      </contour>
    </TTGlyph>
    <TTGlyph name="greater" xMin="164" yMin="0" xMax="1282" yMax="1169">
      <contour>
        <pt x="1282" y="479" on="1"/>
        <pt x="164" y="0" on="1"/>
        <pt x="164" y="209" on="1"/>
        <pt x="1059" y="584" on="1"/>
        <pt x="164" y="961" on="1"/>
        <pt x="164" y="1169" on="1"/>
        <pt x="1282" y="690" on="1"/>
      </contour>
    </TTGlyph>
    <TTGlyph name="guillemotleft" xMin="102" yMin="0" xMax="987" yMax="938">
      <contour>
        <pt x="102" y="500" on="1"/>
        <pt x="549" y="938" on="1"/>
        <pt x="549" y="733" on="1"/>
        <pt x="299" y="469" on="1"/>
        <pt x="549" y="205" on="1"/>
        <pt x="549" y="0" on="1"/>
        <pt x="102" y="438" on="1"/>
      </contour>
      <contour>
        <pt x="541" y="500" on="1"/>
        <pt x="987" y="938" on="1"/>
        <pt x="987" y="733" on="1"/>
        <pt x="737" y="469" on="1"/>
        <pt x="987" y="205" on="1"/>
        <pt x="987" y="0" on="1"/>
        <pt x="541" y="438" on="1"/>
      </contour>
    </TTGlyph>
    <TTGlyph name="guillemotright" xMin="143" yMin="0" xMax="1028" yMax="938">
      <contour>
        <pt x="1028" y="438" on="1"/>
        <pt x="582" y="0" on="1"/>
        <pt x="582" y="205" on="1"/>
        <pt x="831" y="469" on="1"/>
        <pt x="582" y="733" on="1"/>
        <pt x="582" y="938" on="1"/>
        <pt x="1028" y="500" on="1"/>
      </contour>
      <contour>
        <pt x="590" y="438" on="1"/>
        <pt x="143" y="0" on="1"/>
        <pt x="143" y="205" on="1"/>
        <pt x="393" y="469" on="1"/>
        <pt x="143" y="733" on="1"/>
        <pt x="143" y="938" on="1"/>
        <pt x="590" y="500" on="1"/>
      </contour>
    </TTGlyph>
    <TTGlyph name="guilsinglleft" xMin="102" yMin="0" xMax="549" yMax="938">
      <contour>
        <pt x="102" y="500" on="1"/>
        <pt x="549" y="938" on="1"/>
        <pt x="549" y="733" on="1"/>
        <pt x="299" y="469" on="1"/>
        <pt x="549" y="205" on="1"/>
        <pt x="549" y="0" on="1"/>
        <pt x="102" y="438" on="1"/>
      </contour>
    </TTGlyph>
    <TTGlyph name="guilsinglright" xMin="143" yMin="0" xMax="590" yMax="938">
      <contour>
        <pt x="590" y="438" on="1"/>
        <pt x="143" y="0" on="1"/>
        <pt x="143" y="205" on="1"/>
        <pt x="393" y="469" on="1"/>
        <pt x="143" y="733" on="1"/>
        <pt x="143" y="938" on="1"/>
        <pt x="590" y="500" on="1"/>
      </contour>
    </TTGlyph>
    <TTGlyph name="h" xMin="164" yMin="0" xMax="1106" yMax="1475">
      <contour>
        <pt x="1106" y="0" on="1"/>
        <pt x="909" y="0" on="1"/>
        <pt x="909" y="868" on="1"/>
        <pt x="360" y="868" on="1"/>
        <pt x="360" y="0" on="1"/>
        <pt x="164" y="0" on="1"/>
        <pt x="164" y="1475" on="1"/>
        <pt x="360" y="1475" on="1"/>
        <pt x="360" y="877" on="1"/>
        <pt x="362" y="916" on="0"/>
        <pt x="394" y="985" on="0"/>
        <pt x="447" y="1036" on="0"/>
        <pt x="517" y="1065" on="0"/>
        <pt x="557" y="1065" on="1"/>
        <pt x="909" y="1065" on="1"/>
        <pt x="950" y="1065" on="0"/>
        <pt x="1022" y="1034" on="0"/>
        <pt x="1075" y="981" on="0"/>
        <pt x="1106" y="909" on="0"/>
        <pt x="1106" y="868" on="1"/>
      </contour>
    </TTGlyph>
    <TTGlyph name="hbar" xMin="0" yMin="0" xMax="1106" yMax="1475">
      <contour>
        <pt x="0" y="1329" on="1"/>
        <pt x="164" y="1329" on="1"/>
        <pt x="164" y="1475" on="1"/>
        <pt x="360" y="1475" on="1"/>
        <pt x="360" y="1329" on="1"/>
        <pt x="780" y="1329" on="1"/>
        <pt x="780" y="1204" on="1"/>
        <pt x="360" y="1204" on="1"/>
        <pt x="360" y="885" on="1"/>
        <pt x="363" y="923" on="0"/>
        <pt x="397" y="988" on="0"/>
        <pt x="449" y="1037" on="0"/>
        <pt x="518" y="1065" on="0"/>
        <pt x="557" y="1065" on="1"/>
        <pt x="909" y="1065" on="1"/>
        <pt x="950" y="1065" on="0"/>
        <pt x="1022" y="1034" on="0"/>
        <pt x="1075" y="981" on="0"/>
        <pt x="1106" y="909" on="0"/>
        <pt x="1106" y="868" on="1"/>
        <pt x="1106" y="0" on="1"/>
        <pt x="909" y="0" on="1"/>
        <pt x="909" y="868" on="1"/>
        <pt x="360" y="868" on="1"/>
        <pt x="360" y="0" on="1"/>
        <pt x="164" y="0" on="1"/>
        <pt x="164" y="1204" on="1"/>
        <pt x="0" y="1204" on="1"/>
      </contour>
    </TTGlyph>
    <TTGlyph name="hungarumlaut" xMin="123" yMin="1249" xMax="1085" yMax="1475">
      <contour>
        <pt x="350" y="1475" on="1"/>
        <pt x="649" y="1475" on="1"/>
        <pt x="311" y="1249" on="1"/>
        <pt x="123" y="1249" on="1"/>
      </contour>
      <contour>
        <pt x="786" y="1475" on="1"/>
        <pt x="1085" y="1475" on="1"/>
        <pt x="748" y="1249" on="1"/>
        <pt x="559" y="1249" on="1"/>
      </contour>
    </TTGlyph>
    <TTGlyph name="hyphen" xMin="164" yMin="479" xMax="643" yMax="676">
      <contour>
        <pt x="164" y="676" on="1"/>
        <pt x="643" y="676" on="1"/>
        <pt x="643" y="479" on="1"/>
        <pt x="164" y="479" on="1"/>
      </contour>
    </TTGlyph>
    <TTGlyph name="i" xMin="164" yMin="0" xMax="381" yMax="1475">
      <contour>
        <pt x="371" y="1065" on="1"/>
        <pt x="371" y="0" on="1"/>
        <pt x="174" y="0" on="1"/>
        <pt x="174" y="1065" on="1"/>
      </contour>
      <contour>
        <pt x="164" y="1475" on="1"/>
        <pt x="381" y="1475" on="1"/>
        <pt x="381" y="1270" on="1"/>
        <pt x="164" y="1270" on="1"/>
      </contour>
    </TTGlyph>
    <TTGlyph name="iacute" xMin="92" yMin="0" xMax="618" yMax="1475">
      <contour>
        <pt x="371" y="1065" on="1"/>
        <pt x="371" y="0" on="1"/>
        <pt x="174" y="0" on="1"/>
        <pt x="174" y="1065" on="1"/>
      </contour>
      <contour>
        <pt x="319" y="1475" on="1"/>
        <pt x="618" y="1475" on="1"/>
        <pt x="281" y="1249" on="1"/>
        <pt x="92" y="1249" on="1"/>
      </contour>
    </TTGlyph>
    <TTGlyph name="icircumflex" xMin="-88" yMin="0" xMax="633" yMax="1495">
      <contour>
        <pt x="371" y="1065" on="1"/>
        <pt x="371" y="0" on="1"/>
        <pt x="174" y="0" on="1"/>
        <pt x="174" y="1065" on="1"/>
      </contour>
      <contour>
        <pt x="633" y="1249" on="1"/>
        <pt x="424" y="1249" on="1"/>
        <pt x="272" y="1384" on="1"/>
        <pt x="121" y="1249" on="1"/>
        <pt x="-88" y="1249" on="1"/>
        <pt x="150" y="1495" on="1"/>
        <pt x="395" y="1495" on="1"/>
      </contour>
    </TTGlyph>
    <TTGlyph name="idieresis" xMin="-43" yMin="0" xMax="590" yMax="1466">
      <contour>
        <pt x="371" y="1065" on="1"/>
        <pt x="371" y="0" on="1"/>
        <pt x="174" y="0" on="1"/>
        <pt x="174" y="1065" on="1"/>
      </contour>
      <contour>
        <pt x="373" y="1466" on="1"/>
        <pt x="590" y="1466" on="1"/>
        <pt x="590" y="1249" on="1"/>
        <pt x="373" y="1249" on="1"/>
      </contour>
      <contour>
        <pt x="-43" y="1466" on="1"/>
        <pt x="174" y="1466" on="1"/>
        <pt x="174" y="1249" on="1"/>
        <pt x="-43" y="1249" on="1"/>
      </contour>
    </TTGlyph>
    <TTGlyph name="igrave" xMin="-72" yMin="0" xMax="455" yMax="1475">
      <contour>
        <pt x="371" y="1065" on="1"/>
        <pt x="371" y="0" on="1"/>
        <pt x="174" y="0" on="1"/>
        <pt x="174" y="1065" on="1"/>
      </contour>
      <contour>
        <pt x="455" y="1249" on="1"/>
        <pt x="266" y="1249" on="1"/>
        <pt x="-72" y="1475" on="1"/>
        <pt x="227" y="1475" on="1"/>
      </contour>
    </TTGlyph>
    <TTGlyph name="ij" xMin="164" yMin="-430" xMax="926" yMax="1475">
      <contour>
        <pt x="371" y="1065" on="1"/>
        <pt x="371" y="0" on="1"/>
        <pt x="174" y="0" on="1"/>
        <pt x="174" y="1065" on="1"/>
      </contour>
      <contour>
        <pt x="164" y="1475" on="1"/>
        <pt x="381" y="1475" on="1"/>
        <pt x="381" y="1270" on="1"/>
        <pt x="164" y="1270" on="1"/>
      </contour>
      <contour>
        <pt x="719" y="-233" on="1"/>
        <pt x="719" y="1065" on="1"/>
        <pt x="915" y="1065" on="1"/>
        <pt x="915" y="-233" on="1"/>
        <pt x="915" y="-274" on="0"/>
        <pt x="884" y="-346" on="0"/>
        <pt x="831" y="-399" on="0"/>
        <pt x="760" y="-430" on="0"/>
        <pt x="719" y="-430" on="1"/>
        <pt x="565" y="-430" on="1"/>
        <pt x="565" y="-233" on="1"/>
      </contour>
      <contour>
        <pt x="709" y="1475" on="1"/>
        <pt x="926" y="1475" on="1"/>
        <pt x="926" y="1270" on="1"/>
        <pt x="709" y="1270" on="1"/>
      </contour>
    </TTGlyph>
    <TTGlyph name="itilde" xMin="-119" yMin="0" xMax="664" yMax="1503">
      <contour>
        <pt x="371" y="1065" on="1"/>
        <pt x="371" y="0" on="1"/>
        <pt x="174" y="0" on="1"/>
        <pt x="174" y="1065" on="1"/>
      </contour>
      <contour>
        <pt x="-119" y="1251" on="1"/>
        <pt x="-119" y="1304" on="0"/>
        <pt x="-83" y="1396" on="0"/>
        <pt x="-18" y="1464" on="0"/>
        <pt x="71" y="1503" on="0"/>
        <pt x="125" y="1503" on="1"/>
        <pt x="180" y="1503" on="0"/>
        <pt x="259" y="1472" on="0"/>
        <pt x="325" y="1434" on="0"/>
        <pt x="388" y="1403" on="0"/>
        <pt x="428" y="1403" on="1"/>
        <pt x="471" y="1403" on="0"/>
        <pt x="523" y="1463" on="0"/>
        <pt x="526" y="1503" on="1"/>
        <pt x="664" y="1503" on="1"/>
        <pt x="663" y="1450" on="0"/>
        <pt x="627" y="1358" on="0"/>
        <pt x="563" y="1290" on="0"/>
        <pt x="474" y="1251" on="0"/>
        <pt x="420" y="1251" on="1"/>
        <pt x="364" y="1251" on="0"/>
        <pt x="285" y="1283" on="0"/>
        <pt x="219" y="1320" on="0"/>
        <pt x="157" y="1352" on="0"/>
        <pt x="117" y="1352" on="1"/>
        <pt x="73" y="1352" on="0"/>
        <pt x="22" y="1292" on="0"/>
        <pt x="18" y="1251" on="1"/>
      </contour>
    </TTGlyph>
    <TTGlyph name="j" xMin="20" yMin="-430" xMax="381" yMax="1475">
      <contour>
        <pt x="174" y="-233" on="1"/>
        <pt x="174" y="1065" on="1"/>
        <pt x="371" y="1065" on="1"/>
        <pt x="371" y="-233" on="1"/>
        <pt x="371" y="-274" on="0"/>
        <pt x="340" y="-346" on="0"/>
        <pt x="287" y="-399" on="0"/>
        <pt x="215" y="-430" on="0"/>
        <pt x="174" y="-430" on="1"/>
        <pt x="20" y="-430" on="1"/>
        <pt x="20" y="-233" on="1"/>
      </contour>
      <contour>
        <pt x="164" y="1475" on="1"/>
        <pt x="381" y="1475" on="1"/>
        <pt x="381" y="1270" on="1"/>
        <pt x="164" y="1270" on="1"/>
      </contour>
    </TTGlyph>
    <TTGlyph name="jcircumflex" xMin="-88" yMin="-430" xMax="633" yMax="1495">
      <contour>
        <pt x="174" y="-233" on="1"/>
        <pt x="174" y="1065" on="1"/>
        <pt x="371" y="1065" on="1"/>
        <pt x="371" y="-233" on="1"/>
        <pt x="371" y="-274" on="0"/>
        <pt x="340" y="-346" on="0"/>
        <pt x="287" y="-399" on="0"/>
        <pt x="215" y="-430" on="0"/>
        <pt x="174" y="-430" on="1"/>
        <pt x="20" y="-430" on="1"/>
        <pt x="20" y="-233" on="1"/>
      </contour>
      <contour>
        <pt x="633" y="1249" on="1"/>
        <pt x="424" y="1249" on="1"/>
        <pt x="272" y="1384" on="1"/>
        <pt x="121" y="1249" on="1"/>
        <pt x="-88" y="1249" on="1"/>
        <pt x="150" y="1495" on="1"/>
        <pt x="395" y="1495" on="1"/>
      </contour>
    </TTGlyph>
    <TTGlyph name="k" xMin="164" yMin="0" xMax="1145" yMax="1475">
      <contour>
        <pt x="868" y="0" on="1"/>
        <pt x="360" y="455" on="1"/>
        <pt x="360" y="0" on="1"/>
        <pt x="164" y="0" on="1"/>
        <pt x="164" y="1475" on="1"/>
        <pt x="360" y="1475" on="1"/>
        <pt x="360" y="645" on="1"/>
        <pt x="827" y="1065" on="1"/>
        <pt x="1104" y="1065" on="1"/>
        <pt x="532" y="551" on="1"/>
        <pt x="1145" y="0" on="1"/>
      </contour>
    </TTGlyph>
    <TTGlyph name="kcommaaccent" xMin="164" yMin="-809" xMax="1145" yMax="1475">
      <contour>
        <pt x="868" y="0" on="1"/>
        <pt x="360" y="455" on="1"/>
        <pt x="360" y="0" on="1"/>
        <pt x="164" y="0" on="1"/>
        <pt x="164" y="1475" on="1"/>
        <pt x="360" y="1475" on="1"/>
        <pt x="360" y="645" on="1"/>
        <pt x="827" y="1065" on="1"/>
        <pt x="1104" y="1065" on="1"/>
        <pt x="532" y="551" on="1"/>
        <pt x="1145" y="0" on="1"/>
      </contour>
      <contour>
        <pt x="557" y="-809" on="1"/>
        <pt x="412" y="-809" on="1"/>
        <pt x="559" y="-504" on="1"/>
        <pt x="412" y="-504" on="1"/>
        <pt x="412" y="-205" on="1"/>
        <pt x="711" y="-205" on="1"/>
        <pt x="711" y="-504" on="1"/>
      </contour>
    </TTGlyph>
    <TTGlyph name="kgreenlandic" xMin="164" yMin="0" xMax="1145" yMax="1065">
      <contour>
        <pt x="868" y="0" on="1"/>
        <pt x="360" y="455" on="1"/>
        <pt x="360" y="0" on="1"/>
        <pt x="164" y="0" on="1"/>
        <pt x="164" y="1063" on="1"/>
        <pt x="360" y="1063" on="1"/>
        <pt x="360" y="645" on="1"/>
        <pt x="827" y="1065" on="1"/>
        <pt x="1104" y="1065" on="1"/>
        <pt x="532" y="551" on="1"/>
        <pt x="1145" y="0" on="1"/>
      </contour>
    </TTGlyph>
    <TTGlyph name="l" xMin="164" yMin="0" xMax="360" yMax="1475">
      <contour>
        <pt x="360" y="1475" on="1"/>
        <pt x="360" y="0" on="1"/>
        <pt x="164" y="0" on="1"/>
        <pt x="164" y="1475" on="1"/>
      </contour>
    </TTGlyph>
    <TTGlyph name="ldot" xMin="164" yMin="0" xMax="854" yMax="1475">
      <contour>
        <pt x="360" y="1475" on="1"/>
        <pt x="360" y="0" on="1"/>
        <pt x="164" y="0" on="1"/>
        <pt x="164" y="1475" on="1"/>
      </contour>
      <contour>
        <pt x="596" y="920" on="1"/>
        <pt x="854" y="920" on="1"/>
        <pt x="854" y="662" on="1"/>
        <pt x="596" y="662" on="1"/>
      </contour>
    </TTGlyph>
    <TTGlyph name="less" xMin="82" yMin="0" xMax="1200" yMax="1169">
      <contour>
        <pt x="82" y="690" on="1"/>
        <pt x="1200" y="1169" on="1"/>
        <pt x="1200" y="961" on="1"/>
        <pt x="303" y="584" on="1"/>
        <pt x="1200" y="209" on="1"/>
        <pt x="1200" y="0" on="1"/>
        <pt x="82" y="479" on="1"/>
      </contour>
    </TTGlyph>
    <TTGlyph name="logicalnot" xMin="164" yMin="242" xMax="1282" yMax="840">
      <contour>
        <pt x="164" y="840" on="1"/>
        <pt x="1282" y="840" on="1"/>
        <pt x="1282" y="242" on="1"/>
        <pt x="1085" y="242" on="1"/>
        <pt x="1085" y="643" on="1"/>
        <pt x="164" y="643" on="1"/>
      </contour>
    </TTGlyph>
    <TTGlyph name="lslash" xMin="41" yMin="0" xMax="639" yMax="1475">
      <contour>
        <pt x="438" y="1475" on="1"/>
        <pt x="438" y="823" on="1"/>
        <pt x="639" y="909" on="1"/>
        <pt x="639" y="733" on="1"/>
        <pt x="438" y="647" on="1"/>
        <pt x="438" y="0" on="1"/>
        <pt x="242" y="0" on="1"/>
        <pt x="242" y="563" on="1"/>
        <pt x="41" y="477" on="1"/>
        <pt x="41" y="653" on="1"/>
        <pt x="242" y="739" on="1"/>
        <pt x="242" y="1475" on="1"/>
      </contour>
    </TTGlyph>
    <TTGlyph name="m" xMin="164" yMin="0" xMax="1655" yMax="1065">
      <contour>
        <pt x="1008" y="868" on="1"/>
        <pt x="1008" y="0" on="1"/>
        <pt x="811" y="0" on="1"/>
        <pt x="811" y="868" on="1"/>
        <pt x="360" y="868" on="1"/>
        <pt x="360" y="0" on="1"/>
        <pt x="164" y="0" on="1"/>
        <pt x="164" y="1065" on="1"/>
        <pt x="360" y="1065" on="1"/>
        <pt x="360" y="877" on="1"/>
        <pt x="362" y="916" on="0"/>
        <pt x="394" y="985" on="0"/>
        <pt x="447" y="1036" on="0"/>
        <pt x="517" y="1065" on="0"/>
        <pt x="557" y="1065" on="1"/>
        <pt x="811" y="1065" on="1"/>
        <pt x="850" y="1065" on="0"/>
        <pt x="920" y="1036" on="0"/>
        <pt x="974" y="985" on="0"/>
        <pt x="1007" y="916" on="0"/>
        <pt x="1008" y="877" on="1"/>
        <pt x="1010" y="916" on="0"/>
        <pt x="1041" y="985" on="0"/>
        <pt x="1094" y="1036" on="0"/>
        <pt x="1164" y="1065" on="0"/>
        <pt x="1204" y="1065" on="1"/>
        <pt x="1458" y="1065" on="1"/>
        <pt x="1499" y="1065" on="0"/>
        <pt x="1571" y="1034" on="0"/>
        <pt x="1624" y="981" on="0"/>
        <pt x="1655" y="909" on="0"/>
        <pt x="1655" y="868" on="1"/>
        <pt x="1655" y="0" on="1"/>
        <pt x="1458" y="0" on="1"/>
        <pt x="1458" y="868" on="1"/>
      </contour>
    </TTGlyph>
    <TTGlyph name="macron" xMin="123" yMin="1268" xMax="844" yMax="1434">
      <contour>
        <pt x="123" y="1434" on="1"/>
        <pt x="844" y="1434" on="1"/>
        <pt x="844" y="1268" on="1"/>
        <pt x="123" y="1268" on="1"/>
      </contour>
    </TTGlyph>
    <TTGlyph name="minus" xMin="164" yMin="479" xMax="1282" yMax="676">
      <contour>
        <pt x="164" y="676" on="1"/>
        <pt x="1282" y="676" on="1"/>
        <pt x="1282" y="479" on="1"/>
        <pt x="164" y="479" on="1"/>
      </contour>
    </TTGlyph>
    <TTGlyph name="mu" xMin="164" yMin="-430" xMax="1106" yMax="1065">
      <contour>
        <pt x="164" y="-430" on="1"/>
        <pt x="164" y="1065" on="1"/>
        <pt x="360" y="1065" on="1"/>
        <pt x="360" y="197" on="1"/>
        <pt x="909" y="197" on="1"/>
        <pt x="909" y="1065" on="1"/>
        <pt x="1106" y="1065" on="1"/>
        <pt x="1106" y="0" on="1"/>
        <pt x="909" y="0" on="1"/>
        <pt x="909" y="188" on="1"/>
        <pt x="908" y="149" on="0"/>
        <pt x="875" y="81" on="0"/>
        <pt x="822" y="30" on="0"/>
        <pt x="752" y="0" on="0"/>
        <pt x="713" y="0" on="1"/>
        <pt x="360" y="0" on="1"/>
        <pt x="360" y="-430" on="1"/>
      </contour>
    </TTGlyph>
    <TTGlyph name="multiply" xMin="123" yMin="27" xMax="1225" yMax="1128">
      <contour>
        <pt x="1225" y="991" on="1"/>
        <pt x="811" y="578" on="1"/>
        <pt x="1225" y="164" on="1"/>
        <pt x="1087" y="27" on="1"/>
        <pt x="674" y="440" on="1"/>
        <pt x="260" y="27" on="1"/>
        <pt x="123" y="164" on="1"/>
        <pt x="537" y="578" on="1"/>
        <pt x="123" y="991" on="1"/>
        <pt x="260" y="1128" on="1"/>
        <pt x="674" y="715" on="1"/>
        <pt x="1087" y="1128" on="1"/>
      </contour>
    </TTGlyph>
    <TTGlyph name="n" xMin="164" yMin="0" xMax="1106" yMax="1065">
      <contour>
        <pt x="1106" y="0" on="1"/>
        <pt x="909" y="0" on="1"/>
        <pt x="909" y="868" on="1"/>
        <pt x="360" y="868" on="1"/>
        <pt x="360" y="0" on="1"/>
        <pt x="164" y="0" on="1"/>
        <pt x="164" y="1065" on="1"/>
        <pt x="360" y="1065" on="1"/>
        <pt x="360" y="877" on="1"/>
        <pt x="362" y="916" on="0"/>
        <pt x="394" y="985" on="0"/>
        <pt x="447" y="1036" on="0"/>
        <pt x="517" y="1065" on="0"/>
        <pt x="557" y="1065" on="1"/>
        <pt x="909" y="1065" on="1"/>
        <pt x="950" y="1065" on="0"/>
        <pt x="1022" y="1034" on="0"/>
        <pt x="1075" y="981" on="0"/>
        <pt x="1106" y="909" on="0"/>
        <pt x="1106" y="868" on="1"/>
      </contour>
    </TTGlyph>
    <TTGlyph name="nacute" xMin="164" yMin="0" xMax="1106" yMax="1475">
      <contour>
        <pt x="1106" y="0" on="1"/>
        <pt x="909" y="0" on="1"/>
        <pt x="909" y="868" on="1"/>
        <pt x="360" y="868" on="1"/>
        <pt x="360" y="0" on="1"/>
        <pt x="164" y="0" on="1"/>
        <pt x="164" y="1065" on="1"/>
        <pt x="360" y="1065" on="1"/>
        <pt x="360" y="877" on="1"/>
        <pt x="362" y="916" on="0"/>
        <pt x="394" y="985" on="0"/>
        <pt x="447" y="1036" on="0"/>
        <pt x="517" y="1065" on="0"/>
        <pt x="557" y="1065" on="1"/>
        <pt x="909" y="1065" on="1"/>
        <pt x="950" y="1065" on="0"/>
        <pt x="1022" y="1034" on="0"/>
        <pt x="1075" y="981" on="0"/>
        <pt x="1106" y="909" on="0"/>
        <pt x="1106" y="868" on="1"/>
      </contour>
      <contour>
        <pt x="680" y="1475" on="1"/>
        <pt x="979" y="1475" on="1"/>
        <pt x="641" y="1249" on="1"/>
        <pt x="453" y="1249" on="1"/>
      </contour>
    </TTGlyph>
    <TTGlyph name="nine" xMin="184" yMin="0" xMax="1249" yMax="1434">
      <contour>
        <pt x="1249" y="205" on="1"/>
        <pt x="1249" y="163" on="0"/>
        <pt x="1217" y="88" on="0"/>
        <pt x="1161" y="32" on="0"/>
        <pt x="1086" y="0" on="0"/>
        <pt x="1044" y="0" on="1"/>
        <pt x="389" y="0" on="1"/>
        <pt x="347" y="0" on="0"/>
        <pt x="272" y="32" on="0"/>
        <pt x="216" y="88" on="0"/>
        <pt x="184" y="163" on="0"/>
        <pt x="184" y="205" on="1"/>
        <pt x="184" y="389" on="1"/>
        <pt x="389" y="389" on="1"/>
        <pt x="389" y="205" on="1"/>
        <pt x="1044" y="205" on="1"/>
        <pt x="1044" y="614" on="1"/>
        <pt x="389" y="614" on="1"/>
        <pt x="347" y="614" on="0"/>
        <pt x="272" y="647" on="0"/>
        <pt x="216" y="702" on="0"/>
        <pt x="184" y="777" on="0"/>
        <pt x="184" y="819" on="1"/>
        <pt x="184" y="1229" on="1"/>
        <pt x="184" y="1271" on="0"/>
        <pt x="216" y="1346" on="0"/>
        <pt x="272" y="1401" on="0"/>
        <pt x="347" y="1434" on="0"/>
        <pt x="389" y="1434" on="1"/>
        <pt x="1044" y="1434" on="1"/>
        <pt x="1086" y="1434" on="0"/>
        <pt x="1161" y="1401" on="0"/>
        <pt x="1217" y="1346" on="0"/>
        <pt x="1249" y="1271" on="0"/>
        <pt x="1249" y="1229" on="1"/>
      </contour>
      <contour>
        <pt x="1044" y="819" on="1"/>
        <pt x="1044" y="1229" on="1"/>
        <pt x="389" y="1229" on="1"/>
        <pt x="389" y="819" on="1"/>
      </contour>
    </TTGlyph>
    <TTGlyph name="ntilde" xMin="164" yMin="0" xMax="1106" yMax="1503">
      <contour>
        <pt x="1106" y="0" on="1"/>
        <pt x="909" y="0" on="1"/>
        <pt x="909" y="868" on="1"/>
        <pt x="360" y="868" on="1"/>
        <pt x="360" y="0" on="1"/>
        <pt x="164" y="0" on="1"/>
        <pt x="164" y="1065" on="1"/>
        <pt x="360" y="1065" on="1"/>
        <pt x="360" y="877" on="1"/>
        <pt x="362" y="916" on="0"/>
        <pt x="394" y="985" on="0"/>
        <pt x="447" y="1036" on="0"/>
        <pt x="517" y="1065" on="0"/>
        <pt x="557" y="1065" on="1"/>
        <pt x="909" y="1065" on="1"/>
        <pt x="950" y="1065" on="0"/>
        <pt x="1022" y="1034" on="0"/>
        <pt x="1075" y="981" on="0"/>
        <pt x="1106" y="909" on="0"/>
        <pt x="1106" y="868" on="1"/>
      </contour>
      <contour>
        <pt x="244" y="1251" on="1"/>
        <pt x="244" y="1304" on="0"/>
        <pt x="280" y="1396" on="0"/>
        <pt x="344" y="1464" on="0"/>
        <pt x="433" y="1503" on="0"/>
        <pt x="487" y="1503" on="1"/>
        <pt x="543" y="1503" on="0"/>
        <pt x="621" y="1472" on="0"/>
        <pt x="687" y="1434" on="0"/>
        <pt x="751" y="1403" on="0"/>
        <pt x="791" y="1403" on="1"/>
        <pt x="834" y="1403" on="0"/>
        <pt x="886" y="1463" on="0"/>
        <pt x="889" y="1503" on="1"/>
        <pt x="1026" y="1503" on="1"/>
        <pt x="1025" y="1450" on="0"/>
        <pt x="989" y="1358" on="0"/>
        <pt x="925" y="1290" on="0"/>
        <pt x="836" y="1251" on="0"/>
        <pt x="782" y="1251" on="1"/>
        <pt x="745" y="1251" on="0"/>
        <pt x="686" y="1266" on="0"/>
        <pt x="636" y="1288" on="0"/>
        <pt x="593" y="1315" on="0"/>
        <pt x="551" y="1337" on="0"/>
        <pt x="506" y="1352" on="0"/>
        <pt x="479" y="1352" on="1"/>
        <pt x="436" y="1352" on="0"/>
        <pt x="384" y="1292" on="0"/>
        <pt x="381" y="1251" on="1"/>
      </contour>
    </TTGlyph>
    <TTGlyph name="numbersign" xMin="184" yMin="0" xMax="1393" yMax="1434">
      <contour>
        <pt x="715" y="1434" on="1"/>
        <pt x="662" y="1083" on="1"/>
        <pt x="1022" y="1083" on="1"/>
        <pt x="1075" y="1434" on="1"/>
        <pt x="1251" y="1434" on="1"/>
        <pt x="1198" y="1083" on="1"/>
        <pt x="1393" y="1083" on="1"/>
        <pt x="1393" y="907" on="1"/>
        <pt x="1171" y="907" on="1"/>
        <pt x="1114" y="526" on="1"/>
        <pt x="1393" y="526" on="1"/>
        <pt x="1393" y="350" on="1"/>
        <pt x="1087" y="350" on="1"/>
        <pt x="1036" y="0" on="1"/>
        <pt x="860" y="0" on="1"/>
        <pt x="911" y="350" on="1"/>
        <pt x="551" y="350" on="1"/>
        <pt x="500" y="0" on="1"/>
        <pt x="324" y="0" on="1"/>
        <pt x="375" y="350" on="1"/>
        <pt x="184" y="350" on="1"/>
        <pt x="184" y="526" on="1"/>
        <pt x="401" y="526" on="1"/>
        <pt x="459" y="907" on="1"/>
        <pt x="184" y="907" on="1"/>
        <pt x="184" y="1083" on="1"/>
        <pt x="485" y="1083" on="1"/>
        <pt x="539" y="1434" on="1"/>
      </contour>
      <contour>
        <pt x="578" y="526" on="1"/>
        <pt x="938" y="526" on="1"/>
        <pt x="995" y="907" on="1"/>
        <pt x="635" y="907" on="1"/>
      </contour>
    </TTGlyph>
    <TTGlyph name="o" xMin="164" yMin="0" xMax="1085" yMax="1065">
      <contour>
        <pt x="1085" y="197" on="1"/>
        <pt x="1085" y="156" on="0"/>
        <pt x="1054" y="84" on="0"/>
        <pt x="1001" y="31" on="0"/>
        <pt x="930" y="0" on="0"/>
        <pt x="889" y="0" on="1"/>
        <pt x="360" y="0" on="1"/>
        <pt x="320" y="0" on="0"/>
        <pt x="248" y="31" on="0"/>
        <pt x="195" y="84" on="0"/>
        <pt x="164" y="156" on="0"/>
        <pt x="164" y="197" on="1"/>
        <pt x="164" y="868" on="1"/>
        <pt x="164" y="909" on="0"/>
        <pt x="195" y="981" on="0"/>
        <pt x="248" y="1034" on="0"/>
        <pt x="320" y="1065" on="0"/>
        <pt x="360" y="1065" on="1"/>
        <pt x="889" y="1065" on="1"/>
        <pt x="930" y="1065" on="0"/>
        <pt x="1001" y="1034" on="0"/>
        <pt x="1054" y="981" on="0"/>
        <pt x="1085" y="909" on="0"/>
        <pt x="1085" y="868" on="1"/>
      </contour>
      <contour>
        <pt x="360" y="868" on="1"/>
        <pt x="360" y="197" on="1"/>
        <pt x="889" y="197" on="1"/>
        <pt x="889" y="868" on="1"/>
      </contour>
    </TTGlyph>
    <TTGlyph name="oacute" xMin="164" yMin="0" xMax="1085" yMax="1475">
      <contour>
        <pt x="1085" y="197" on="1"/>
        <pt x="1085" y="156" on="0"/>
        <pt x="1054" y="84" on="0"/>
        <pt x="1001" y="31" on="0"/>
        <pt x="930" y="0" on="0"/>
        <pt x="889" y="0" on="1"/>
        <pt x="360" y="0" on="1"/>
        <pt x="320" y="0" on="0"/>
        <pt x="248" y="31" on="0"/>
        <pt x="195" y="84" on="0"/>
        <pt x="164" y="156" on="0"/>
        <pt x="164" y="197" on="1"/>
        <pt x="164" y="868" on="1"/>
        <pt x="164" y="909" on="0"/>
        <pt x="195" y="981" on="0"/>
        <pt x="248" y="1034" on="0"/>
        <pt x="320" y="1065" on="0"/>
        <pt x="360" y="1065" on="1"/>
        <pt x="889" y="1065" on="1"/>
        <pt x="930" y="1065" on="0"/>
        <pt x="1001" y="1034" on="0"/>
        <pt x="1054" y="981" on="0"/>
        <pt x="1085" y="909" on="0"/>
        <pt x="1085" y="868" on="1"/>
      </contour>
      <contour>
        <pt x="360" y="868" on="1"/>
        <pt x="360" y="197" on="1"/>
        <pt x="889" y="197" on="1"/>
        <pt x="889" y="868" on="1"/>
      </contour>
      <contour>
        <pt x="670" y="1475" on="1"/>
        <pt x="969" y="1475" on="1"/>
        <pt x="631" y="1249" on="1"/>
        <pt x="442" y="1249" on="1"/>
      </contour>
    </TTGlyph>
    <TTGlyph name="ocircumflex" xMin="164" yMin="0" xMax="1085" yMax="1495">
      <contour>
        <pt x="1085" y="197" on="1"/>
        <pt x="1085" y="156" on="0"/>
        <pt x="1054" y="84" on="0"/>
        <pt x="1001" y="31" on="0"/>
        <pt x="930" y="0" on="0"/>
        <pt x="889" y="0" on="1"/>
        <pt x="360" y="0" on="1"/>
        <pt x="320" y="0" on="0"/>
        <pt x="248" y="31" on="0"/>
        <pt x="195" y="84" on="0"/>
        <pt x="164" y="156" on="0"/>
        <pt x="164" y="197" on="1"/>
        <pt x="164" y="868" on="1"/>
        <pt x="164" y="909" on="0"/>
        <pt x="195" y="981" on="0"/>
        <pt x="248" y="1034" on="0"/>
        <pt x="320" y="1065" on="0"/>
        <pt x="360" y="1065" on="1"/>
        <pt x="889" y="1065" on="1"/>
        <pt x="930" y="1065" on="0"/>
        <pt x="1001" y="1034" on="0"/>
        <pt x="1054" y="981" on="0"/>
        <pt x="1085" y="909" on="0"/>
        <pt x="1085" y="868" on="1"/>
      </contour>
      <contour>
        <pt x="360" y="868" on="1"/>
        <pt x="360" y="197" on="1"/>
        <pt x="889" y="197" on="1"/>
        <pt x="889" y="868" on="1"/>
      </contour>
      <contour>
        <pt x="985" y="1249" on="1"/>
        <pt x="776" y="1249" on="1"/>
        <pt x="625" y="1384" on="1"/>
        <pt x="473" y="1249" on="1"/>
        <pt x="264" y="1249" on="1"/>
        <pt x="502" y="1495" on="1"/>
        <pt x="748" y="1495" on="1"/>
      </contour>
    </TTGlyph>
    <TTGlyph name="odieresis" xMin="164" yMin="0" xMax="1085" yMax="1466">
      <contour>
        <pt x="1085" y="197" on="1"/>
        <pt x="1085" y="156" on="0"/>
        <pt x="1054" y="84" on="0"/>
        <pt x="1001" y="31" on="0"/>
        <pt x="930" y="0" on="0"/>
        <pt x="889" y="0" on="1"/>
        <pt x="360" y="0" on="1"/>
        <pt x="320" y="0" on="0"/>
        <pt x="248" y="31" on="0"/>
        <pt x="195" y="84" on="0"/>
        <pt x="164" y="156" on="0"/>
        <pt x="164" y="197" on="1"/>
        <pt x="164" y="868" on="1"/>
        <pt x="164" y="909" on="0"/>
        <pt x="195" y="981" on="0"/>
        <pt x="248" y="1034" on="0"/>
        <pt x="320" y="1065" on="0"/>
        <pt x="360" y="1065" on="1"/>
        <pt x="889" y="1065" on="1"/>
        <pt x="930" y="1065" on="0"/>
        <pt x="1001" y="1034" on="0"/>
        <pt x="1054" y="981" on="0"/>
        <pt x="1085" y="909" on="0"/>
        <pt x="1085" y="868" on="1"/>
      </contour>
      <contour>
        <pt x="360" y="868" on="1"/>
        <pt x="360" y="197" on="1"/>
        <pt x="889" y="197" on="1"/>
        <pt x="889" y="868" on="1"/>
      </contour>
      <contour>
        <pt x="723" y="1466" on="1"/>
        <pt x="940" y="1466" on="1"/>
        <pt x="940" y="1249" on="1"/>
        <pt x="723" y="1249" on="1"/>
      </contour>
      <contour>
        <pt x="307" y="1466" on="1"/>
        <pt x="524" y="1466" on="1"/>
        <pt x="524" y="1249" on="1"/>
        <pt x="307" y="1249" on="1"/>
      </contour>
    </TTGlyph>
    <TTGlyph name="oe" xMin="164" yMin="0" xMax="1790" yMax="1065">
      <contour>
        <pt x="164" y="868" on="1"/>
        <pt x="164" y="909" on="0"/>
        <pt x="195" y="981" on="0"/>
        <pt x="248" y="1034" on="0"/>
        <pt x="320" y="1065" on="0"/>
        <pt x="360" y="1065" on="1"/>
        <pt x="807" y="1065" on="1"/>
        <pt x="867" y="1065" on="0"/>
        <pt x="964" y="999" on="0"/>
        <pt x="987" y="946" on="1"/>
        <pt x="1010" y="999" on="0"/>
        <pt x="1105" y="1065" on="0"/>
        <pt x="1167" y="1065" on="1"/>
        <pt x="1593" y="1065" on="1"/>
        <pt x="1634" y="1065" on="0"/>
        <pt x="1706" y="1034" on="0"/>
        <pt x="1759" y="981" on="0"/>
        <pt x="1790" y="909" on="0"/>
        <pt x="1790" y="868" on="1"/>
        <pt x="1790" y="432" on="1"/>
        <pt x="1085" y="432" on="1"/>
        <pt x="1085" y="197" on="1"/>
        <pt x="1790" y="197" on="1"/>
        <pt x="1790" y="0" on="1"/>
        <pt x="1167" y="0" on="1"/>
        <pt x="1105" y="0" on="0"/>
        <pt x="1010" y="64" on="0"/>
        <pt x="987" y="117" on="1"/>
        <pt x="964" y="64" on="0"/>
        <pt x="867" y="0" on="0"/>
        <pt x="807" y="0" on="1"/>
        <pt x="360" y="0" on="1"/>
        <pt x="320" y="0" on="0"/>
        <pt x="248" y="31" on="0"/>
        <pt x="195" y="84" on="0"/>
        <pt x="164" y="156" on="0"/>
        <pt x="164" y="197" on="1"/>
      </contour>
      <contour>
        <pt x="360" y="868" on="1"/>
        <pt x="360" y="197" on="1"/>
        <pt x="889" y="197" on="1"/>
        <pt x="889" y="868" on="1"/>
      </contour>
      <contour>
        <pt x="1085" y="868" on="1"/>
        <pt x="1085" y="629" on="1"/>
        <pt x="1593" y="629" on="1"/>
        <pt x="1593" y="868" on="1"/>
      </contour>
    </TTGlyph>
    <TTGlyph name="ogonek" xMin="123" yMin="-535" xMax="549" yMax="0">
      <contour>
        <pt x="379" y="0" on="1"/>
        <pt x="355" y="-41" on="0"/>
        <pt x="337" y="-84" on="1"/>
        <pt x="321" y="-121" on="0"/>
        <pt x="295" y="-210" on="0"/>
        <pt x="295" y="-252" on="1"/>
        <pt x="295" y="-309" on="0"/>
        <pt x="344" y="-377" on="0"/>
        <pt x="401" y="-377" on="1"/>
        <pt x="432" y="-377" on="0"/>
        <pt x="486" y="-361" on="0"/>
        <pt x="506" y="-350" on="1"/>
        <pt x="530" y="-338" on="0"/>
        <pt x="549" y="-322" on="1"/>
        <pt x="549" y="-463" on="1"/>
        <pt x="525" y="-483" on="0"/>
        <pt x="494" y="-499" on="1"/>
        <pt x="468" y="-513" on="0"/>
        <pt x="394" y="-535" on="0"/>
        <pt x="348" y="-535" on="1"/>
        <pt x="302" y="-535" on="0"/>
        <pt x="220" y="-504" on="0"/>
        <pt x="159" y="-445" on="0"/>
        <pt x="123" y="-359" on="0"/>
        <pt x="123" y="-303" on="1"/>
        <pt x="123" y="-240" on="0"/>
        <pt x="157" y="-131" on="0"/>
        <pt x="178" y="-89" on="1"/>
        <pt x="203" y="-41" on="0"/>
        <pt x="233" y="0" on="1"/>
      </contour>
    </TTGlyph>
    <TTGlyph name="ograve" xMin="164" yMin="0" xMax="1085" yMax="1475">
      <contour>
        <pt x="1085" y="197" on="1"/>
        <pt x="1085" y="156" on="0"/>
        <pt x="1054" y="84" on="0"/>
        <pt x="1001" y="31" on="0"/>
        <pt x="930" y="0" on="0"/>
        <pt x="889" y="0" on="1"/>
        <pt x="360" y="0" on="1"/>
        <pt x="320" y="0" on="0"/>
        <pt x="248" y="31" on="0"/>
        <pt x="195" y="84" on="0"/>
        <pt x="164" y="156" on="0"/>
        <pt x="164" y="197" on="1"/>
        <pt x="164" y="868" on="1"/>
        <pt x="164" y="909" on="0"/>
        <pt x="195" y="981" on="0"/>
        <pt x="248" y="1034" on="0"/>
        <pt x="320" y="1065" on="0"/>
        <pt x="360" y="1065" on="1"/>
        <pt x="889" y="1065" on="1"/>
        <pt x="930" y="1065" on="0"/>
        <pt x="1001" y="1034" on="0"/>
        <pt x="1054" y="981" on="0"/>
        <pt x="1085" y="909" on="0"/>
        <pt x="1085" y="868" on="1"/>
      </contour>
      <contour>
        <pt x="360" y="868" on="1"/>
        <pt x="360" y="197" on="1"/>
        <pt x="889" y="197" on="1"/>
        <pt x="889" y="868" on="1"/>
      </contour>
      <contour>
        <pt x="805" y="1249" on="1"/>
        <pt x="616" y="1249" on="1"/>
        <pt x="279" y="1475" on="1"/>
        <pt x="578" y="1475" on="1"/>
      </contour>
    </TTGlyph>
    <TTGlyph name="one" xMin="61" yMin="0" xMax="512" yMax="1434">
      <contour>
        <pt x="512" y="1434" on="1"/>
        <pt x="512" y="0" on="1"/>
        <pt x="307" y="0" on="1"/>
        <pt x="307" y="1229" on="1"/>
        <pt x="61" y="1229" on="1"/>
        <pt x="61" y="1434" on="1"/>
      </contour>
    </TTGlyph>
    <TTGlyph name="onehalf" xMin="123" yMin="0" xMax="1599" yMax="1434">
      <contour>
        <pt x="174" y="0" on="1"/>
        <pt x="1124" y="1434" on="1"/>
        <pt x="1294" y="1434" on="1"/>
        <pt x="334" y="0" on="1"/>
      </contour>
      <contour>
        <pt x="389" y="1434" on="1"/>
        <pt x="389" y="676" on="1"/>
        <pt x="246" y="676" on="1"/>
        <pt x="246" y="1290" on="1"/>
        <pt x="123" y="1290" on="1"/>
        <pt x="123" y="1434" on="1"/>
      </contour>
      <contour>
        <pt x="1014" y="209" on="1"/>
        <pt x="1014" y="257" on="0"/>
        <pt x="1054" y="318" on="0"/>
        <pt x="1098" y="338" on="1"/>
        <pt x="1442" y="500" on="1"/>
        <pt x="1442" y="614" on="1"/>
        <pt x="1157" y="614" on="1"/>
        <pt x="1157" y="522" on="1"/>
        <pt x="1014" y="522" on="1"/>
        <pt x="1014" y="655" on="1"/>
        <pt x="1014" y="679" on="0"/>
        <pt x="1035" y="717" on="0"/>
        <pt x="1070" y="744" on="0"/>
        <pt x="1112" y="758" on="0"/>
        <pt x="1133" y="758" on="1"/>
        <pt x="1466" y="758" on="1"/>
        <pt x="1488" y="758" on="0"/>
        <pt x="1530" y="743" on="0"/>
        <pt x="1564" y="716" on="0"/>
        <pt x="1585" y="678" on="0"/>
        <pt x="1585" y="655" on="1"/>
        <pt x="1585" y="504" on="1"/>
        <pt x="1585" y="456" on="0"/>
        <pt x="1546" y="396" on="0"/>
        <pt x="1501" y="375" on="1"/>
        <pt x="1157" y="213" on="1"/>
        <pt x="1157" y="143" on="1"/>
        <pt x="1456" y="143" on="1"/>
        <pt x="1456" y="236" on="1"/>
        <pt x="1599" y="236" on="1"/>
        <pt x="1599" y="0" on="1"/>
        <pt x="1014" y="0" on="1"/>
        <pt x="1014" y="209" on="1"/>
      </contour>
    </TTGlyph>
    <TTGlyph name="onequarter" xMin="123" yMin="0" xMax="1466" yMax="1434">
      <contour>
        <pt x="174" y="0" on="1"/>
        <pt x="1124" y="1434" on="1"/>
        <pt x="1294" y="1434" on="1"/>
        <pt x="334" y="0" on="1"/>
      </contour>
      <contour>
        <pt x="389" y="1434" on="1"/>
        <pt x="389" y="676" on="1"/>
        <pt x="246" y="676" on="1"/>
        <pt x="246" y="1290" on="1"/>
        <pt x="123" y="1290" on="1"/>
        <pt x="123" y="1434" on="1"/>
      </contour>
      <contour>
        <pt x="1219" y="758" on="1"/>
        <pt x="1370" y="758" on="1"/>
        <pt x="1370" y="287" on="1"/>
        <pt x="1466" y="287" on="1"/>
        <pt x="1466" y="147" on="1"/>
        <pt x="1370" y="147" on="1"/>
        <pt x="1370" y="0" on="1"/>
        <pt x="1227" y="0" on="1"/>
        <pt x="1227" y="147" on="1"/>
        <pt x="854" y="147" on="1"/>
        <pt x="854" y="274" on="1"/>
      </contour>
      <contour>
        <pt x="1227" y="287" on="1"/>
        <pt x="1227" y="567" on="1"/>
        <pt x="1014" y="287" on="1"/>
      </contour>
    </TTGlyph>
    <TTGlyph name="onesuperior" xMin="82" yMin="676" xMax="348" yMax="1434">
      <contour>
        <pt x="348" y="1434" on="1"/>
        <pt x="348" y="676" on="1"/>
        <pt x="205" y="676" on="1"/>
        <pt x="205" y="1290" on="1"/>
        <pt x="82" y="1290" on="1"/>
        <pt x="82" y="1434" on="1"/>
      </contour>
    </TTGlyph>
    <TTGlyph name="ordfeminine" xMin="143" yMin="352" xMax="782" yMax="1434">
      <contour>
        <pt x="143" y="985" on="1"/>
        <pt x="143" y="1018" on="0"/>
        <pt x="168" y="1076" on="0"/>
        <pt x="210" y="1118" on="0"/>
        <pt x="268" y="1143" on="0"/>
        <pt x="301" y="1143" on="1"/>
        <pt x="625" y="1143" on="1"/>
        <pt x="625" y="1280" on="1"/>
        <pt x="193" y="1280" on="1"/>
        <pt x="193" y="1434" on="1"/>
        <pt x="625" y="1434" on="1"/>
        <pt x="658" y="1434" on="0"/>
        <pt x="715" y="1409" on="0"/>
        <pt x="758" y="1366" on="0"/>
        <pt x="782" y="1308" on="0"/>
        <pt x="782" y="1276" on="1"/>
        <pt x="782" y="664" on="1"/>
        <pt x="631" y="664" on="1"/>
        <pt x="631" y="803" on="1"/>
        <pt x="628" y="772" on="0"/>
        <pt x="601" y="721" on="0"/>
        <pt x="559" y="684" on="0"/>
        <pt x="504" y="664" on="0"/>
        <pt x="473" y="664" on="1"/>
        <pt x="301" y="664" on="1"/>
        <pt x="268" y="664" on="0"/>
        <pt x="210" y="688" on="0"/>
        <pt x="168" y="730" on="0"/>
        <pt x="143" y="787" on="0"/>
        <pt x="143" y="819" on="1"/>
      </contour>
      <contour>
        <pt x="143" y="485" on="1"/>
        <pt x="782" y="485" on="1"/>
        <pt x="782" y="352" on="1"/>
        <pt x="143" y="352" on="1"/>
      </contour>
      <contour>
        <pt x="295" y="815" on="1"/>
        <pt x="631" y="815" on="1"/>
        <pt x="631" y="991" on="1"/>
        <pt x="295" y="991" on="1"/>
      </contour>
    </TTGlyph>
    <TTGlyph name="ordmasculine" xMin="143" yMin="352" xMax="782" yMax="1434">
      <contour>
        <pt x="782" y="819" on="1"/>
        <pt x="782" y="787" on="0"/>
        <pt x="758" y="730" on="0"/>
        <pt x="715" y="688" on="0"/>
        <pt x="658" y="664" on="0"/>
        <pt x="625" y="664" on="1"/>
        <pt x="301" y="664" on="1"/>
        <pt x="268" y="664" on="0"/>
        <pt x="210" y="688" on="0"/>
        <pt x="168" y="730" on="0"/>
        <pt x="143" y="787" on="0"/>
        <pt x="143" y="819" on="1"/>
        <pt x="143" y="1276" on="1"/>
        <pt x="143" y="1308" on="0"/>
        <pt x="168" y="1366" on="0"/>
        <pt x="210" y="1409" on="0"/>
        <pt x="268" y="1434" on="0"/>
        <pt x="301" y="1434" on="1"/>
        <pt x="625" y="1434" on="1"/>
        <pt x="658" y="1434" on="0"/>
        <pt x="715" y="1409" on="0"/>
        <pt x="758" y="1366" on="0"/>
        <pt x="782" y="1308" on="0"/>
        <pt x="782" y="1276" on="1"/>
      </contour>
      <contour>
        <pt x="295" y="1280" on="1"/>
        <pt x="295" y="815" on="1"/>
        <pt x="631" y="815" on="1"/>
        <pt x="631" y="1280" on="1"/>
      </contour>
      <contour>
        <pt x="143" y="485" on="1"/>
        <pt x="782" y="485" on="1"/>
        <pt x="782" y="352" on="1"/>
        <pt x="143" y="352" on="1"/>
      </contour>
    </TTGlyph>
    <TTGlyph name="oslash" xMin="164" yMin="-205" xMax="1085" yMax="1249">
      <contour>
        <pt x="1085" y="197" on="1"/>
        <pt x="1085" y="156" on="0"/>
        <pt x="1054" y="84" on="0"/>
        <pt x="1001" y="31" on="0"/>
        <pt x="930" y="0" on="0"/>
        <pt x="889" y="0" on="1"/>
        <pt x="420" y="0" on="1"/>
        <pt x="311" y="-205" on="1"/>
        <pt x="164" y="-205" on="1"/>
        <pt x="281" y="16" on="1"/>
        <pt x="228" y="39" on="0"/>
        <pt x="164" y="137" on="0"/>
        <pt x="164" y="197" on="1"/>
        <pt x="164" y="868" on="1"/>
        <pt x="164" y="909" on="0"/>
        <pt x="195" y="981" on="0"/>
        <pt x="248" y="1034" on="0"/>
        <pt x="320" y="1065" on="0"/>
        <pt x="360" y="1065" on="1"/>
        <pt x="831" y="1065" on="1"/>
        <pt x="928" y="1249" on="1"/>
        <pt x="1085" y="1249" on="1"/>
        <pt x="977" y="1044" on="1"/>
        <pt x="1025" y="1020" on="0"/>
        <pt x="1085" y="925" on="0"/>
        <pt x="1085" y="868" on="1"/>
      </contour>
      <contour>
        <pt x="360" y="197" on="1"/>
        <pt x="375" y="197" on="1"/>
        <pt x="727" y="868" on="1"/>
        <pt x="360" y="868" on="1"/>
      </contour>
      <contour>
        <pt x="883" y="868" on="1"/>
        <pt x="524" y="197" on="1"/>
        <pt x="889" y="197" on="1"/>
        <pt x="889" y="868" on="1"/>
      </contour>
    </TTGlyph>
</ttFont>
